<?xml version="1.0" encoding="utf-8"?>
<!-- Generator: Adobe Illustrator 23.0.5, SVG Export Plug-In . SVG Version: 6.00 Build 0)  -->
<svg version="1.1" id="f5a85adf-f578-47ae-974b-516e1bf5a2c0"
	 xmlns="http://www.w3.org/2000/svg" xmlns:xlink="http://www.w3.org/1999/xlink" x="0px" y="0px" viewBox="0 0 271.2 271.1"
	 style="enable-background:new 0 0 271.2 271.1;" xml:space="preserve">
<style type="text/css">
	.st0{fill:#00BDF1;}
	.st1{fill:#0070B9;}
	.st2{fill:#FF8C2B;}
	.st3{fill:#00D8F6;}
	.st4{fill:#2CABD6;}
	.st5{fill:#FFBA85;}
	.st6{fill:#004999;}
	.st7{fill:#FF650A;}
	.st8{fill:#00A1E9;}
</style>
<title>logo</title>
<g>
	<path class="st0" d="M4.1,127.6c0.7-14.5,4.9-27.3,19-34.1c12.5-6,27.4,0,30.4,12.3c1.9,7.5,0.4,14.8-3.3,21.7
		c-5.1,9-8.8,18.6-11.3,28.6c-2.8,12.5-2.4,25-0.2,37.5c-2.4,0.3-3.6-1.5-4.9-2.9c-14.7-16-23.9-35-29.1-56.1
		C4.2,132.2,5.1,129.8,4.1,127.6z"/>
	<path class="st1" d="M193.2,257.7c-11.8,6.4-24,9.7-37,3.7c-8.8-4.1-14.6-13.7-13.8-22.4c0.8-9.4,7.2-16.5,17.6-19.1
		c3.6-0.8,7.2-1.3,10.8-1.3c20.5-0.4,39.2-6.2,55.4-19c1.9-1.5,3.8-3.1,5.8-4.7c0.8,5.4-1.9,10-3.8,14.6
		c-6.4,15.5-15.9,29.2-27.3,41.5C198.6,253.4,195.6,255.2,193.2,257.7z"/>
	<path class="st2" d="M208,28.5c10.1,6,18.5,13.5,22.1,25.2c2.4,8.1,1.4,15.9-3.8,22.7c-8.8,11.3-23.4,11-33.5-0.5
		c-5.6-6.4-9.4-14.1-14.9-20.6c-10-12.1-23.1-21.2-37.8-26.6c-0.8-0.3-1.5-0.7-2.2-1c1.3-2.9,4.3-3,6.8-3.4
		c20.5-4,40.7-2.5,60.6,3.7C206.1,28.3,207,28.5,208,28.5z"/>
	<path class="st3" d="M48.9,218.5c-0.5-2.9-0.9-5.9-1.2-9c-0.2-2.4-0.4-4.7-0.6-7c2.1,1.2,5.1,2.7,8.7,4.8c2.8,1.6,5.7,3.1,8.6,4.3
		c10,4.2,20.6,6.5,31.3,7c5.4,0.2,10.9,0.4,16.2,2.2c11,3.7,16.7,10.9,16.3,21c-0.4,9.2-8.7,18.6-18.4,21.1
		c-11.5,2.9-21.9-0.5-32.1-5.1c-10.8-8.9-18.9-19.8-26.4-31.3C49.9,224.1,49,221.3,48.9,218.5z"/>
	<path class="st4" d="M234.4,184.3c1.7-20.9-3-39.5-12.7-57.1c-3.8-6.9-6.2-14.4-3.1-22.4c5.6-14.3,23.5-17.8,35.5-7
		c5.7,5,9.6,11.6,11.1,19c0.9,4.2,1.6,8.4,2.4,12.6c-0.5,14-5.4,27.5-14.1,38.6C248.4,174.6,241.8,180.2,234.4,184.3z"/>
	<path class="st5" d="M105.1,23.6c6.1,2.4,12.9,3.3,19.4,7.1c-10,5.1-18.7,10.7-26.1,18.1c-6.2,6.2-11.1,13.5-15.9,20.8
		c-4.1,6.3-9.2,11.7-16.8,14c-6.7,2-15.6-1.2-19.8-6.9c-8.9-12-6.2-24.4,2.3-34.9c3.7-4.6,8.5-8.2,12.7-12.3
		c10.9-3.8,22.2-5.8,33.6-7C98.1,22.1,101.8,21,105.1,23.6z"/>
	<path class="st6" d="M248,173.6c6.4-7.2,9.2-16.2,12.7-24.8c2.4-5.8,4.1-11.8,5.3-18c0.2-1.1,0.3-1.9,1.7-1.5
		c1.8,56.9-21.9,99.4-71.7,127.2c-0.9,0.4-1.8,0.8-2.8,1.1c2.5-5.1,7.3-8.4,11-12.5c12.9-14.5,22.4-31.8,27.9-50.4
		c5.3-6.1,11.4-11.5,15.1-18.8C247.5,175.1,247.8,174.4,248,173.6z"/>
	<path class="st7" d="M105.1,23.6c-13-0.4-25.6,2.1-38.2,5.3c-1.9,0.5-3.8,2.5-6,0.5C77.8,18.5,96,11,116,8.1
		c33.3-4.8,63.9,2,92,20.4c-1.2,1.4-2.6,0.9-4.1,0.4c-14.2-4.4-29.1-6.2-44-5.3c-7.5,0.4-15.1,1-22.2,4.1
		C127,25.4,116.3,22.5,105.1,23.6z"/>
	<path class="st8" d="M48.9,218.5c6.8,15,17.5,27.2,29.3,38.4c0.1,0-0.3,0.5-0.4,0.8c-21.9-10.1-39.1-25.6-52.3-45.5
		C8.5,186.5,1,158.3,4.1,127.6c3,10.8,5.8,21.5,10.7,31.7c6.1,12.8,13.4,24.6,24,34.2C41.6,202,43.5,211,48.9,218.5z"/>
	<path class="st0" d="M95.2,174.6c0.3,11.8-9.1,21.6-20.9,21.9c-0.2,0-0.5,0-0.7,0c-12.1,0.2-22.1-9.5-22.3-21.6c0-0.1,0-0.2,0-0.4
		c0.1-12,9.8-21.8,21.8-22c11.9-0.2,21.8,9.3,22.1,21.2C95.2,174.1,95.2,174.3,95.2,174.6z"/>
	<path class="st1" d="M197.8,196.7c-12.4,0-21.9-9.3-21.9-21.6c-0.2-12.1,9.5-22,21.6-22.2c0.2,0,0.4,0,0.6,0
		c11.9,0.2,22,10.3,21.9,22.1C219.8,187.2,210.1,196.6,197.8,196.7z"/>
	<path class="st2" d="M136.1,88.8c-12,0.1-21.8-9.6-21.8-21.6c-0.1-12,9.6-21.8,21.6-21.8c12-0.1,21.8,9.6,21.8,21.6
		c0,0.1,0,0.2,0,0.2C157.6,79,148,88.6,136.1,88.8z"/>
</g>
</svg>
