<?xml version="1.0" standalone="no"?>
<!DOCTYPE svg PUBLIC "-//W3C//DTD SVG 20010904//EN"
 "http://www.w3.org/TR/2001/REC-SVG-20010904/DTD/svg10.dtd">
<svg version="1.0" xmlns="http://www.w3.org/2000/svg"
 width="4683.000000pt" height="2166.000000pt" viewBox="0 0 4683.000000 2166.000000"
 preserveAspectRatio="xMidYMid meet">

<g transform="translate(0.000000,2166.000000) scale(0.100000,-0.100000)"
fill="#000000" stroke="none">
<path d="M9490 17180 c-704 -5 -767 -6 -795 -22 -24 -14 -54 -18 -153 -18
-115 0 -124 -1 -129 -20 -5 -18 -14 -20 -77 -20 -70 0 -108 -11 -92 -27 13
-13 176 -17 176 -4 0 6 16 11 36 11 27 0 37 -5 41 -20 4 -16 15 -20 62 -22 49
-3 56 -6 59 -25 3 -21 8 -22 65 -20 58 2 62 1 65 -21 3 -21 7 -23 43 -17 37 6
39 5 39 -19 0 -25 1 -26 63 -23 58 2 62 0 65 -20 3 -19 10 -23 43 -23 32 0 39
-3 39 -20 0 -16 7 -20 36 -20 27 0 37 -5 41 -20 4 -15 14 -20 38 -20 53 0 95
-12 95 -26 0 -9 12 -14 36 -14 27 0 37 -5 41 -20 4 -16 14 -20 45 -20 31 0 41
-4 45 -20 3 -11 14 -20 24 -20 11 0 19 -4 19 -10 0 -5 9 -10 20 -10 11 0 20
-7 20 -15 0 -8 9 -15 20 -15 13 0 20 -7 20 -20 0 -16 7 -20 36 -20 27 0 37 -5
41 -20 4 -16 14 -20 45 -20 31 0 41 -4 45 -20 4 -14 14 -20 33 -20 38 0 60 -9
60 -25 0 -7 7 -15 15 -19 8 -3 15 -15 15 -26 0 -17 6 -20 46 -20 44 0 46 -1
42 -25 -5 -24 -3 -25 38 -25 31 0 44 -4 44 -14 0 -7 9 -16 20 -19 17 -4 20
-10 14 -33 -5 -19 -4 -25 5 -20 6 4 9 12 6 17 -10 15 22 10 39 -6 8 -8 18 -15
23 -15 4 0 19 -9 33 -20 14 -11 35 -20 48 -20 14 0 27 -9 33 -24 8 -16 17 -22
30 -19 28 8 69 -5 69 -22 0 -9 9 -15 24 -15 13 0 34 -9 48 -19 13 -11 38 -23
54 -27 16 -4 35 -13 42 -21 7 -7 25 -16 40 -19 15 -4 34 -12 42 -19 8 -7 31
-20 50 -29 72 -34 110 -56 110 -65 0 -5 13 -11 30 -14 16 -4 38 -16 47 -27 10
-11 28 -20 40 -20 13 0 29 -11 39 -25 12 -19 22 -23 40 -19 19 5 26 1 35 -20
7 -15 20 -26 32 -26 10 0 21 -8 24 -19 3 -12 14 -18 31 -18 16 0 32 -9 40 -22
8 -11 20 -21 28 -21 21 0 104 -60 104 -76 0 -9 11 -14 30 -14 18 0 33 -6 36
-15 3 -8 15 -17 25 -20 11 -4 24 -18 29 -31 6 -14 18 -24 29 -24 10 0 21 -7
25 -15 3 -8 14 -15 24 -15 11 0 39 -19 64 -43 24 -23 55 -48 69 -55 13 -7 33
-18 44 -25 31 -18 125 -114 125 -126 0 -6 12 -11 28 -11 26 0 92 -50 92 -71 0
-5 7 -9 15 -9 9 0 21 -11 27 -25 6 -14 17 -25 25 -25 7 0 17 -8 20 -17 4 -10
14 -23 22 -30 29 -21 2 -27 -34 -7 -40 21 -181 154 -177 166 1 5 -10 8 -25 8
-31 0 -143 91 -143 116 0 9 -11 14 -29 14 -16 0 -34 7 -41 15 -7 8 -18 15 -25
15 -7 0 -20 11 -29 25 -9 14 -23 25 -31 25 -8 0 -18 6 -22 13 -11 17 -64 53
-90 61 -12 4 -25 16 -28 27 -4 10 -15 19 -25 19 -25 0 -100 50 -100 67 0 8
-12 13 -30 13 -19 0 -34 7 -42 20 -7 11 -22 20 -33 20 -11 0 -26 9 -33 20 -7
11 -23 20 -37 20 -14 0 -29 8 -35 20 -6 12 -21 20 -35 20 -14 0 -30 9 -37 20
-7 11 -18 20 -24 20 -6 0 -22 8 -35 19 -13 10 -41 24 -61 30 -21 7 -38 16 -38
21 0 4 -13 10 -29 13 -18 4 -32 14 -36 27 -5 15 -15 20 -42 20 -26 0 -36 5
-40 20 -4 14 -14 20 -32 20 -15 0 -30 -3 -34 -6 -12 -12 6 -34 29 -34 14 0 24
-6 24 -14 0 -8 7 -16 15 -20 8 -3 15 -12 15 -21 0 -11 11 -15 41 -15 32 0 42
-4 46 -20 3 -11 12 -20 20 -20 8 0 17 -9 20 -20 3 -11 12 -20 20 -20 8 0 17
-9 20 -19 3 -11 16 -22 29 -25 13 -4 24 -13 24 -21 0 -7 9 -17 20 -20 11 -3
20 -12 20 -20 0 -8 9 -17 20 -20 11 -3 20 -15 20 -26 0 -12 7 -19 20 -19 13 0
20 -7 20 -20 0 -12 7 -20 16 -20 9 0 18 -9 21 -20 3 -11 12 -20 20 -20 8 0 17
-9 20 -19 3 -11 16 -22 29 -25 13 -4 24 -13 24 -21 0 -7 9 -17 20 -20 11 -3
20 -12 20 -20 0 -8 9 -17 20 -20 11 -3 20 -15 20 -26 0 -12 7 -19 20 -19 13 0
20 -7 20 -19 0 -10 9 -21 20 -24 11 -3 20 -12 20 -20 0 -8 9 -17 20 -20 11 -3
20 -12 20 -20 0 -8 11 -18 25 -21 14 -4 25 -13 25 -21 0 -7 9 -17 20 -20 11
-3 20 -12 20 -20 0 -8 9 -17 20 -20 11 -3 20 -15 20 -26 0 -12 7 -19 20 -19
17 0 20 -7 20 -39 0 -30 4 -40 20 -44 11 -3 20 -12 20 -20 0 -8 9 -17 20 -20
11 -3 20 -12 20 -20 0 -8 11 -18 25 -21 14 -4 25 -13 25 -21 0 -7 9 -17 20
-20 15 -5 20 -15 20 -45 0 -30 5 -40 20 -45 11 -3 20 -12 20 -20 0 -7 9 -15
20 -18 11 -3 20 -12 20 -21 0 -9 8 -16 20 -16 17 0 20 -7 20 -45 0 -38 3 -45
20 -45 13 0 20 -7 20 -20 0 -15 7 -20 25 -20 22 0 25 -4 25 -39 0 -31 4 -41
20 -46 11 -3 20 -13 20 -21 0 -8 9 -14 20 -14 17 0 20 -7 20 -45 0 -38 3 -45
20 -45 13 0 20 -7 20 -20 0 -13 7 -20 20 -20 17 0 20 -7 20 -40 0 -30 4 -40
16 -40 9 0 18 -9 21 -20 3 -11 12 -20 19 -20 8 0 14 -10 14 -25 0 -14 5 -25
10 -25 6 0 10 -6 10 -14 0 -8 9 -18 20 -21 16 -5 20 -15 20 -46 0 -33 3 -39
21 -39 19 0 20 -4 14 -40 -6 -38 -6 -40 19 -40 24 0 26 -3 26 -45 0 -38 3 -45
20 -45 17 0 20 -7 20 -40 0 -33 3 -40 20 -40 17 0 20 -7 20 -40 0 -36 2 -40
26 -40 25 0 26 -1 20 -45 -7 -44 -6 -45 19 -45 26 0 26 -2 20 -40 -6 -38 -6
-40 19 -40 24 0 26 -4 26 -40 0 -33 3 -40 20 -40 17 0 20 -7 20 -45 0 -32 4
-45 14 -45 14 0 26 -42 26 -91 0 -22 5 -29 20 -29 18 0 20 -7 20 -65 0 -63 1
-65 26 -65 25 0 25 -2 19 -40 -6 -33 -4 -40 9 -40 9 0 16 -8 16 -20 0 -11 5
-20 11 -20 7 0 8 -16 3 -45 -5 -38 -4 -45 10 -45 9 0 16 -8 16 -20 0 -11 5
-20 11 -20 7 0 8 -14 4 -40 -6 -35 -4 -40 13 -40 23 0 32 -33 32 -116 0 -47 2
-54 20 -54 18 0 20 -7 20 -60 0 -44 4 -60 14 -60 17 0 26 -43 26 -120 0 -66 8
-99 20 -80 6 9 13 9 29 1 30 -17 17 -31 -29 -31 -30 0 -38 -3 -34 -14 7 -19
-15 -31 -53 -27 -23 2 -34 -3 -43 -18 -8 -15 -21 -21 -45 -21 -26 0 -39 -6
-51 -25 -13 -21 -24 -25 -62 -25 -35 0 -50 -5 -68 -25 -20 -22 -29 -24 -67
-19 -38 5 -47 3 -73 -21 -27 -25 -33 -27 -94 -22 -57 5 -69 3 -100 -18 -34
-23 -42 -24 -310 -29 -151 -3 -900 -8 -1665 -12 -817 -4 -1397 -10 -1408 -16
-10 -5 -93 -13 -185 -17 -94 -5 -178 -13 -190 -20 -12 -6 -61 -17 -110 -22
-48 -6 -99 -17 -113 -25 -14 -7 -50 -16 -80 -20 -30 -4 -72 -15 -94 -25 -22
-10 -50 -19 -63 -19 -12 0 -40 -9 -62 -20 -22 -11 -47 -20 -57 -20 -10 0 -35
-9 -56 -20 -20 -11 -44 -20 -52 -20 -9 0 -33 -9 -53 -19 -20 -11 -48 -24 -62
-30 -14 -6 -32 -15 -40 -20 -8 -5 -26 -14 -40 -20 -41 -19 -84 -41 -100 -52
-8 -5 -26 -15 -40 -21 -21 -10 -57 -33 -151 -93 -225 -145 -499 -404 -625
-589 -35 -51 -24 -55 24 -9 94 90 151 142 217 196 39 31 77 64 86 72 9 8 23
15 32 15 10 0 17 4 17 9 0 9 45 40 99 70 14 8 28 18 31 22 3 5 21 16 40 24 46
22 90 46 120 68 13 9 32 17 41 17 9 0 24 9 34 20 10 11 29 20 42 20 14 0 36 9
50 20 14 11 36 20 48 20 12 0 33 8 46 19 13 10 40 21 60 25 21 4 42 13 48 20
7 8 33 17 58 21 25 4 56 13 68 21 13 8 47 17 76 21 30 3 64 12 76 20 12 8 48
17 80 20 32 3 82 14 111 24 37 13 79 19 143 19 69 0 96 4 116 18 26 16 130 17
1733 22 1294 4 1710 8 1726 17 21 12 74 20 180 27 34 2 74 11 90 19 16 8 56
18 89 22 33 4 67 14 76 21 8 8 38 17 65 20 27 4 56 13 65 21 9 8 34 17 55 20
22 3 50 14 63 25 13 10 36 18 51 18 15 0 35 9 45 20 10 11 26 20 35 20 10 0
28 9 42 19 13 11 37 23 51 26 15 4 30 11 33 16 3 5 20 16 37 24 18 8 50 26 72
40 22 13 51 30 65 37 24 12 114 79 153 113 9 8 21 15 26 15 20 0 310 281 408
396 23 27 49 57 58 67 8 9 15 21 15 26 0 9 16 29 68 88 12 14 22 32 22 39 0
14 55 100 71 109 5 4 9 14 9 24 0 10 9 26 20 36 11 10 20 26 20 37 0 10 5 18
11 18 5 0 17 16 25 35 8 19 19 35 24 35 5 0 17 15 25 33 26 55 49 91 68 105 9
7 17 23 17 36 0 13 9 31 20 41 11 10 20 28 20 40 0 12 9 30 20 40 11 10 20 28
20 40 0 12 8 33 18 46 11 13 22 39 25 57 4 18 14 40 22 48 8 9 15 28 15 43 0
16 9 39 19 53 11 14 23 49 27 79 4 29 15 67 26 84 12 19 18 49 18 85 0 38 7
68 22 95 21 39 22 47 22 485 1 440 0 446 -22 492 -14 31 -22 67 -22 101 0 33
-6 61 -17 77 -9 13 -20 48 -24 78 -4 30 -14 61 -22 70 -8 10 -18 38 -21 64 -4
26 -14 51 -22 56 -9 5 -18 27 -21 50 -3 23 -14 49 -24 58 -11 9 -19 29 -19 44
0 15 -9 35 -20 45 -11 10 -20 26 -20 37 0 10 -9 26 -20 35 -11 10 -20 27 -20
39 0 11 -9 29 -20 39 -11 10 -20 23 -20 29 0 6 -20 40 -45 76 -25 36 -45 68
-45 73 0 4 -9 17 -20 30 -41 45 -100 123 -100 130 0 14 -285 303 -336 342 -14
11 -35 28 -45 38 -11 9 -22 17 -27 17 -4 0 -30 20 -57 45 -28 25 -55 45 -61
45 -6 0 -19 9 -28 19 -10 11 -28 22 -42 25 -13 4 -24 11 -24 16 0 5 -16 16
-35 25 -20 8 -43 21 -51 30 -9 8 -24 15 -34 15 -10 0 -22 5 -26 11 -3 6 -22
17 -40 25 -19 8 -34 19 -34 24 0 5 -18 13 -40 16 -21 4 -47 15 -56 25 -9 11
-27 19 -39 19 -12 0 -34 9 -48 20 -14 11 -35 20 -47 20 -13 0 -37 8 -54 19
-17 10 -53 22 -81 26 -27 4 -57 12 -65 19 -8 7 -42 18 -75 24 -33 6 -85 18
-115 26 -30 9 -75 16 -101 16 -25 0 -68 8 -95 17 -45 15 -126 17 -894 18 -465
0 -1189 -2 -1610 -5z m2290 -571 c19 -4 76 -13 126 -19 50 -5 108 -17 127 -25
20 -8 50 -15 66 -15 16 0 53 -8 83 -19 29 -10 71 -23 93 -29 60 -16 135 -42
185 -65 25 -11 63 -28 85 -37 22 -10 51 -23 65 -29 42 -19 132 -71 189 -109
30 -20 61 -41 70 -47 49 -31 118 -92 217 -191 89 -90 125 -136 182 -232 40
-66 72 -126 72 -134 0 -8 4 -18 8 -23 8 -9 46 -127 72 -225 17 -64 24 -243 11
-269 -11 -20 -11 -20 -44 -1 -17 11 -39 23 -47 27 -8 3 -17 9 -20 12 -12 14
-70 51 -80 51 -5 0 -10 4 -10 9 0 5 -13 12 -30 16 -16 4 -32 15 -35 26 -4 10
-18 22 -33 26 -15 3 -43 14 -62 25 -19 10 -44 18 -56 18 -12 0 -33 11 -48 25
-15 14 -33 25 -41 25 -7 0 -17 9 -20 20 -5 15 -15 20 -41 20 -19 0 -34 5 -34
10 0 6 -7 10 -15 10 -9 0 -18 6 -21 14 -3 7 -23 16 -45 20 -30 5 -39 11 -39
26 0 13 -7 20 -19 20 -13 0 -21 8 -23 23 -2 18 -10 23 -45 25 -24 2 -43 7 -43
11 0 5 -20 14 -45 20 -25 6 -45 16 -45 21 0 6 -6 10 -12 10 -7 0 -24 9 -38 20
-14 11 -31 20 -39 20 -7 0 -28 16 -47 35 -18 19 -37 35 -43 35 -6 0 -11 7 -11
15 0 10 -10 15 -26 15 -15 0 -34 8 -43 19 -9 10 -27 22 -41 26 -14 4 -32 16
-41 26 -9 11 -21 19 -28 19 -6 0 -11 4 -11 8 0 5 -18 14 -40 21 -22 6 -40 16
-40 21 0 6 -7 10 -15 10 -8 0 -15 5 -15 10 0 6 -8 10 -19 10 -10 0 -21 9 -24
20 -4 16 -14 20 -46 20 -34 0 -41 3 -41 20 0 15 -7 20 -25 20 -14 0 -34 9 -44
19 -10 10 -28 22 -40 26 -12 3 -21 10 -21 15 0 5 -16 14 -35 21 -22 8 -35 20
-35 31 0 12 -7 18 -21 18 -11 0 -17 5 -14 10 4 6 -5 10 -19 10 -14 0 -26 5
-26 10 0 6 -18 10 -40 10 -22 0 -40 4 -40 10 0 5 -16 25 -35 45 -20 19 -40 35
-45 35 -6 0 -10 5 -10 10 0 6 -11 10 -25 10 -14 0 -25 5 -25 10 0 6 -7 10 -15
10 -16 0 -55 34 -55 48 0 18 -42 52 -65 52 -16 0 -25 6 -25 15 0 9 -9 15 -24
15 -14 0 -28 5 -31 10 -3 6 -12 10 -20 10 -7 0 -31 18 -53 40 -37 38 -42 40
-103 41 -56 0 -132 16 -89 18 8 1 65 6 125 12 266 26 678 30 765 8z m250
-1596 c0 -5 17 -19 38 -33 30 -20 352 -335 352 -344 0 -2 25 -28 55 -59 48
-48 66 -77 50 -77 -5 0 -112 102 -301 288 -69 67 -129 122 -134 122 -4 0 -18
16 -30 35 -12 19 -30 40 -41 45 -23 13 -25 30 -4 30 8 0 15 -3 15 -7z m705
-743 c3 -5 1 -10 -4 -10 -6 0 -11 5 -11 10 0 6 2 10 4 10 3 0 8 -4 11 -10z
m53 -48 c3 -9 -2 -13 -14 -10 -9 1 -19 9 -22 16 -3 9 2 13 14 10 9 -1 19 -9
22 -16z m32 -42 c0 -5 -2 -10 -4 -10 -3 0 -8 5 -11 10 -3 6 -1 10 4 10 6 0 11
-4 11 -10z m128 -169 c3 -8 -1 -12 -9 -9 -7 2 -15 10 -17 17 -3 8 1 12 9 9 7
-2 15 -10 17 -17z m-58 -1641 c0 -5 -4 -10 -10 -10 -5 0 -10 5 -10 10 0 6 5
10 10 10 6 0 10 -4 10 -10z"/>
<path d="M8128 17054 c-10 -3 -18 -10 -18 -15 0 -10 24 -13 85 -10 40 2 52 7
43 16 -7 8 -91 14 -110 9z"/>
<path d="M8010 17005 c-17 -21 13 -31 47 -16 29 13 28 16 -8 24 -18 5 -31 2
-39 -8z"/>
<path d="M7896 16961 c-4 -5 -1 -11 6 -13 18 -6 68 3 68 13 0 12 -67 12 -74 0z"/>
<path d="M7820 16920 c0 -5 9 -10 21 -10 11 0 17 5 14 10 -3 6 -13 10 -21 10
-8 0 -14 -4 -14 -10z"/>
<path d="M7735 16880 c-3 -5 1 -10 10 -10 9 0 13 5 10 10 -3 6 -8 10 -10 10
-2 0 -7 -4 -10 -10z"/>
<path d="M9930 16216 c0 -9 30 -14 35 -6 4 6 -3 10 -14 10 -12 0 -21 -2 -21
-4z"/>
<path d="M10040 16170 c0 -5 12 -10 26 -10 14 0 23 4 19 10 -3 6 -15 10 -26
10 -10 0 -19 -4 -19 -10z"/>
<path d="M10148 16123 c6 -2 18 -2 25 0 6 3 1 5 -13 5 -14 0 -19 -2 -12 -5z"/>
<path d="M10240 16080 c0 -5 9 -10 20 -10 11 0 20 5 20 10 0 6 -9 10 -20 10
-11 0 -20 -4 -20 -10z"/>
<path d="M10325 16040 c3 -5 20 -10 36 -10 18 0 28 4 24 10 -3 6 -20 10 -36
10 -18 0 -28 -4 -24 -10z"/>
<path d="M10433 16013 c-33 -6 -28 -23 7 -23 20 0 30 5 30 15 0 8 -3 14 -7 14
-5 -1 -18 -4 -30 -6z"/>
<path d="M24760 13893 c-8 -3 -22 -11 -30 -18 -8 -7 -31 -16 -50 -20 -19 -4
-44 -15 -55 -25 -11 -10 -30 -21 -42 -25 -13 -3 -23 -12 -23 -20 0 -8 -9 -17
-20 -20 -11 -3 -20 -12 -20 -20 0 -7 -7 -16 -15 -19 -9 -3 -22 -21 -30 -39 -8
-19 -21 -39 -29 -47 -9 -7 -16 -25 -16 -39 0 -15 -9 -46 -20 -69 -18 -38 -20
-61 -20 -282 0 -220 2 -244 20 -278 10 -20 22 -54 25 -75 3 -21 13 -41 21 -44
7 -3 14 -13 14 -22 0 -20 131 -151 152 -151 7 0 21 -9 31 -20 10 -12 29 -20
50 -20 18 0 49 -9 70 -20 35 -19 56 -20 500 -20 443 0 464 1 502 20 22 11 56
20 77 20 26 0 40 6 47 19 6 10 21 21 33 25 23 6 128 96 128 110 0 4 9 19 20
33 11 14 20 33 20 43 0 9 9 27 19 39 26 30 35 158 29 438 -4 184 -8 226 -21
240 -8 10 -18 30 -22 45 -4 14 -15 34 -26 44 -10 9 -19 23 -19 29 0 16 -54 75
-69 75 -6 0 -11 7 -11 15 0 9 -9 15 -23 15 -13 0 -32 9 -41 19 -10 11 -32 23
-50 27 -17 3 -39 14 -50 23 -16 14 -72 16 -530 18 -281 1 -518 -1 -526 -4z"/>
<path d="M17600 13789 c-19 -10 -43 -19 -53 -19 -22 0 -117 -95 -117 -116 0
-8 -9 -32 -20 -54 -20 -39 -20 -59 -20 -3354 l0 -3315 29 -20 c16 -12 38 -21
48 -21 11 0 28 -9 38 -20 10 -11 28 -20 40 -20 12 0 34 -9 48 -20 14 -11 36
-20 50 -20 13 0 36 -9 50 -20 14 -11 36 -20 49 -20 13 0 39 -8 58 -19 19 -10
52 -21 74 -25 21 -4 55 -16 75 -27 20 -10 49 -19 65 -19 16 0 37 -7 47 -16 9
-8 41 -19 71 -23 30 -4 65 -15 78 -24 16 -11 44 -17 78 -17 39 0 61 -6 79 -20
19 -15 41 -20 87 -20 42 0 71 -6 91 -19 21 -12 57 -20 112 -23 48 -3 91 -11
105 -20 14 -9 59 -17 115 -21 51 -3 107 -12 125 -20 18 -9 89 -20 158 -26 69
-5 148 -15 175 -21 28 -7 122 -16 210 -21 88 -5 210 -14 270 -20 139 -14 528
-14 660 0 55 6 178 15 273 21 99 5 180 14 187 20 8 6 62 16 122 21 60 6 120
17 136 25 15 8 60 18 100 21 40 3 87 14 107 25 19 10 53 18 75 18 23 0 53 9
70 20 17 11 46 20 65 20 19 0 46 9 60 20 14 11 41 20 61 20 22 0 42 7 53 19 9
10 34 21 55 25 21 3 44 13 51 21 7 8 25 15 41 15 15 0 36 9 46 19 10 11 32 23
48 27 17 4 38 15 48 25 10 11 29 19 43 19 13 0 27 7 30 15 3 8 21 19 39 25 18
6 36 17 39 25 3 8 14 15 24 15 10 0 27 9 37 20 10 11 24 20 32 20 7 0 21 9 30
20 10 11 21 20 26 20 4 0 24 15 43 34 20 19 50 41 69 50 18 9 35 23 39 31 3 8
12 15 21 15 8 0 15 7 15 15 0 8 4 15 9 15 13 0 161 145 161 158 0 6 9 14 20
17 11 3 20 13 20 20 0 8 9 19 20 25 11 6 20 16 20 21 0 6 11 25 25 43 14 17
34 41 43 53 9 13 27 34 40 48 12 15 22 32 22 39 0 7 9 21 20 31 11 10 20 25
20 34 0 9 9 22 20 29 11 7 20 22 20 35 0 12 9 28 20 35 11 7 20 23 20 36 0 12
9 31 20 41 11 10 20 28 20 40 0 12 8 33 19 46 10 13 22 38 25 56 4 17 14 37
21 43 8 6 17 33 21 58 3 26 13 52 20 58 8 7 17 36 21 65 3 31 12 59 21 66 10
9 17 35 20 75 3 39 11 70 21 82 11 12 18 46 22 110 4 56 12 101 21 116 11 18
17 64 22 165 3 77 11 158 18 180 18 55 17 647 -1 689 -6 17 -15 98 -18 180 -5
119 -10 158 -25 186 -12 24 -18 56 -18 105 0 54 -5 76 -20 95 -14 19 -20 41
-20 86 0 44 -5 68 -19 85 -10 13 -20 46 -23 72 -3 26 -12 56 -21 65 -8 9 -17
37 -20 62 -3 24 -12 49 -21 55 -8 6 -18 29 -21 50 -4 22 -16 48 -26 58 -11 10
-19 30 -19 46 0 15 -9 36 -20 46 -11 10 -20 28 -20 40 0 12 -9 30 -20 40 -11
10 -20 26 -20 35 0 9 -9 25 -20 35 -11 10 -20 26 -20 36 0 10 -8 26 -18 36
-10 10 -23 30 -30 46 -6 15 -16 27 -22 27 -5 0 -10 7 -10 15 0 8 -37 61 -83
118 -46 56 -86 110 -90 120 -3 9 -13 17 -21 17 -7 0 -16 9 -19 20 -3 11 -12
20 -21 20 -9 0 -16 5 -16 10 0 6 -35 43 -77 84 -103 98 -100 96 -180 147 -18
12 -33 25 -33 30 0 5 -11 14 -25 19 -14 5 -25 14 -25 19 0 5 -16 15 -36 21
-19 7 -38 18 -41 26 -3 8 -13 14 -23 14 -9 0 -25 9 -35 20 -10 11 -24 20 -30
20 -7 0 -23 9 -37 19 -13 11 -37 23 -52 27 -15 3 -30 12 -33 20 -2 7 -22 15
-43 19 -21 4 -41 13 -44 20 -3 8 -22 17 -43 20 -21 4 -50 15 -65 26 -15 10
-39 19 -54 19 -14 0 -37 9 -51 20 -17 13 -41 20 -68 20 -27 0 -51 7 -68 20
-16 13 -41 20 -69 20 -23 0 -61 9 -83 19 -22 10 -79 21 -125 25 -47 4 -101 15
-120 23 -100 43 -1044 44 -1125 1 -17 -9 -71 -19 -125 -23 -57 -5 -112 -15
-137 -26 -24 -11 -65 -19 -94 -19 -34 0 -59 -6 -70 -16 -11 -10 -46 -19 -83
-23 -39 -4 -72 -14 -84 -24 -11 -10 -35 -17 -61 -17 -28 0 -52 -7 -68 -20 -15
-11 -41 -20 -62 -20 -20 -1 -47 -7 -61 -15 -37 -21 -55 -18 -71 13 -11 22 -15
170 -20 837 -6 855 -8 892 -52 917 -9 5 -17 16 -17 23 0 8 -6 15 -13 15 -7 0
-20 9 -30 20 -9 11 -23 20 -31 20 -8 0 -33 9 -57 20 -42 19 -67 20 -669 19
-600 0 -626 -1 -660 -20z m2850 -2819 c52 -4 122 -15 155 -23 33 -9 78 -16
100 -17 23 0 53 -9 70 -20 17 -11 44 -20 61 -20 18 0 38 -8 49 -20 10 -11 29
-20 42 -20 13 0 31 -9 40 -20 10 -11 28 -20 40 -20 13 0 33 -11 45 -25 12 -14
27 -25 34 -25 6 0 14 -7 18 -15 3 -8 12 -15 19 -15 7 0 46 -35 86 -77 98 -105
101 -108 101 -120 0 -5 9 -18 20 -28 11 -10 20 -23 20 -30 0 -7 9 -20 20 -30
11 -10 20 -26 20 -37 0 -10 8 -26 18 -36 11 -11 22 -34 26 -52 3 -19 12 -41
20 -49 7 -9 16 -35 19 -59 3 -24 13 -52 21 -61 9 -10 20 -47 25 -82 5 -35 16
-82 25 -104 8 -22 15 -69 16 -105 0 -36 9 -102 20 -148 18 -76 20 -118 20
-468 0 -325 -2 -390 -15 -414 -9 -18 -19 -79 -25 -149 -5 -66 -15 -132 -23
-148 -8 -15 -17 -52 -21 -82 -4 -29 -13 -63 -21 -75 -7 -11 -17 -39 -21 -61
-4 -22 -15 -51 -25 -64 -11 -13 -19 -34 -19 -47 0 -13 -9 -33 -20 -44 -11 -11
-20 -28 -20 -38 0 -11 -9 -27 -20 -37 -11 -10 -20 -23 -20 -30 0 -7 -9 -20
-20 -30 -11 -10 -20 -22 -20 -27 0 -10 -76 -103 -116 -142 -32 -32 -97 -82
-116 -89 -10 -3 -18 -11 -18 -16 0 -5 -15 -15 -34 -21 -19 -6 -37 -17 -40 -25
-3 -8 -16 -15 -29 -15 -14 0 -36 -9 -50 -20 -14 -11 -35 -20 -47 -20 -13 0
-37 -8 -54 -19 -17 -10 -56 -21 -87 -24 -31 -3 -72 -14 -90 -24 -32 -17 -66
-18 -479 -18 -388 1 -453 3 -504 18 -32 9 -106 19 -165 23 -67 4 -115 12 -130
21 -13 8 -59 18 -103 22 -85 7 -91 11 -108 71 -13 47 -14 2892 0 2974 10 63
20 76 59 76 14 0 33 7 43 16 10 10 41 19 70 22 29 3 66 13 83 23 18 12 49 19
80 19 33 0 60 7 80 20 20 14 47 20 83 20 29 0 67 7 84 16 17 9 76 20 131 25
55 5 119 15 141 21 90 24 289 32 456 18z"/>
<path d="M27685 13790 c-22 -11 -47 -19 -56 -20 -20 0 -109 -83 -109 -102 0
-8 -10 -32 -22 -53 l-23 -40 0 -2555 c0 -2076 3 -2573 13 -2650 8 -52 20 -158
27 -235 7 -77 20 -162 29 -189 9 -27 16 -69 16 -93 0 -24 9 -59 20 -80 11 -21
20 -56 20 -78 0 -23 9 -53 20 -70 11 -16 20 -44 20 -61 0 -17 9 -43 20 -57 11
-14 20 -36 20 -50 0 -13 8 -35 18 -48 11 -13 22 -37 26 -53 4 -15 15 -40 24
-55 31 -45 42 -65 57 -97 7 -17 21 -36 29 -44 9 -7 16 -19 16 -26 0 -8 9 -22
20 -31 11 -10 20 -22 20 -27 0 -5 10 -18 21 -30 50 -49 109 -122 109 -133 0
-7 5 -13 10 -13 6 0 20 -11 32 -25 12 -14 27 -25 33 -25 6 0 31 -20 55 -45 24
-25 49 -45 56 -45 7 0 14 -6 17 -14 6 -14 31 -30 93 -60 17 -9 34 -22 37 -31
4 -8 17 -15 29 -15 13 0 29 -9 36 -20 7 -12 23 -20 41 -20 15 0 36 -9 46 -20
10 -11 31 -20 47 -20 15 0 37 -9 48 -20 11 -11 33 -20 49 -20 15 0 39 -8 52
-19 13 -10 47 -20 77 -23 29 -3 60 -12 70 -20 10 -10 48 -19 92 -23 41 -4 91
-14 110 -22 21 -9 82 -17 150 -20 63 -3 124 -10 135 -16 11 -6 49 -13 85 -15
131 -7 539 -3 655 7 66 6 213 15 326 20 114 5 233 15 265 22 33 6 113 17 179
23 66 7 127 15 135 18 30 13 96 28 123 28 16 0 40 9 54 20 14 11 32 20 40 20
17 0 73 50 73 65 0 6 9 16 20 23 11 7 20 20 20 30 0 9 7 35 15 57 21 60 21
617 0 668 -8 20 -15 48 -15 62 0 14 -9 34 -20 45 -11 11 -20 27 -20 35 0 8 -4
15 -9 15 -5 0 -17 8 -27 17 -9 9 -40 26 -68 37 -45 18 -74 21 -256 21 -142 0
-216 -4 -241 -13 -20 -7 -99 -17 -174 -22 -76 -5 -143 -14 -149 -20 -16 -16
-318 -13 -363 4 -21 8 -62 17 -92 20 -30 3 -61 12 -70 20 -9 7 -31 17 -49 21
-18 4 -36 13 -39 21 -3 8 -22 18 -43 24 -21 6 -41 17 -44 25 -3 8 -11 15 -18
15 -8 0 -21 8 -30 18 -9 9 -39 35 -67 56 -28 22 -51 45 -51 53 0 7 -9 18 -20
25 -11 7 -20 21 -20 30 0 10 -8 22 -19 27 -10 6 -24 24 -31 41 -7 16 -16 30
-20 30 -4 0 -12 18 -19 41 -7 22 -19 43 -27 46 -9 3 -14 19 -14 43 0 23 -7 43
-19 54 -14 12 -20 35 -23 81 -2 40 -10 71 -20 82 -25 27 -28 134 -34 1219 l-5
982 28 27 28 27 722 -1 c619 -1 727 1 765 14 23 8 52 15 63 15 11 0 28 8 37
18 21 22 38 39 60 60 10 9 21 32 25 51 3 20 14 49 24 65 16 27 18 61 19 370 0
323 -1 343 -20 378 -11 21 -20 49 -20 62 0 34 -88 126 -121 126 -14 0 -36 9
-49 20 -23 20 -37 20 -777 20 l-753 0 -13 28 c-9 20 -13 236 -15 892 -3 776
-5 871 -20 925 -9 33 -25 68 -34 77 -10 10 -18 23 -18 28 0 6 -7 10 -15 10 -8
0 -19 9 -25 20 -6 11 -20 20 -31 20 -11 0 -37 9 -59 20 -38 19 -59 20 -662 20
-595 -1 -625 -2 -663 -20z"/>
<path d="M39000 13803 c-8 -4 -21 -12 -28 -20 -7 -7 -25 -13 -39 -13 -17 0
-40 -16 -72 -49 -90 -93 -82 277 -78 -3606 2 -2986 4 -3436 17 -3475 14 -41
44 -77 116 -140 l29 -25 698 0 c630 0 700 2 710 16 7 9 21 19 32 23 23 7 95
88 95 107 0 7 8 21 18 32 16 18 17 200 20 3476 2 3445 2 3456 -18 3483 -11 15
-20 35 -20 44 0 24 -99 114 -124 114 -12 0 -34 9 -51 20 -29 19 -47 20 -660
19 -346 0 -637 -3 -645 -6z"/>
<path d="M34660 12161 c-8 -5 -112 -11 -231 -13 -178 -4 -221 -7 -242 -20 -15
-11 -60 -19 -123 -24 -60 -4 -114 -14 -139 -25 -22 -10 -62 -19 -88 -19 -28 0
-59 -7 -74 -17 -14 -9 -52 -20 -85 -24 -32 -4 -67 -14 -77 -23 -10 -9 -33 -16
-53 -16 -20 0 -46 -9 -61 -20 -14 -11 -36 -20 -50 -20 -13 0 -36 -9 -50 -20
-14 -11 -36 -20 -50 -20 -13 0 -35 -8 -48 -19 -13 -10 -35 -22 -49 -26 -14 -4
-36 -16 -49 -26 -13 -11 -31 -19 -41 -19 -9 0 -25 -9 -35 -20 -10 -11 -26 -20
-35 -20 -9 0 -25 -9 -35 -20 -10 -11 -26 -20 -35 -20 -9 0 -25 -9 -35 -20 -10
-11 -23 -20 -30 -20 -7 0 -20 -9 -30 -20 -10 -11 -24 -20 -32 -20 -7 0 -21 -9
-30 -20 -10 -11 -22 -20 -27 -20 -5 0 -18 -9 -30 -20 -53 -50 -78 -70 -86 -70
-6 0 -15 -9 -22 -20 -7 -11 -17 -20 -21 -20 -5 0 -51 -44 -103 -97 -51 -54
-103 -107 -114 -118 -11 -12 -20 -24 -20 -27 0 -4 -12 -20 -26 -35 -14 -15
-32 -35 -40 -44 -8 -9 -14 -21 -14 -27 0 -7 -9 -17 -20 -24 -11 -7 -20 -19
-20 -27 0 -8 -7 -21 -15 -30 -23 -24 -75 -104 -75 -117 0 -6 -9 -19 -20 -29
-11 -10 -20 -26 -20 -35 0 -9 -9 -25 -20 -35 -11 -10 -20 -28 -20 -40 0 -12
-9 -30 -20 -40 -11 -10 -20 -27 -20 -37 0 -11 -9 -31 -20 -45 -11 -14 -20 -34
-20 -45 0 -10 -11 -40 -25 -66 -14 -26 -25 -58 -25 -71 0 -13 -7 -32 -16 -42
-9 -10 -18 -37 -21 -61 -3 -24 -14 -54 -24 -67 -13 -16 -19 -40 -19 -72 0 -31
-7 -60 -20 -81 -14 -23 -20 -51 -20 -91 0 -32 -8 -83 -19 -115 -12 -36 -21
-98 -24 -168 -3 -67 -10 -120 -18 -135 -11 -19 -14 -99 -14 -399 0 -327 2
-383 18 -435 10 -36 17 -93 17 -146 0 -65 5 -99 20 -134 13 -30 20 -69 20
-108 0 -43 6 -71 19 -92 10 -17 20 -56 23 -88 2 -31 12 -65 20 -74 8 -10 18
-40 22 -67 3 -27 13 -57 21 -66 8 -9 15 -25 15 -36 0 -10 11 -41 25 -69 13
-27 25 -59 25 -71 0 -11 9 -29 20 -39 11 -10 20 -29 20 -42 0 -13 9 -31 20
-40 11 -10 20 -29 20 -44 0 -14 9 -34 20 -44 11 -10 20 -26 20 -35 0 -10 7
-24 17 -31 9 -8 22 -29 30 -46 7 -18 17 -33 22 -33 6 0 13 -10 17 -22 3 -13
13 -30 20 -38 34 -37 64 -79 64 -89 0 -6 9 -16 20 -23 11 -7 20 -17 20 -22 0
-18 339 -356 357 -356 5 0 14 -9 21 -20 7 -11 17 -20 23 -20 11 0 55 -32 90
-65 9 -8 21 -15 27 -15 6 0 16 -9 22 -20 6 -11 21 -20 34 -20 12 0 33 -11 46
-25 13 -14 30 -25 38 -25 7 0 25 -9 39 -20 14 -11 32 -20 40 -20 8 0 26 -9 40
-20 14 -11 32 -20 40 -20 8 0 26 -9 40 -20 14 -11 36 -20 48 -20 12 0 30 -9
40 -20 11 -12 31 -20 50 -20 18 0 43 -8 56 -19 13 -10 44 -21 68 -24 24 -3 47
-11 51 -18 5 -7 34 -16 65 -20 31 -4 64 -14 73 -22 10 -8 45 -17 79 -20 34 -3
76 -12 92 -20 17 -8 66 -18 108 -22 43 -4 94 -14 113 -22 20 -8 97 -18 180
-23 80 -5 183 -15 230 -21 106 -15 533 -15 700 0 69 6 208 15 310 20 102 5
208 14 235 21 28 6 106 17 175 23 69 7 135 18 147 25 13 7 60 15 105 19 53 3
89 11 101 21 9 8 43 18 74 20 32 3 71 13 88 23 16 11 45 19 63 19 19 0 45 9
59 20 14 11 40 20 57 20 17 0 45 9 61 20 17 11 42 20 56 20 14 0 34 8 43 19 9
10 34 21 55 25 21 3 44 13 51 21 7 8 18 15 26 15 7 0 25 11 40 25 15 14 38 25
50 25 13 0 24 4 24 8 0 13 86 72 103 72 9 0 19 9 22 20 3 11 11 20 17 20 13 0
188 176 188 189 0 6 9 15 20 21 11 6 20 17 20 25 0 7 11 27 25 43 14 17 25 35
25 42 0 6 7 18 15 26 8 9 18 27 21 42 4 15 13 32 21 39 9 7 18 34 20 60 3 26
12 53 20 60 11 8 18 41 23 110 4 54 12 111 19 126 16 41 14 176 -4 211 -8 15
-15 41 -15 57 0 33 -78 119 -109 119 -10 0 -30 9 -44 20 -24 19 -40 20 -529
20 -409 0 -507 -3 -523 -14 -11 -7 -42 -17 -70 -21 -27 -4 -60 -15 -73 -26
-14 -10 -35 -19 -48 -19 -13 0 -24 -4 -24 -10 0 -5 -15 -17 -32 -26 -18 -9
-85 -70 -148 -135 -64 -65 -120 -119 -126 -119 -5 0 -17 -9 -27 -20 -9 -11
-23 -20 -30 -20 -8 0 -22 -9 -32 -20 -10 -11 -26 -20 -35 -20 -9 0 -25 -8 -34
-19 -9 -10 -34 -21 -56 -25 -21 -3 -45 -13 -54 -21 -8 -8 -36 -18 -63 -21 -26
-4 -56 -14 -65 -22 -11 -9 -50 -18 -95 -22 -43 -4 -98 -15 -122 -24 -36 -13
-90 -16 -311 -16 -239 0 -273 2 -326 20 -32 11 -81 20 -109 20 -27 0 -63 7
-80 16 -16 9 -50 21 -74 25 -25 5 -52 15 -60 23 -9 8 -29 18 -46 22 -16 4 -41
15 -54 26 -13 10 -27 18 -32 18 -10 0 -75 43 -107 70 -13 11 -28 20 -33 20 -5
0 -9 6 -9 14 0 8 -9 18 -20 21 -11 3 -20 13 -20 21 0 8 -4 14 -9 14 -16 0
-117 113 -126 140 -3 10 -12 21 -20 24 -8 3 -15 16 -15 29 0 13 -9 32 -20 42
-11 10 -20 28 -20 40 0 12 -9 34 -20 48 -11 14 -20 38 -20 55 0 16 -10 42 -22
57 -14 18 -23 47 -26 83 -3 31 -13 70 -23 87 -15 23 -19 50 -19 115 0 61 -4
92 -16 108 -25 37 -15 73 26 88 28 10 442 13 1966 13 1693 1 1936 3 1967 16
20 8 49 15 64 15 16 0 36 8 45 18 9 9 30 29 47 44 17 15 31 33 31 39 0 7 8 18
18 25 16 11 17 45 17 457 0 372 -2 447 -14 461 -10 12 -17 54 -20 130 -4 78
-11 119 -22 136 -9 14 -19 60 -24 105 -4 49 -13 87 -22 97 -9 10 -18 41 -21
70 -3 34 -11 60 -23 71 -13 12 -19 32 -19 61 0 30 -6 48 -20 61 -11 10 -20 30
-20 45 0 15 -9 39 -20 53 -11 14 -20 36 -20 50 0 13 -9 32 -20 42 -11 10 -20
28 -20 40 0 12 -9 30 -19 39 -10 10 -22 33 -25 52 -4 19 -11 34 -17 34 -5 0
-16 15 -24 33 -8 19 -21 39 -29 47 -9 7 -16 18 -16 25 0 6 -9 20 -20 30 -11
10 -20 24 -20 31 0 8 -9 19 -20 26 -11 7 -20 20 -20 30 0 9 -8 23 -18 30 -11
7 -21 18 -23 24 -5 15 -74 96 -125 148 -22 22 -43 49 -47 59 -3 9 -11 17 -16
17 -6 0 -37 26 -70 58 -33 31 -76 68 -96 82 -20 14 -46 35 -58 48 -11 12 -27
22 -34 22 -7 0 -13 5 -13 11 0 5 -14 15 -30 21 -17 5 -35 19 -41 29 -5 10 -19
19 -30 19 -11 0 -22 7 -25 15 -3 8 -21 19 -39 25 -18 6 -36 17 -39 25 -3 8
-16 15 -29 15 -13 0 -32 9 -42 20 -10 11 -26 20 -35 20 -9 0 -31 11 -50 25
-19 14 -43 25 -55 25 -11 0 -28 9 -38 20 -9 11 -29 20 -46 20 -16 0 -34 7 -41
15 -7 8 -28 17 -49 21 -20 4 -47 15 -60 25 -13 11 -40 19 -60 19 -20 0 -49 9
-66 20 -17 11 -47 20 -70 20 -23 0 -53 9 -70 20 -19 13 -47 20 -77 20 -26 0
-70 9 -98 20 -28 11 -72 20 -98 21 -50 0 -113 11 -177 29 -36 10 -257 23 -600
35 -71 3 -137 1 -145 -4z m306 -1121 c5 -5 58 -14 117 -19 61 -5 117 -15 130
-24 12 -7 42 -17 66 -21 24 -4 55 -16 69 -26 13 -11 35 -20 47 -20 12 0 30 -9
40 -20 10 -11 28 -20 41 -20 13 0 28 -9 34 -20 6 -11 16 -20 21 -20 6 0 24
-10 39 -22 16 -13 47 -36 69 -52 23 -17 41 -33 41 -37 0 -4 20 -29 45 -55 25
-27 45 -54 45 -60 0 -6 9 -19 20 -29 11 -10 20 -23 20 -30 0 -7 9 -20 20 -30
11 -10 20 -28 20 -40 0 -12 9 -30 20 -40 11 -10 20 -30 20 -45 0 -15 9 -39 20
-53 11 -14 20 -40 20 -60 0 -19 8 -45 19 -58 13 -17 20 -48 24 -106 3 -45 12
-96 21 -114 24 -48 22 -189 -3 -220 l-19 -24 -1167 -3 c-1064 -2 -1169 -1
-1201 14 -21 10 -37 26 -40 41 -10 39 2 141 20 168 11 16 16 47 16 92 0 48 5
76 17 93 9 13 20 48 24 77 4 29 14 60 23 68 8 9 18 32 22 53 4 20 12 44 19 52
8 8 17 27 20 43 4 15 16 32 26 38 11 5 19 20 19 32 0 12 18 42 40 66 22 24 40
46 40 50 0 3 20 25 45 49 25 24 45 47 45 52 0 6 5 10 12 10 11 0 29 15 70 58
12 12 27 22 33 22 7 0 20 9 30 20 10 11 26 20 35 20 9 0 25 9 35 20 10 11 28
20 39 20 12 0 34 9 51 20 16 11 50 22 75 26 25 4 61 15 80 25 21 12 57 19 90
20 30 0 78 7 105 14 60 15 356 20 371 5z"/>
<path d="M24605 11920 c-16 -11 -37 -20 -46 -20 -16 0 -89 -60 -89 -73 0 -4
-9 -16 -20 -27 -11 -11 -20 -31 -20 -45 0 -15 -6 -38 -12 -53 -17 -35 -8
-4979 8 -5053 8 -34 23 -59 56 -93 25 -25 51 -46 58 -46 7 0 19 -8 26 -17 12
-17 57 -18 707 -18 637 0 696 1 713 17 11 9 31 21 47 27 15 6 27 17 27 25 0 7
7 16 15 19 8 4 21 22 29 40 8 19 19 38 25 41 8 5 11 709 11 2550 0 2198 -2
2545 -14 2555 -8 7 -18 25 -21 41 -7 31 -89 110 -114 110 -9 0 -29 9 -46 20
-29 19 -48 20 -670 20 -622 0 -641 -1 -670 -20z"/>
<path d="M8843 10723 c-7 -2 -13 -11 -13 -18 0 -13 -36 -17 -204 -28 -22 -1
-41 -8 -44 -15 -3 -11 22 -12 124 -9 71 2 138 6 149 8 15 3 19 -1 17 -13 -2
-15 5 -18 43 -18 25 0 45 -4 45 -10 0 -5 9 -10 20 -10 11 0 20 -7 20 -15 0
-11 11 -15 40 -15 33 0 40 -3 40 -20 0 -18 7 -20 61 -20 52 0 62 -3 66 -20 4
-15 14 -20 42 -20 51 0 81 -10 81 -26 0 -10 13 -14 41 -14 32 0 42 -4 46 -20
4 -15 14 -20 40 -20 26 0 36 -5 40 -20 4 -16 14 -20 50 -20 27 0 42 -4 38 -10
-3 -5 3 -10 14 -10 12 0 21 -7 21 -15 0 -11 12 -15 45 -15 38 0 45 -3 45 -20
0 -16 7 -20 35 -20 22 0 38 -6 41 -15 4 -9 19 -15 40 -15 19 0 37 -6 41 -15 7
-12 60 -17 313 -25 370 -12 692 -28 698 -35 3 -3 3 -7 1 -9 -2 -3 -115 -7
-249 -10 -385 -8 -630 -18 -630 -28 0 -4 -10 -8 -22 -9 -22 -1 -22 -1 2 -9 14
-4 42 -8 63 -9 30 -1 37 -5 37 -22 0 -18 4 -20 45 -13 41 6 45 4 45 -14 0 -16
9 -22 40 -27 30 -5 40 -11 40 -26 0 -10 7 -19 15 -19 8 0 29 -9 47 -20 18 -11
45 -20 61 -20 30 0 100 -34 90 -44 -3 -3 12 -6 35 -6 33 0 45 -5 57 -24 14
-20 22 -24 50 -19 27 4 39 0 60 -21 18 -18 37 -26 60 -26 21 0 39 -7 47 -18 7
-9 26 -18 43 -19 16 0 37 -10 46 -21 10 -13 31 -22 55 -24 30 -2 41 -9 49 -26
8 -18 16 -22 35 -18 31 6 45 -2 54 -31 6 -18 12 -21 39 -16 28 4 35 1 44 -19
9 -20 17 -24 41 -20 23 3 34 -1 44 -17 7 -12 23 -21 35 -21 12 0 30 -11 41
-24 10 -13 32 -26 48 -28 19 -2 33 -11 39 -26 7 -17 16 -21 31 -18 14 4 31 -3
48 -19 15 -14 34 -25 42 -25 24 0 94 -49 94 -66 0 -12 6 -15 24 -10 23 6 56
-14 56 -33 0 -4 26 -19 58 -33 31 -15 63 -36 70 -47 7 -12 23 -21 37 -21 14 0
25 -4 25 -9 0 -6 12 -16 28 -23 19 -9 27 -21 27 -38 0 -34 -39 -40 -57 -10 -7
12 -41 35 -74 50 -34 16 -64 36 -67 45 -4 8 -13 15 -22 15 -9 0 -28 8 -43 18
-47 31 -66 42 -100 58 -18 8 -35 21 -39 29 -3 8 -18 15 -34 15 -18 0 -32 7
-39 20 -6 11 -17 20 -24 20 -7 0 -25 9 -39 20 -14 11 -35 20 -46 20 -12 0 -30
9 -41 20 -11 11 -31 20 -44 20 -13 0 -29 7 -36 15 -7 8 -30 20 -52 25 -21 6
-41 17 -44 25 -3 8 -22 17 -41 21 -19 4 -37 13 -40 20 -3 7 -21 17 -41 20 -21
4 -43 15 -50 26 -9 12 -26 18 -54 18 -31 0 -41 4 -45 20 -4 17 -14 20 -54 20
-37 0 -49 -4 -49 -15 0 -8 9 -15 20 -15 13 0 20 -7 20 -20 0 -15 7 -20 29 -20
39 0 61 -9 61 -26 0 -8 7 -14 16 -14 9 0 18 -9 21 -20 3 -11 14 -20 24 -20 12
0 19 -7 19 -20 0 -15 7 -20 29 -20 39 0 61 -9 61 -25 0 -8 9 -17 20 -20 11 -3
20 -12 20 -20 0 -7 7 -15 15 -19 8 -3 15 -12 15 -21 0 -9 9 -15 25 -15 20 0
25 -5 25 -25 0 -22 4 -25 40 -25 33 0 40 -4 40 -19 0 -12 9 -21 25 -25 14 -4
25 -13 25 -21 0 -7 9 -17 20 -20 11 -3 20 -12 20 -20 0 -8 9 -17 20 -20 11 -3
20 -13 20 -21 0 -8 7 -14 16 -14 9 0 18 -9 21 -19 3 -11 13 -21 24 -24 11 -3
19 -14 19 -26 0 -14 6 -21 20 -21 13 0 20 -7 20 -19 0 -12 9 -21 25 -25 14 -4
25 -13 25 -20 0 -8 7 -16 15 -20 8 -3 15 -12 15 -21 0 -8 9 -15 20 -15 15 0
20 -7 20 -25 0 -20 5 -25 25 -25 18 0 25 -5 25 -20 0 -13 7 -20 20 -20 11 0
20 -6 20 -14 0 -7 9 -16 20 -19 12 -3 20 -14 20 -25 0 -13 9 -22 25 -26 14 -4
25 -13 25 -21 0 -7 9 -17 20 -20 11 -3 20 -12 20 -20 0 -8 9 -17 20 -20 11 -3
20 -12 20 -20 0 -7 9 -15 20 -18 11 -3 20 -12 20 -21 0 -9 7 -16 16 -16 9 0
18 -9 21 -19 3 -11 13 -21 24 -24 15 -4 19 -14 19 -46 0 -37 2 -41 25 -41 18
0 25 -5 25 -19 0 -11 9 -23 20 -26 11 -3 20 -12 20 -20 0 -8 9 -17 20 -20 11
-3 20 -12 20 -20 0 -7 9 -15 20 -18 11 -3 20 -12 20 -20 0 -8 9 -17 20 -20 16
-4 20 -14 20 -45 0 -31 4 -41 20 -45 11 -3 20 -12 20 -20 0 -8 11 -18 25 -21
14 -4 25 -13 25 -21 0 -7 9 -17 20 -20 16 -5 20 -15 20 -46 0 -32 3 -39 20
-39 13 0 20 -7 20 -20 0 -13 7 -20 20 -20 17 0 20 -7 20 -40 0 -33 3 -40 20
-40 15 0 20 -7 20 -25 0 -18 5 -25 20 -25 11 0 20 -6 20 -14 0 -8 11 -17 25
-20 21 -5 25 -12 25 -46 0 -34 3 -40 21 -40 19 0 20 -4 14 -40 -6 -38 -6 -40
19 -40 21 0 26 -5 26 -25 0 -18 5 -25 20 -25 17 0 20 -7 20 -40 0 -33 3 -40
20 -40 13 0 20 -7 20 -20 0 -13 7 -20 20 -20 17 0 20 -7 20 -40 0 -36 3 -40
25 -40 23 0 25 -4 25 -45 0 -38 3 -45 20 -45 17 0 20 -7 20 -40 0 -33 3 -40
20 -40 17 0 20 -7 20 -40 0 -33 3 -40 20 -40 17 0 20 -7 20 -45 0 -38 3 -45
20 -45 17 0 20 -7 20 -40 0 -33 3 -40 20 -40 17 0 20 -7 20 -40 0 -36 3 -40
25 -40 23 0 25 -4 25 -45 0 -38 3 -45 20 -45 17 0 20 -7 20 -40 0 -33 3 -40
20 -40 17 0 20 -7 20 -40 0 -27 4 -40 14 -40 13 0 26 -48 26 -102 0 -21 5 -28
20 -28 17 0 20 -7 20 -40 0 -27 4 -40 14 -40 15 0 26 -42 26 -96 0 -30 3 -34
25 -34 24 0 25 -3 25 -60 0 -55 2 -60 21 -60 21 0 22 -3 16 -65 -6 -64 -6 -65
18 -65 24 0 25 -3 25 -60 0 -53 2 -60 20 -60 18 0 20 -7 20 -85 0 -78 2 -85
20 -85 18 0 20 -7 20 -60 0 -44 4 -60 14 -60 16 0 26 -43 26 -116 0 -41 4 -54
15 -54 8 0 15 -6 15 -14 0 -8 5 -16 12 -18 7 -3 9 -12 4 -24 -4 -10 -7 -21 -6
-23 3 -8 -26 -21 -49 -21 -13 0 -21 -3 -18 -7 11 -10 -13 -33 -34 -33 -11 0
-28 -9 -38 -19 -10 -10 -30 -22 -43 -26 -12 -4 -26 -12 -29 -17 -3 -4 -28 -17
-55 -27 -27 -11 -71 -28 -99 -39 -87 -36 -170 -66 -180 -67 -20 -1 -94 -26
-121 -40 -15 -8 -31 -12 -35 -9 -8 5 -131 -21 -169 -37 -14 -5 -59 -12 -100
-14 -92 -5 -160 -14 -174 -23 -6 -3 -787 -9 -1736 -14 -949 -4 -1736 -8 -1750
-9 -170 -10 -468 -50 -595 -80 -466 -108 -796 -248 -1142 -485 -246 -167 -523
-437 -672 -654 -65 -96 -55 -108 23 -27 79 81 258 247 267 247 5 0 18 8 28 17
47 44 82 69 200 146 160 104 161 105 190 117 13 6 35 19 49 30 13 11 32 20 42
20 9 0 25 8 34 19 9 10 34 21 55 25 22 3 41 12 44 20 3 7 23 16 45 19 22 4 45
13 51 21 6 7 29 16 50 20 21 3 44 12 50 20 7 8 31 18 54 21 23 4 50 14 59 22
9 8 36 17 60 20 24 3 61 14 84 24 22 10 59 19 82 19 24 0 55 8 74 20 23 14 51
20 91 20 35 0 77 8 105 19 34 14 78 21 157 24 61 2 120 9 132 15 12 7 37 15
55 19 18 3 857 8 1863 10 1518 3 1837 6 1871 18 22 7 85 17 140 21 58 4 108
13 121 21 12 8 51 17 85 20 39 4 72 13 87 24 14 12 40 19 65 19 24 0 53 8 71
20 17 11 44 20 61 20 18 0 38 8 49 20 10 11 30 20 45 20 15 0 38 8 51 19 13
10 38 22 56 25 17 4 37 13 43 21 6 8 26 17 43 21 18 3 43 15 56 25 13 11 32
19 43 19 10 0 21 6 24 14 3 8 16 17 28 20 12 3 33 15 46 26 13 11 28 20 35 20
7 0 20 9 30 20 10 11 24 20 31 20 7 0 20 8 30 17 10 10 25 22 35 28 106 62
153 101 362 305 165 160 304 321 362 420 6 9 18 24 28 34 9 10 17 26 17 37 0
10 5 19 11 19 5 0 17 16 25 35 8 19 19 35 24 35 5 0 12 11 16 24 3 14 14 32
25 42 10 9 19 25 19 34 0 9 9 25 20 35 11 10 20 24 20 31 0 7 9 18 20 24 11 6
20 16 20 23 0 7 20 41 45 77 25 36 45 73 45 82 0 10 9 22 20 28 11 6 20 21 20
34 0 13 9 31 20 41 11 10 20 28 20 40 0 12 9 30 20 40 11 10 20 28 20 40 0 12
8 33 19 46 10 13 21 40 25 60 4 21 13 42 20 48 7 6 17 30 20 53 4 24 14 50 22
59 8 9 17 40 21 70 3 30 14 66 24 81 13 17 19 44 19 77 0 29 8 69 19 94 12 25
22 74 24 122 3 44 11 100 18 125 8 30 14 140 16 328 3 236 1 291 -12 335 -9
29 -19 93 -22 142 -3 57 -12 105 -24 131 -11 22 -19 62 -19 90 0 30 -7 59 -17
73 -9 14 -20 47 -24 74 -5 27 -15 57 -22 66 -8 9 -17 35 -20 59 -3 24 -12 51
-20 60 -8 9 -17 32 -21 50 -3 19 -15 45 -26 59 -11 14 -20 36 -20 48 0 12 -9
30 -20 40 -11 10 -20 28 -20 40 0 12 -9 30 -20 40 -11 10 -20 28 -20 40 0 12
-9 30 -20 40 -11 10 -20 26 -20 35 0 10 -7 23 -16 30 -8 8 -21 28 -29 47 -8
18 -19 33 -24 33 -6 0 -11 7 -11 14 0 8 -11 27 -25 42 -14 15 -25 32 -25 39 0
7 -9 20 -20 30 -11 10 -20 21 -20 25 0 4 -18 27 -40 51 -22 24 -40 50 -40 56
0 7 -9 18 -20 25 -11 7 -20 17 -20 23 0 11 0 11 -157 168 -148 148 -150 150
-197 181 -43 29 -119 91 -144 119 -9 9 -20 17 -25 17 -14 0 -107 62 -107 71 0
4 -15 13 -34 19 -19 6 -37 17 -40 25 -3 8 -13 15 -22 15 -9 0 -27 9 -41 20
-14 11 -31 20 -38 20 -6 0 -22 9 -35 20 -13 11 -31 20 -40 20 -9 0 -27 9 -40
20 -13 11 -31 20 -40 20 -10 0 -28 9 -42 19 -13 11 -41 22 -61 26 -20 4 -41
13 -48 21 -6 7 -27 16 -48 20 -20 4 -52 15 -71 25 -19 11 -48 19 -64 19 -16 0
-37 7 -46 15 -9 8 -45 19 -81 24 -35 5 -77 16 -94 25 -16 9 -53 16 -82 16 -28
0 -80 9 -115 20 -62 19 -94 20 -1928 19 -1026 0 -1871 -3 -1877 -6z m3766
-568 c20 -7 63 -15 96 -19 33 -4 87 -15 120 -26 33 -10 78 -22 100 -28 22 -6
60 -16 85 -22 25 -7 59 -18 75 -26 17 -7 48 -20 70 -28 109 -39 131 -49 145
-61 8 -7 27 -17 43 -20 15 -4 29 -11 32 -15 2 -4 37 -24 77 -44 254 -128 507
-384 631 -637 80 -165 117 -303 117 -445 0 -127 -9 -151 -52 -135 -15 5 -37
23 -49 40 -12 16 -36 35 -53 41 -58 22 -135 63 -131 70 3 4 -3 11 -13 14 -9 4
-35 18 -57 31 -22 14 -48 28 -57 31 -10 4 -18 10 -18 14 0 5 -10 12 -22 16
-13 3 -34 15 -48 24 -14 10 -36 20 -50 22 -14 2 -24 9 -23 16 3 11 -12 17 -62
24 -12 2 -21 12 -23 27 -3 20 -8 22 -36 17 -35 -7 -64 13 -51 34 3 5 -1 10
-10 10 -8 0 -18 7 -21 15 -4 8 -17 15 -31 15 -13 0 -21 4 -18 10 4 6 -5 10
-20 10 -15 0 -24 4 -20 10 3 6 -5 10 -19 10 -14 0 -27 4 -31 9 -3 5 -19 12
-36 16 -16 4 -35 15 -42 26 -7 11 -23 19 -39 19 -36 0 -58 9 -52 23 2 7 -14
20 -36 30 -22 9 -43 24 -46 32 -4 8 -11 15 -18 15 -6 0 -22 9 -36 20 -14 11
-32 20 -40 20 -17 1 -100 75 -100 90 0 5 -7 7 -16 3 -9 -3 -27 6 -46 26 -17
17 -41 31 -54 31 -15 0 -24 6 -24 15 0 8 -7 15 -15 15 -8 0 -15 9 -15 20 0 17
-7 20 -45 20 -32 0 -45 4 -45 14 0 8 -15 17 -36 20 -19 4 -38 14 -41 22 -3 7
-10 14 -17 14 -6 0 -18 9 -26 20 -8 11 -20 20 -27 20 -7 0 -13 5 -13 10 0 6
-9 10 -20 10 -11 0 -20 6 -20 14 0 8 -9 18 -20 21 -11 3 -20 13 -20 21 0 9
-10 14 -27 14 -14 0 -24 3 -20 6 7 8 -17 34 -32 34 -6 0 -11 -10 -11 -22 0
-20 -1 -20 -23 5 -12 15 -28 27 -34 27 -6 0 -28 16 -47 35 -20 19 -40 35 -45
35 -17 0 -61 27 -54 33 3 4 1 7 -5 7 -6 0 -22 11 -36 25 -14 14 -32 25 -41 25
-8 0 -15 8 -15 18 0 12 -13 23 -35 32 -19 7 -32 17 -29 21 2 4 -21 11 -52 15
-37 4 -62 13 -75 27 -22 24 -25 46 -6 52 71 25 786 25 856 0z m-593 -1053 c17
-15 34 -35 37 -44 4 -11 17 -18 30 -18 14 0 30 -7 37 -15 7 -8 18 -15 26 -15
7 0 19 -10 25 -22 7 -13 19 -28 27 -34 21 -15 24 -44 6 -44 -21 0 -94 60 -94
77 0 7 -9 13 -19 13 -11 0 -26 7 -35 15 -8 8 -22 15 -31 15 -8 0 -32 16 -51
35 -29 29 -33 39 -24 50 17 21 30 18 66 -13z m347 -267 c38 -37 83 -73 101
-80 34 -14 126 -110 126 -131 0 -6 8 -15 18 -18 39 -15 72 -38 72 -52 0 -23
-23 -16 -54 16 -15 17 -41 37 -57 46 -16 8 -29 19 -29 25 0 5 -7 12 -16 16 -9
3 -36 25 -60 49 -24 24 -51 44 -59 44 -9 0 -18 7 -21 15 -4 8 -11 15 -18 15
-15 0 -126 104 -126 118 0 15 22 21 40 11 8 -4 46 -38 83 -74z m391 -336 c20
-12 36 -25 36 -30 0 -5 5 -9 10 -9 10 0 120 -103 120 -112 0 -2 54 -59 121
-127 66 -67 119 -127 117 -132 -2 -6 -54 38 -115 98 -61 59 -135 131 -165 159
-29 28 -68 67 -86 87 -18 21 -36 37 -41 37 -5 0 -16 11 -25 25 -20 30 -17 31
28 4z m446 -439 c0 -5 -4 -10 -9 -10 -6 0 -13 5 -16 10 -3 6 1 10 9 10 9 0 16
-4 16 -10z m35 -40 c3 -5 1 -10 -4 -10 -6 0 -11 5 -11 10 0 6 2 10 4 10 3 0 8
-4 11 -10z m45 -40 c0 -5 -4 -10 -10 -10 -5 0 -10 5 -10 10 0 6 5 10 10 10 6
0 10 -4 10 -10z m245 -291 c11 -17 -1 -21 -15 -4 -8 9 -8 15 -2 15 6 0 14 -5
17 -11z"/>
<path d="M8427 10633 c-18 -17 -1 -23 67 -23 56 0 75 4 80 15 4 12 -7 15 -68
15 -40 0 -76 -3 -79 -7z"/>
<path d="M8297 10593 c-16 -15 -4 -23 37 -23 51 0 78 8 70 21 -6 10 -97 12
-107 2z"/>
<path d="M8187 10553 c-14 -14 -6 -23 21 -23 37 0 60 15 37 24 -22 8 -50 8
-58 -1z"/>
<path d="M8093 10509 c-33 -12 -28 -19 12 -19 19 0 35 4 35 9 0 14 -23 19 -47
10z"/>
<path d="M7980 10460 c0 -13 20 -13 40 0 12 8 9 10 -12 10 -16 0 -28 -4 -28
-10z"/>
<path d="M7690 10300 c0 -5 5 -10 10 -10 6 0 10 5 10 10 0 6 -4 10 -10 10 -5
0 -10 -4 -10 -10z"/>
<path d="M10090 9920 c0 -5 9 -10 19 -10 11 0 23 5 26 10 4 6 -5 10 -19 10
-14 0 -26 -4 -26 -10z"/>
<path d="M10240 9880 c0 -5 11 -10 25 -10 14 0 25 5 25 10 0 6 -11 10 -25 10
-14 0 -25 -4 -25 -10z"/>
<path d="M10342 9841 c-11 -6 -9 -9 5 -13 27 -7 84 3 77 13 -7 11 -65 11 -82
0z"/>
<path d="M10470 9801 c-22 -6 -23 -8 -7 -14 10 -4 33 -7 50 -7 30 1 31 1 13
15 -11 8 -22 15 -25 14 -3 -1 -17 -4 -31 -8z"/>
<path d="M10603 9763 c-33 -6 -28 -23 7 -23 20 0 30 5 30 15 0 8 -3 14 -7 14
-5 -1 -18 -4 -30 -6z"/>
<path d="M10686 9721 c-18 -7 -18 -8 -2 -14 25 -10 76 -9 76 2 0 19 -40 25
-74 12z"/>
</g>
</svg>
