<?xml version="1.0" standalone="no"?>
<!DOCTYPE svg PUBLIC "-//W3C//DTD SVG 20010904//EN"
 "http://www.w3.org/TR/2001/REC-SVG-20010904/DTD/svg10.dtd">
<svg version="1.0" xmlns="http://www.w3.org/2000/svg"
 width="300.000000pt" height="168.000000pt" viewBox="0 0 300.000000 168.000000"
 preserveAspectRatio="xMidYMid meet">

<g transform="translate(0.000000,168.000000) scale(0.100000,-0.100000)"
fill="#000000" stroke="none">
<path d="M125 1311 c-88 -54 -105 -101 -105 -286 l0 -145 42 27 c40 27 47 28
212 34 192 6 222 14 273 72 29 33 53 90 53 127 0 37 -24 94 -53 127 -49 56
-77 63 -244 63 -127 0 -152 -3 -178 -19z"/>
<path d="M838 1199 c-17 -9 -18 -36 -18 -339 l0 -329 73 -23 c86 -27 253 -31
330 -9 68 20 131 79 152 142 24 71 17 208 -13 266 -27 53 -82 98 -138 113 -44
13 -182 9 -216 -5 -16 -6 -18 1 -18 84 0 79 -2 92 -19 101 -25 13 -111 13
-133 -1z m350 -313 c25 -24 27 -34 30 -119 2 -78 0 -97 -17 -124 -26 -41 -79
-58 -155 -49 l-56 7 0 149 0 149 33 10 c17 6 56 9 85 7 42 -2 59 -8 80 -30z"/>
<path d="M1520 1198 c-20 -11 -26 -22 -28 -60 -4 -60 14 -78 77 -78 66 0 86
17 86 74 0 25 -5 50 -12 57 -17 17 -94 22 -123 7z"/>
<path d="M1763 1203 c-17 -6 -18 -539 -2 -598 26 -91 118 -134 262 -120 84 8
97 16 97 60 0 47 -19 58 -83 50 -51 -7 -57 -5 -88 23 l-33 30 -1 113 0 114 85
5 85 5 3 34 c7 74 1 80 -91 83 l-82 3 -3 95 c-2 60 -7 97 -15 102 -13 8 -114
9 -134 1z"/>
<path d="M2812 843 l3 -358 54 -3 c30 -2 65 -1 78 3 l23 5 -2 353 -3 352 -78
3 -77 3 2 -358z"/>
<path d="M2317 1016 c-58 -21 -103 -61 -128 -113 -20 -41 -24 -63 -24 -148 0
-114 16 -158 79 -212 50 -45 98 -58 206 -57 114 1 173 16 212 54 39 39 40 97
2 106 -38 10 -86 -1 -129 -30 -45 -31 -126 -36 -164 -10 -21 15 -51 69 -51 93
0 7 71 12 193 13 l192 3 -1 75 c-1 108 -37 171 -124 216 -46 24 -209 30 -263
10z m199 -117 c13 -13 26 -39 30 -56 l7 -33 -117 0 c-104 0 -116 2 -116 18 0
26 37 82 63 92 37 16 107 5 133 -21z"/>
<path d="M1497 993 c-4 -3 -7 -118 -7 -255 l0 -248 79 0 c63 0 80 3 85 16 3 9
6 116 6 239 0 123 -3 230 -6 239 -5 13 -22 16 -78 16 -40 0 -76 -3 -79 -7z"/>
<path d="M167 860 c-49 -15 -98 -61 -123 -114 -22 -47 -24 -63 -24 -218 l0
-167 26 24 c48 44 103 55 281 55 177 0 202 5 262 56 95 80 94 237 -2 321 -20
18 -53 37 -74 42 -45 13 -305 13 -346 1z"/>
</g>
</svg>
