<svg id="a2562fe5-f539-4a45-80a4-a97dcefc407f" data-name="Capa 1" xmlns="http://www.w3.org/2000/svg" viewBox="0 0 200 200"><title>bitel</title><rect width="200" height="200" style="fill:#ffe806"/><path d="M150.28,123.26a11.14,11.14,0,0,1,.61,4.09c0,1.12,0,2.25,0,3.38a10.13,10.13,0,0,1-.35,3c-.3,1-.32,2-.57,3.06a35.67,35.67,0,0,1-2.09,6.07,32.92,32.92,0,0,1-3.94,6.51c-.84.66-1.15,1.72-1.89,2.47a36.2,36.2,0,0,1-7.15,5.73c-.39.23-.8.72-1.3.15,1.66-2.08.49-4.17-.1-6.18a85.46,85.46,0,0,0-6.43-15.73,74.34,74.34,0,0,0-6.77-10.74,79.82,79.82,0,0,0-9.75-10.8c-.11-.11-.23-.21-.33-.33s-.66-.48-.37-.85.64,0,.94.11a54.08,54.08,0,0,1,11.64,7.71c1.73,1.48,3.46,3,5.06,4.58a102.26,102.26,0,0,0-20-15.38c-3-1.72-6.17-3.31-9-5.3-.22-.15-.46-.3-.67-.47s-.81-.39-.75-.8.65-.49,1-.57a15.17,15.17,0,0,1,3.36-.36c-2.38-.27-4.76-.53-7.14-.81a7.93,7.93,0,0,1-2.69-1c-3.58-1.84-7.2-3.69-11.37-3.84-.55,0-1.43.13-1.39-.62s.89-.36,1.38-.37c10.35-.18,20.69,0,31-.08A7.35,7.35,0,0,1,113,96c2.79.77,4.72,2.84,6.8,4.66.83.72,1.56,1.46,2.78,1.42.56,0,1.23,0,1.06,1-.43.33-.88.16-1.34.11a54,54,0,0,0-6.36,0c-.11.52.24.63.47.8q11.33,7.94,23.07,15.21c1.08.66,1.16.6,1.37-.71,0-.29,0-.65.41-.75.4.24.38.66.43,1a31.81,31.81,0,0,1,.45,5.34c-.06,1.64.22,3.25.31,4.88a7,7,0,0,0,.92,3.23,54.58,54.58,0,0,1,3.47,8c.05.11.08.22.13.33.14.3.17.78.59.77s.38-.44.51-.71a18.32,18.32,0,0,0,.95-2.88,35.51,35.51,0,0,0,1-12.82C150,124.25,149.79,123.69,150.28,123.26Z" style="fill:#0693a6"/><path d="M61.22,26.72a.2.2,0,0,1,.21-.2,52.59,52.59,0,0,1,6.1-3.5,17,17,0,0,1,4.14-1.51,35,35,0,0,1,9.35-1c10.51,0,21,0,31.52,0a6.48,6.48,0,0,1,2.19.17,1,1,0,0,1-.79.37c-3.67.06-7.34,0-11,0-8.25-.11-16.5-.13-24.75,0a19.73,19.73,0,0,0-7,1.3A14.52,14.52,0,0,1,78,24c6.92,3.2,13.89,6.29,20.7,9.71A65.54,65.54,0,0,1,107,38.81a2,2,0,0,1,.28.21c.37.33,1,.69.67,1.19s-1,0-1.39-.23A60.73,60.73,0,0,0,97,34.86a68,68,0,0,1,10.16,9.79,43.44,43.44,0,0,1,3.49,4.06c3.1,4.88,6.68,9.47,8.64,15,.66,1.89,1.75,3.63,2.41,5.55.89,2.62,1.42,5.33,2.24,8a1.16,1.16,0,0,1-.31,1.29,21.47,21.47,0,0,1-9,2.55c-8.07.56-16.17.14-24.25.25a3.37,3.37,0,0,1-1.93-.26.27.27,0,0,1,0-.39,3.1,3.1,0,0,1,1.92-.25c1.51,0,3-.09,4.52,0,5.1.11,10.19,0,15.29,0a3.38,3.38,0,0,0,1.36-.31,1.17,1.17,0,0,0,.75-1.51c-.41-1.58-.8-3.16-1.35-4.7a61.86,61.86,0,0,0-4.14-9.77,55.35,55.35,0,0,0-7.11-10.36,50.86,50.86,0,0,0-3.24-4,95.33,95.33,0,0,0-8.94-7.47A65.3,65.3,0,0,0,77.09,36.3a63,63,0,0,0-14.27-4.65,24,24,0,0,0-4.15-.6c-.38,0-.82,0-1-.42s.22-.76.49-1.08C59.05,28.48,60.24,27.72,61.22,26.72Z" style="fill:#10a2ae"/><path d="M61.22,26.72A2.64,2.64,0,0,1,60.07,28a19.42,19.42,0,0,0-2,1.93c-.17.17-.33.36-.23.62s.37.23.6.24A37.62,37.62,0,0,1,65.71,32c1.86.5,3.75.91,5.59,1.51a22.76,22.76,0,0,1,2.78,1.13c2.34,1.1,4.77,2,7,3.26a50.07,50.07,0,0,0,4.79,2.82,1.3,1.3,0,0,1,.39.25c1.35,1.35,3.09,2.2,4.53,3.42,1.11,1,2.25,1.89,3.3,2.92s2.33,2.17,3.46,3.29a3.9,3.9,0,0,1,.57.58c1.32,2.26,3.3,4,4.74,6.15.41.62.74,1.27,1.14,1.89.66,1,1.39,2,2,3.1a58.3,58.3,0,0,1,3.73,7.87c.87,2.1,1.58,4.27,2.27,6.44.2.65.28,1.34.51,2,.28.82,0,1.32-.83,1.69a4.19,4.19,0,0,1-1.69.39c-5,0-10,0-14.94,0,0-.6.53-.48.87-.51.7-.06,1.4,0,2.1,0,2,0,2.28-.34,1.66-2.18a67.53,67.53,0,0,0-3-7.19,65.55,65.55,0,0,0-6.06-9.52,41.25,41.25,0,0,0-3.55-3.7A41.83,41.83,0,0,0,77.64,50a48.75,48.75,0,0,0-14-5.91c-2.65-.61-5.24-1.43-8-1.32a2.84,2.84,0,0,1-1-.22,3.57,3.57,0,0,0-2.83.1c-.66.35-1,.21-1-.61a8.94,8.94,0,0,1,.77-2.36,46.27,46.27,0,0,1,2.69-5.36v0a3.56,3.56,0,0,0,.45-.69h0c.28-.43.76-.7.91-1.22a13.93,13.93,0,0,1,2.76-3.26A10.78,10.78,0,0,1,61.22,26.72Z" style="fill:#34b0b6"/><path d="M51.69,39.64A8.39,8.39,0,0,0,51,42c-.28,2.68-1.11,5.3-.83,8,0,3.18,0,6.37,0,9.83.47-.59.29-1.29.9-1.45s1,.1,1.5.07A24.3,24.3,0,0,1,61.1,59.8a41.27,41.27,0,0,1,8.32,3.86c3.32,1.89,5.84,4.59,8.44,7.25A30.73,30.73,0,0,1,82,77.06c.39.67.76,1.36,1.11,2.06.44.9,0,1.5-1,1.33a1.8,1.8,0,0,0-1.42.26,12.26,12.26,0,0,1-2.5.12,3.88,3.88,0,0,0-1.27.09l-.36.1c-1.85.43-3.78.14-5.61.7a7.1,7.1,0,0,0-1.64.51c-2.32.9-4.71,1.58-7,2.68a29.62,29.62,0,0,0-9.12,6.76,9.94,9.94,0,0,0-1.65,1.9A7,7,0,0,1,53,92c.21-.17.47-.32.71,0l-4.28,4c-.26-.24-.1-.69-.1-1.08q0-14.76,0-29.53c0-5.13-.06-10.27,0-15.4a29.19,29.19,0,0,1,1.92-10.24,3,3,0,0,1,.38-.58A.34.34,0,0,1,51.69,39.64Z" style="fill:#59bdbc"/><path d="M123.61,102.93a.79.79,0,0,0-1-.66,2.68,2.68,0,0,1-2.7-1.2,12.52,12.52,0,0,0-2.16-1.9,10.53,10.53,0,0,1-1.79-1.47,3.08,3.08,0,0,0-1.46-.9,8.81,8.81,0,0,1-1.36-.63c.4-.43.93-.32,1.43-.33,2.48-.08,5,.13,7.44.09l.39,0a6.2,6.2,0,0,0,2.33.46c.3,0,.54.2.83.26a3.29,3.29,0,0,0,1.16.24,35,35,0,0,1,6.83,2.71,32.83,32.83,0,0,1,7.14,5.24,34.25,34.25,0,0,1,5.59,7.1,33.63,33.63,0,0,1,2.68,5.73c.5,1.42.82,2.88,1.3,4.3a2.73,2.73,0,0,1,.06,1.27,5.93,5.93,0,0,0,.08,1.73,8,8,0,0,1,.15,2.4,23.52,23.52,0,0,0,0,2.91,27.85,27.85,0,0,1-.81,5.95c-.2.88-.48,1.76-.63,2.66a25.7,25.7,0,0,1-1,2.68c-.11.4-.53.42-.81.08a2.74,2.74,0,0,1-.48-.79c-.49-1.43-1.08-2.82-1.54-4.24-.65-2-2-3.62-2.59-5.58a20.35,20.35,0,0,1-.58-3.3c-.33-2.19,0-4.41-.37-6.6a23,23,0,0,1-.29-2.88.7.7,0,0,0-.22-.63c-.71-.81-.73-1.9-1.17-2.83a12.6,12.6,0,0,0-1.11-2.12,20.8,20.8,0,0,0-9.31-7.55,19.65,19.65,0,0,0-4.14-1.48A3.5,3.5,0,0,1,123.61,102.93Z" style="fill:#007b96"/><path d="M102.61,20.76h11.45c1.15.15,2.3.29,3.45.39l.07,0c.61.4,1.34.28,2,.46l.06,0,0,.06c.36.4.89.26,1.33.42l.07,0c.29.36.73.32,1.12.43l.28.07a3,3,0,0,0,.86.41l.07,0a2.13,2.13,0,0,0,.86.44l.08,0a6.77,6.77,0,0,1,.85.43h.06l0,.05a2.65,2.65,0,0,0,.83.44l.07,0,0,.06a2.88,2.88,0,0,0,1.09.65,11.69,11.69,0,0,0,2.11,1.36,30.09,30.09,0,0,1,8.66,10.17,23.28,23.28,0,0,1,1.9,4.69c.45,1.22.56,2.52,1,3.77a14.86,14.86,0,0,1,.16,3.35,37.28,37.28,0,0,1-.16,7.32,13.78,13.78,0,0,1-1.43,5c-.52,1-1.18,1-1.7,0-.75-1.4-1.35-2.88-2-4.34s-1.28-2.92-2-4.34a10.35,10.35,0,0,1-1.22-4.68,25.34,25.34,0,0,0-.44-2.88,8.21,8.21,0,0,0-.15-2.21c-.63-2-1-4.17-2.46-5.85a19.18,19.18,0,0,0-6.78-5.71,9.88,9.88,0,0,1-1.54-.82,16.82,16.82,0,0,0-4.41-1.52,5.46,5.46,0,0,1-1.5-.53,17.05,17.05,0,0,0-4.09-.67c-1.61.07-2.86-.92-4-1.81-1.42-1.07-2.81-2.18-4.22-3.26C102.51,21.88,101.91,21.46,102.61,20.76Z" style="fill:#007c96"/><path d="M132.49,44.54c.54,1.91.3,3.93.93,5.82a3.63,3.63,0,0,0,.21.66c1.27,2.32,2.22,4.79,3.34,7.18.41.87.74,1.78,1.15,2.65.3.63.77.68,1.1.08s.51-1.22.79-1.79c.48-1,.17-2.16.79-3.09a1.49,1.49,0,0,0,.09-.8V46a1.73,1.73,0,0,0-.28-1.22.73.73,0,0,1-.16-.42,3.83,3.83,0,0,0-.43-2c-.15-.26,0-.68,0-1a23.24,23.24,0,0,1,1.24,6.07,61.4,61.4,0,0,1-.15,8.58,10.57,10.57,0,0,1-.55,2.35,30,30,0,0,1-1.85,5.08A33.77,33.77,0,0,1,136,68c-.47.66-.64,1.51-1.36,2a19.42,19.42,0,0,1-4.28,4.49c-.35.26-.68.67-1.21.33,0-.08-.07-.18,0-.22,1-1.24.41-2.49,0-3.74a72.79,72.79,0,0,0-5.31-13.3,5.12,5.12,0,0,1-.25-.53c-.13-.36-.34-.79.08-1.05s.69.15,1,.42a43.12,43.12,0,0,1,6.19,7.8c-1.74-2.79-4.2-6.31-6.84-9.72-1.5-1.93-3.26-3.66-4.71-5.62a15.33,15.33,0,0,1-2.33-5.29c-.16-.58.16-.87.76-.86a1.32,1.32,0,0,1,.56.14,6.85,6.85,0,0,0,3.27.61c1.55-.06,2.88.84,4.29,1.39a31,31,0,0,1,4.92,2.06c.86.52,1-.33,1.18-.92S131.69,44.78,132.49,44.54Z" style="fill:#038fa4"/><path d="M133.66,157.82a1.78,1.78,0,0,0,.86-.33,37.2,37.2,0,0,0,7.54-6.1c.47-.51.83-1.11,1.26-1.65.15-.19.24-.54.61-.39a32,32,0,0,1-7.86,9.27,3.31,3.31,0,0,0-.33.32,33.23,33.23,0,0,1-9.19,5.1,36.36,36.36,0,0,1-12.76,2q-17-.09-33.94,0a45.93,45.93,0,0,0-11,1.4,41.78,41.78,0,0,0-10.7,4.3c-.54.3-1,.76-1.54,1h0a31.4,31.4,0,0,0-4.72,4.13c-.27.28-.48.75-1,.62-.53-.66,0-1.09.34-1.53a32,32,0,0,1,7.13-7A39,39,0,0,1,77,162.15c1.32-.14,2.63-.21,4-.22,9.61,0,19.23,0,28.84-.08,3.18,0,6.37-.26,9.56-.18a23.61,23.61,0,0,0,6.25-.85,3.11,3.11,0,0,0,.85-.16,2.6,2.6,0,0,1,.75-.27,2.2,2.2,0,0,0,.72-.2,2,2,0,0,1,.68-.26,1.47,1.47,0,0,0,.64-.21,1.07,1.07,0,0,1,.36-.2c.27-.08.55-.08.81-.18l.26-.11a6.36,6.36,0,0,0,.64-.32l.26-.13c.22-.11.44-.2.65-.32l.25-.14a3.45,3.45,0,0,0,.59-.41C133.28,157.81,133.45,157.68,133.66,157.82Z" style="fill:#117975"/><path d="M129.22,74.9A10.18,10.18,0,0,0,131.67,73c1-1,2-2,3-3a7.78,7.78,0,0,1-1.56,2.43,30.26,30.26,0,0,1-10.82,8.81,27.86,27.86,0,0,1-7,2.39,28.31,28.31,0,0,1-5.54.61c-10.85-.06-21.7,0-32.56,0a41.34,41.34,0,0,0-5.44.39c-1.39.18-2.78.39-4.12.68a29.61,29.61,0,0,0-5.84,1.86,33.46,33.46,0,0,0-8,4.87c-.43-.08-.61.29-.85.51-.51.47-1,1-1.53,1.48-.19-.44.14-.56.28-.75a26.78,26.78,0,0,1,7.21-6.66,31.18,31.18,0,0,1,8.79-4,6.45,6.45,0,0,1,1.55-.47,14.65,14.65,0,0,1,4.79-1,16.87,16.87,0,0,0,3.09-.32c3.39-.1,6.78-.19,10.17-.15a1.65,1.65,0,0,1,1.1.29c.62,0,1.24,0,1.86,0,6.87,0,13.75,0,20.62,0a41.48,41.48,0,0,0,4.75-.32,10.11,10.11,0,0,0,3.23-.72,14.74,14.74,0,0,1,1.85-.53,22,22,0,0,0,3-1.23c1.49-1.05,3.08-1.94,4.62-2.92l.83-.34Z" style="fill:#0f7975"/><path d="M125.51,96.85l-.71-.26a9.2,9.2,0,0,1-2.33-.42l0,0a2.26,2.26,0,0,0-1.15-.11H80a22.94,22.94,0,0,0-4.63.95,31.43,31.43,0,0,0-10.41,4.29,17.51,17.51,0,0,0-1.65,1,4,4,0,0,0-1,.78c-.55.47-1.15.9-1.69,1.39A11.48,11.48,0,0,0,58.12,107c-.24.32-.52.59-.78.88a33.68,33.68,0,0,0-7,14.82A22.2,22.2,0,0,0,50,128c-.11,7.34-.24,14.69,0,22,.29,8.43,0,16.86.19,25.29,0,1-.13,2-.1,3a1.59,1.59,0,0,1,.25.33,1.55,1.55,0,0,1-.14.32c-.21.27-.42.64-.83.5s-.23-.53-.24-.82c0-1.09,0-2.18,0-3.27q0-23.46,0-46.92a20.15,20.15,0,0,1,.33-4.15c.24-1.19.38-2.44.67-3.63A31.21,31.21,0,0,1,51.69,116a34.35,34.35,0,0,1,5.72-9.11A33.39,33.39,0,0,1,69.76,98a34.47,34.47,0,0,1,8.16-2.27l.23,0c2,.09,4-.25,6-.25,11,0,22,0,33,0a33.65,33.65,0,0,1,12.62,2.24,34.37,34.37,0,0,1,9.58,5.77,3.37,3.37,0,0,1,1.22,1.37,11.82,11.82,0,0,1-2.26-1.78,34.29,34.29,0,0,0-9.76-5.44c-.64-.24-1.39-.1-2-.58C126.31,96.84,125.86,97.13,125.51,96.85Z" style="fill:#bfddbb"/><path d="M56.58,172.75a14.61,14.61,0,0,1,3.86-2.5,29.85,29.85,0,0,1,5.65-2.32c1.57-.46,3.18-.87,4.81-1.2a61.5,61.5,0,0,1,12.26-.93c11.2,0,22.4,0,33.6,0a30.14,30.14,0,0,0,6-.84,32.24,32.24,0,0,0,5.59-1.8,33.74,33.74,0,0,0,6.63-3.79,1.55,1.55,0,0,1,.8-.44c-.45,1-1.49,1.32-2.3,1.87a27.38,27.38,0,0,1-5.75,3,42.82,42.82,0,0,1-6.33,1.81,39.36,39.36,0,0,1-8.1.58c-11.16,0-22.32,0-33.47,0a46.62,46.62,0,0,0-8.56.8,43.07,43.07,0,0,0-7.35,2.06,28.53,28.53,0,0,0-6.35,3.28A1.24,1.24,0,0,1,56.58,172.75Z" style="fill:#bfddbb"/><path d="M50.92,177.48a45.43,45.43,0,0,1,4.3-3.9c.43-.3.76-.77,1.35-.82-.17.6-.76.74-1.18,1.07a56.24,56.24,0,0,0-4.48,4.25c-.19.2-.39.38-.58.57l-.11-.09C50,177.93,50.46,177.69,50.92,177.48Z" style="fill:#bfddbb"/><path d="M67.53,23c-.76.8-1.85,1-2.75,1.62S63,25.71,62.15,26.27c-.22.15-.42.33-.72.25A19.31,19.31,0,0,1,67.53,23Z" style="fill:#34b0b6"/><path d="M51.69,39.64l0-.48a15.7,15.7,0,0,1,2.57-4.89,1,1,0,0,1-.17.75c-.85,1.14-1.27,2.5-2,3.68C51.87,39,52,39.41,51.69,39.64Z" style="fill:#43b5b8"/><path d="M117.51,21.16a7.68,7.68,0,0,1-3.46-.39l.68-.09A16.33,16.33,0,0,1,117.51,21.16Z" style="fill:#0a9aaa"/><path d="M119.58,21.64c-.7,0-1.46.23-2-.46A7.27,7.27,0,0,1,119.58,21.64Z" style="fill:#0a9aaa"/><path d="M55.61,32.33c0,.65-.43.94-.91,1.22A2.19,2.19,0,0,1,55.61,32.33Z" style="fill:#43b5b8"/><path d="M127.31,25.13a1,1,0,0,1-1.09-.65A2,2,0,0,1,127.31,25.13Z" style="fill:#0a9aaa"/><path d="M121,22.1c-.49,0-1.05.22-1.33-.42Z" style="fill:#0a9aaa"/><path d="M122.2,22.55c-.45.06-.91.13-1.12-.43A2.41,2.41,0,0,1,122.2,22.55Z" style="fill:#0a9aaa"/><path d="M123.34,23c-.39.07-.71,0-.86-.41A1.68,1.68,0,0,1,123.34,23Z" style="fill:#0a9aaa"/><path d="M126.11,24.44a.66.66,0,0,1-.83-.44A.93.93,0,0,1,126.11,24.44Z" style="fill:#0a9aaa"/><path d="M125.2,24a1,1,0,0,1-.85-.43A.74.74,0,0,1,125.2,24Z" style="fill:#0a9aaa"/><path d="M124.27,23.5a.67.67,0,0,1-.86-.44C123.8,23,124,23.29,124.27,23.5Z" style="fill:#0a9aaa"/><path d="M54.69,33.56a.6.6,0,0,1-.45.69A.82.82,0,0,1,54.69,33.56Z" style="fill:#43b5b8"/><path d="M64.51,101.27a17.05,17.05,0,0,1,4-2.32,31.05,31.05,0,0,1,6.8-2.33A20.64,20.64,0,0,1,79.42,96c13.92,0,27.83-.1,41.75,0a1.94,1.94,0,0,1,1.25.17l-9.32,0H79c-.1.44.21.45.4.44a32.76,32.76,0,0,1,5.5.74,1.75,1.75,0,0,1,.66.24c1.82,1,3.81,1.71,5.73,2.56a1,1,0,0,1,.4.22c.86,1,2.1,1,3.29,1.17,1.76.2,3.52.42,5.28.67.62.08,1.33-.2,2,.44-1.71.46-3.45.23-5.14.88,2.29,1.39,4.41,2.92,6.73,4.16a74.57,74.57,0,0,1,6.82,4c1.55,1,3.15,2,4.67,3.06,1.29.92,2.45,2,3.74,2.94,2,1.38,3.59,3.18,5.49,4.66a13.74,13.74,0,0,1,3.52,3.87c-1.1-.53-1.73-1.62-2.71-2.31s-1.81-1.8-2.87-2.55a28.07,28.07,0,0,1-2.94-2.27,22,22,0,0,0-3-2.21c-1.07-.7-2.17-1.36-3.28-2s-2.2-1.13-3.42-1.76c.38.4.66.72,1,1,1.18,1.19,2.32,2.42,3.56,3.55a46.6,46.6,0,0,1,4.5,5.31c.07.09.1.22.18.29,2.13,2,3.43,4.67,5.1,7a4.92,4.92,0,0,1,.91,1.74,1.42,1.42,0,0,0,.34.61,20.19,20.19,0,0,1,3.11,5.57,3.17,3.17,0,0,0,.19.42,70.62,70.62,0,0,1,3.65,8.55,49.57,49.57,0,0,1,2.4,8.1,2,2,0,0,1-.46,1.74,3,3,0,0,0-.67.8l-.47.24c-.23.16-.49.28-.7.46h0a2.64,2.64,0,0,0-.93.47h0a3,3,0,0,0-.93.46h0c-.26.24-.65,0-.92.22l-.25.24c-.19.2-.49,0-.68.22l-.71.25c-.19.2-.5,0-.69.21l-.71.26a.44.44,0,0,1-.51,0c-.35-4.5-2.13-8.62-3.5-12.84a56.08,56.08,0,0,0-5.75-11.68A73.25,73.25,0,0,0,103,119.54,69.44,69.44,0,0,0,89.48,110a71.35,71.35,0,0,0-8.82-4.23,68.66,68.66,0,0,0-7.19-2.36c-1.46-.38-2.92-.79-4.38-1.2a7.8,7.8,0,0,0-3.56-.24C65.07,102,64.34,102.23,64.51,101.27Z" style="fill:#0fa1ae"/><path d="M139,112.5a8.79,8.79,0,0,1,1.6,3.26,5.11,5.11,0,0,1,.51,1.89c0,.46,0,.93,0,1.4,0,.92-.35,1.09-1.14.62-3.41-2-6.73-4.14-10-6.33-2.36-1.57-4.81-3-7.1-4.63s-4.74-3.22-7.06-4.9c-.24-.18-.59-.35-.49-.72s.52-.4.87-.39c2.28.09,4.58-.25,6.85.23a2.81,2.81,0,0,0,.58,0,35.1,35.1,0,0,1,5.69,1.69.75.75,0,0,1,.39.41c-.47.33-.9,0-1.31-.12a33.7,33.7,0,0,0-4.38-1.17,2.15,2.15,0,0,0-1.3,0c2.53,1.94,5.15,3.67,7.72,5.46s5.45,3.7,8.18,5.56c.26.18.55.57.89.26s0-.57-.12-.86C139.21,113.65,138.57,113.19,139,112.5Z" style="fill:#36a1b5"/><path d="M128.52,75.37c-1.31.81-2.62,1.63-3.94,2.43a2,2,0,0,1-1,.38c0-.18.2-.42.14-.54-.64-1.3-.6-2.81-1.22-4.09-.44-.9-.3-1.88-.7-2.8-.48-1.12-.79-2.33-1.32-3.46-1.33-2.87-2.46-5.83-3.89-8.66a24.19,24.19,0,0,0-2-3.41c-1-1.38-2-2.77-2.91-4.2a49.28,49.28,0,0,0-4.31-5.57c-1.63-1.89-3.31-3.71-5.09-5.44a59.86,59.86,0,0,0-4.81-4.33,12.92,12.92,0,0,0-1.41-.81.33.33,0,0,1-.21-.37c.07-.27.3-.23.47-.16,1.13.5,2.32.81,3.43,1.41,1.56.85,3.09,1.76,4.65,2.61A15,15,0,0,1,107,40a1,1,0,0,0,.81.28c.05-.51-.34-.74-.65-1a87.41,87.41,0,0,0-8.31-5.12c-4.45-2.38-9.14-4.27-13.69-6.45-2.33-1.11-4.58-2.43-7-3.32A26.44,26.44,0,0,0,72,22.63c-.38,0-.73.3-1.13.15-.18-.07-.36-.17-.34-.41s.2-.18.34-.24c1-.43,2.1-.36,3.06-.88a1.9,1.9,0,0,1,.8-.06,5,5,0,0,0,2.62-.39,1.53,1.53,0,0,1,.69-.07h24.39l.23,0c-.32.6.07.95.49,1.24.58.4,1.12.83,1.69,1.23,1.71,1.19,3.17,2.74,5.14,3.57a2.68,2.68,0,0,0,1.35.21,13,13,0,0,1,4.15.72,3.32,3.32,0,0,1-2.69.08,16.24,16.24,0,0,0-4.29-.23.52.52,0,0,0-.53.36,24.27,24.27,0,0,0,4,2.87c2.35,1.45,4.46,3.24,6.83,4.64,4.14,2.45,8,5.33,12.19,7.71.61.35,1,.44,1.06-.44a.68.68,0,0,1,.25-.51c.48.74.13,1.56.24,2.33-.3.23-.22.56-.24.86a5.52,5.52,0,0,1-.09.92c-.31,1.26-.67,1.41-1.77.79l-1.82-1a1.66,1.66,0,0,0-.63-.3c-1.6-.1-2.88-1.07-4.32-1.59a4.73,4.73,0,0,0-2.92-.4,1.78,1.78,0,0,1-1.25-.17c-.48-.24-1-.43-1.5-.63-.26-.1-.54-.18-.75.06s0,.42,0,.65c.35,1.45,1.16,2.72,1.65,4.13a7.39,7.39,0,0,0,1.79,2.25c1.13,1.28,2.2,2.59,3.28,3.91,2,2.41,3.72,4.94,5.47,7.49a29.18,29.18,0,0,1,2.18,3.91,5.89,5.89,0,0,1-1.33-1.65c-.77-1.11-1.6-2.17-2.38-3.28-.59-.85-1.38-1.56-2.06-2.36a18,18,0,0,1-1.7-1.9.25.25,0,0,0-.4-.07.35.35,0,0,0-.08.31,9.19,9.19,0,0,0,.38.85,68.2,68.2,0,0,1,3.63,8c.85,2.41,1.65,4.84,2.28,7.32.16.64.17,1.11-.37,1.53a.84.84,0,0,0-.36.7h0C129,75.08,128.74,75.19,128.52,75.37Z" style="fill:#0a9aaa"/><path d="M78.07,80.51h2.8a15.7,15.7,0,0,1,3.42-.28c2-.09,4,0,6.06,0,1.52,0,1.67-.25,1.15-1.62A42.86,42.86,0,0,0,75.57,58.12,44,44,0,0,0,65.93,53c-3.37-1.17-6.76-2.31-10.4-2.39-1.07,0-2.11-.53-3.22-.43a5.74,5.74,0,0,0-1.49.19c-.39.14-.77.23-1-.25a23,23,0,0,1,.93-7.79A.76.76,0,0,1,51,42c.06.3,0,.94.52.48a2.73,2.73,0,0,1,2.76-.37,10,10,0,0,0,3,.36,7.44,7.44,0,0,1,2.27.34c.86.27,1.8.29,2.7.56,1.5.46,3,.76,4.54,1.23a52.51,52.51,0,0,1,5.16,2.09c1.25.54,2.42,1.17,3.62,1.79a44.3,44.3,0,0,1,4,2.31,4.45,4.45,0,0,1,.58.38,23.41,23.41,0,0,0,3.5,2.61,4.64,4.64,0,0,1,.69.64c1.7,1.7,3.39,3.42,5.12,5.11a21.12,21.12,0,0,1,3.37,4.38c.63,1.05,1.47,2,2.14,3a49.88,49.88,0,0,1,3,5.66c.61,1.28,1.09,2.63,1.67,3.93a17.74,17.74,0,0,1,.88,3,.57.57,0,0,1-.4.74,3.93,3.93,0,0,1-1.36.28c-.9,0-1.79,0-2.69,0-.3,0-.63-.06-.86.23l-6.77,0c-2.32.23-4.65,0-7,.09-1.05,0-2.1,0-3.15,0Q78,80.77,78.07,80.51Z" style="fill:#43b5b8"/><path d="M78.06,80.73l10.29,0v.18H76.9c-.08,0-.11-.08-.08-.12s0-.07.07-.07h0A1.44,1.44,0,0,1,78.06,80.73Z" style="fill:#34b0b6"/><path d="M49.82,50.15c.21.08.4.24.66.11a5.92,5.92,0,0,1,4-.14,7.09,7.09,0,0,0,1.71.27,20.44,20.44,0,0,1,4.66.77c1.38.26,2.63.87,4,1.12a6.85,6.85,0,0,1,1.74.63C68,53.64,69.72,54,71,55.09a.69.69,0,0,0,.3.17c1.58.43,2.73,1.6,4.1,2.39A34.2,34.2,0,0,1,81.69,63a22.15,22.15,0,0,1,2.92,3,55.05,55.05,0,0,1,4.27,6.35A61.92,61.92,0,0,1,92.05,79c.34.9.06,1.46-.9,1.48-1.4,0-2.81,0-4.21,0H80.87c.24-.49.56-.72,1.1-.4a1.09,1.09,0,0,0,.56.15c.49,0,.77-.35.5-.75-.8-1.19-1.2-2.61-2.11-3.74a10.09,10.09,0,0,1-1.08-1.64,21.84,21.84,0,0,0-4.14-5c-.79-.8-1.63-1.55-2.35-2.42a3.85,3.85,0,0,0-1-.75,3.15,3.15,0,0,1-1-.67,2.6,2.6,0,0,0-1.24-.8,2.88,2.88,0,0,1-1.36-.87,2.71,2.71,0,0,0-.87-.58A51.59,51.59,0,0,0,62,60.37c-.77-.31-1.64-.45-2.44-.69-1.14-.34-2.38-.24-3.47-.78a2.77,2.77,0,0,0-1.15-.11,15,15,0,0,1-3.47-.18c-.49-.15-.71.1-.72.61s.12,1.21-.61,1.11-.3-.79-.31-1.21C49.8,56.13,49.82,53.14,49.82,50.15Z" style="fill:#4db9ba"/><path d="M76.89,80.75c0,.06,0,.13,0,.19a1.49,1.49,0,0,1-1.1.26,26.28,26.28,0,0,0-6.6.93c.25-.55.83-.55,1.29-.65a59.09,59.09,0,0,1,5.94-.73A3.53,3.53,0,0,1,76.89,80.75Z" style="fill:#4db9ba"/><path d="M78.06,80.73H76.91c.33-.39.77-.17,1.16-.23A1.55,1.55,0,0,1,78.06,80.73Z" style="fill:#4db9ba"/><path d="M139,112.5c-.06.68.48,1.12.66,1.7.08.25.27.46.26.75s0,.56-.3.71-.43-.07-.61-.2l-7.38-5c-1.81-1.24-3.64-2.48-5.45-3.73q-1.81-1.26-3.6-2.55a6,6,0,0,1-.58-.61,6.09,6.09,0,0,1,2.66,0c1.7.4,3.34.94,5,1.46a14.32,14.32,0,0,1,3.67,1.88A18.33,18.33,0,0,1,139,112.5Z" style="fill:#7db7c7"/><path d="M122.47,96.17a14.23,14.23,0,0,1,2.33.42A3.09,3.09,0,0,1,122.47,96.17Z" style="fill:#0fa1ae"/><path d="M125.51,96.85a2.42,2.42,0,0,1,1.16.21C126.27,97.06,125.84,97.26,125.51,96.85Z" style="fill:#0fa1ae"/><path d="M132.25,42.21a11.42,11.42,0,0,1,0,1.17c-.05.57-.24.7-.76.42-1-.58-2-1.24-3.1-1.83-2-1.13-3.83-2.48-5.72-3.76-1.41-1-2.93-1.72-4.34-2.69s-3.07-2.09-4.58-3.16-3.16-1.94-4.62-3.09c-.45-.36-1-.66-1.41-1-.18-.14-.4-.29-.33-.56s.33-.31.55-.38a1.71,1.71,0,0,1,.46-.05,16.09,16.09,0,0,1,4.84.36,7.7,7.7,0,0,0,2.2.1c.9.57,2,.52,2.95.88a14.73,14.73,0,0,1,3.13,1.22c-.39.37-.79.17-1.19,0a47.46,47.46,0,0,0-6.09-1.57c5.41,3.95,10.79,7.57,16.33,11.28a2.59,2.59,0,0,0-.54-1.82c-.23-.42-.68-.8-.34-1.37a7.11,7.11,0,0,1,1.86,3.34C131.8,40.53,132,41.38,132.25,42.21Z" style="fill:#3ea3b6"/><path d="M129.68,36.37c0,.58.46,1,.72,1.44s.47.62.46,1,.45.68,0,.93-.67-.1-1-.3c-3.77-2.63-7.65-5.11-11.39-7.8a44.61,44.61,0,0,0-4.19-2.9c-.24-.14-.56-.27-.64-.61a.59.59,0,0,1,.74-.18c.88.3,1.8.39,2.7.6s1.74.56,2.63.75c.6.12,1.07.68,1.75.49a32.4,32.4,0,0,1,4.15,2.43A15.56,15.56,0,0,1,129.68,36.37Z" style="fill:#7eb7c7"/><path d="M50.92,177.48c-.14.42-.62.62-.7,1.08-.29.19-.61.37-.61-.2s.16-1.08.16-1.62c0-8.08.16-16.17,0-24.25s0-16.17-.15-24.25c0-1.55.29-3.09.24-4.64a2,2,0,0,1,.43-1.3c.6.62,0,1.34.16,2.06,1.46-1.06,3.07-.77,4.66-.55a9.09,9.09,0,0,0,1.36.27c4.67-.09,9.07,1.21,13.4,2.72a51.3,51.3,0,0,1,15,8.15,56.78,56.78,0,0,1,6.9,6.61,40.62,40.62,0,0,1,6.15,8.89,51.09,51.09,0,0,1,4,9.41,5.88,5.88,0,0,1,.23.79c.15,1-.15,1.36-1.17,1.36-3.81,0-7.62.16-11.43.14-2.94,0-5.9-.13-8.85.07a41.87,41.87,0,0,0-9.53,1.26,40.66,40.66,0,0,0-5.74,1.91,34.53,34.53,0,0,0-8.82,5.31A30,30,0,0,0,51,176.64C50.87,176.87,50.63,177.16,50.92,177.48Z" style="fill:#56bcbc"/><path d="M80.67,162.22c.36-.35.82-.19,1.23-.19,4.39,0,8.78.06,13.18,0,2-.05,4.09-.25,6.15-.2.52,0,.66-.26.67-.73s-.31-.87-.42-1.32A43.87,43.87,0,0,0,96.72,149a45,45,0,0,0-4-5.78c-1.76-2.26-3.91-4.09-5.82-6.17a23.52,23.52,0,0,0-3.64-2.86c-.77-.57-1.5-1.2-2.32-1.72a36.79,36.79,0,0,0-5.58-3.12,50.48,50.48,0,0,0-7.56-2.92A53.91,53.91,0,0,0,62.45,125c-1.78-.26-3.55-.85-5.4-.59a4.19,4.19,0,0,1-1.94-.27,8.76,8.76,0,0,0-3.46-.12c-.68.06-1.07.64-1.43,1.49a3.3,3.3,0,0,1-.08-2,3.38,3.38,0,0,0,.12-1.26A13.48,13.48,0,0,1,51.33,118a34.24,34.24,0,0,1,5.45-9.88,4.45,4.45,0,0,1,.49-.48,18.55,18.55,0,0,1,6,.22,58,58,0,0,1,7.87,1.58,72.23,72.23,0,0,1,8.79,3.11,62.53,62.53,0,0,1,11,6,57.89,57.89,0,0,1,6.65,5.08c1.24,1.12,2.5,2.22,3.67,3.4A72.09,72.09,0,0,1,110,137.71c3.77,5.62,6.28,11.78,8.51,18.09a39.56,39.56,0,0,1,1.26,5.21,1.08,1.08,0,0,1-.1,1c-5-.09-10.08.29-15.12.25-7.76-.06-15.52,0-23.28,0C81.06,162.25,80.87,162.23,80.67,162.22Z" style="fill:#32afb5"/><path d="M119.66,162a61,61,0,0,0-2.18-8.16c-.69-1.77-1.26-3.59-2-5.31-1.55-3.46-3-7-5.36-10a19,19,0,0,1-1.52-2.45,14.69,14.69,0,0,0-1.83-2.67,84.22,84.22,0,0,0-8-8.45,37.55,37.55,0,0,0-4.17-3.44,9.72,9.72,0,0,1-2.65-2,5,5,0,0,0-1.46-.94,41.82,41.82,0,0,0-4.61-2.71,12.54,12.54,0,0,1-1.78-1.1,6.73,6.73,0,0,0-2.32-1,4.64,4.64,0,0,1-1.27-.56,52.51,52.51,0,0,0-8.81-3.3,32.67,32.67,0,0,0-6.2-1.4c-1.65-.17-3.25-.73-5-.6-.94.07-1.89-.36-2.85,0-.15,0-.28-.1-.38-.22a1.66,1.66,0,0,1,.65-.71c.85-.89,1.72-1.75,2.6-2.61a6.28,6.28,0,0,1,1.62-1.37,3.17,3.17,0,0,0,1-.7,3.35,3.35,0,0,1,1.41-.93c.07.57.51.57.88.46,1.79-.56,3.41.18,5.1.53,1.21.25,2.33.8,3.57.94a11.18,11.18,0,0,1,2,.65,74.88,74.88,0,0,1,9.63,3.73c1.75.82,3.39,1.88,5.1,2.8a62.83,62.83,0,0,1,6,3.79c1.31.89,2.51,1.94,3.76,2.91a104.13,104.13,0,0,1,8.31,7.83,33.9,33.9,0,0,1,2.38,3c1.29,1.55,2.54,3.13,3.7,4.77,1,1.42,1.9,2.92,2.78,4.43s1.59,3,2.55,4.43a10.81,10.81,0,0,1,.93,2c1.18,2.83,2.21,5.7,3.2,8.6.56,1.61.85,3.29,1.47,4.89.26.65.34,1.41.56,2.11s-.23,1.13-.21,1.71a.47.47,0,0,1-.22.22c-1.08.38-2.24.42-3.34.7A9.86,9.86,0,0,1,119.66,162Z" style="fill:#18a6b0"/><path d="M131.56,159a.8.8,0,0,1,.93-.47A1.3,1.3,0,0,1,131.56,159Z" style="fill:#0693a6"/><path d="M130.62,159.45a.81.81,0,0,1,.93-.46A1.29,1.29,0,0,1,130.62,159.45Z" style="fill:#0693a6"/><path d="M132.49,158.52a.67.67,0,0,1,.7-.46A.72.72,0,0,1,132.49,158.52Z" style="fill:#0693a6"/><path d="M129.69,159.68c.24-.34.61-.19.92-.22C130.37,159.79,130,159.66,129.69,159.68Z" style="fill:#0693a6"/><path d="M128.76,160.14c.17-.26.43-.21.68-.22C129.28,160.2,129,160.15,128.76,160.14Z" style="fill:#0693a6"/><path d="M127.36,160.6c.17-.26.44-.2.69-.21C127.88,160.66,127.62,160.62,127.36,160.6Z" style="fill:#0693a6"/><path d="M126,161.07l.22-.22h.47C126.47,161.12,126.21,161.08,126,161.07Z" style="fill:#0693a6"/><path d="M128.52,75.37a.69.69,0,0,1,.69-.46A.69.69,0,0,1,128.52,75.37Z" style="fill:#038fa4"/><path d="M60.52,104.27a9.78,9.78,0,0,1-2.6,2.61A9.36,9.36,0,0,1,60.52,104.27Z" style="fill:#32afb5"/><path d="M63.1,102.2c-.18.43-.44.74-1,.7A1.7,1.7,0,0,1,63.1,102.2Z" style="fill:#32afb5"/></svg>