<svg id="afee99bf-d4d6-4cdf-b860-6cfc68766131" data-name="Capa 1" xmlns="http://www.w3.org/2000/svg" viewBox="0 0 200 200"><title>claro</title><circle cx="100" cy="100" r="80" style="fill:#e31b3d"/><path d="M20.07,94.13C23.22,65.24,37.26,43.55,62.72,29.5c9.38-5.18,19.58-7.77,30.16-8.95,16.62-1.9,32.23,1.11,46.71,9.62,6.06,4,12.1,7.94,17.11,13.26a78.71,78.71,0,0,1,7.4,8.7q1.67,2.38,3.25,4.82c.46.72,1,1.4,1.4,2.13a52.3,52.3,0,0,1,4.44,8.61,43.87,43.87,0,0,1,2.91,7.56c.3,1,.79,2.12-.21,3.09a2.58,2.58,0,0,1-2.33-1.73C170.73,71,165.7,67.64,161,64c-4.38-3.37-9.3-5.85-14.09-8.55-3.41-1.92-7.17-1.18-10.75-1.44-17.47-1.26-35-.51-52.47-.68-7.33-.07-14.6.9-21.91,1.3a8.88,8.88,0,0,0-3.45,1.13c-12,5.86-22,14.3-30.82,24.18a23.6,23.6,0,0,0-5.25,10.91c-.31,1.43-.2,3.12-1.77,4C20,94.76,19.91,94.52,20.07,94.13Z" style="fill:#e31b3d"/><path d="M31.42,141.78c-8-13.9-12.07-28.81-11.32-44.94,0-.71.12-1.42.18-2.12,1.45-3,1.29-6.47,2.85-9.52A27.08,27.08,0,0,1,27,79.07c9.2-10,19.46-18.73,31.89-24.59,3.14-1.48,6.58-.89,9.86-1.27,9-1.06,18-.75,27.08-.74,8.24,0,16.49.09,24.73,0,6.19-.08,12.34.89,18.51.84C149.23,53.22,156,60,163.69,65c5.2,3.35,8.82,8.21,12.26,13.22a.65.65,0,0,1,.92.14c1.88,4.38,2.24,9.1,3,13.75,0,5.78.4,11.57-.08,17.35-1,5.53-1.8,11.09-3.76,16.39-.89,1.26-.35,3.48-2.56,3.86a2.28,2.28,0,0,1-.65-1.67c.17-6.82-2.93-12.57-6-18.32-1.7-3.2-1.57-4,1.41-6.39,1.18-1,3.81-1.21,2.86-3.54-.8-2-2.82-.81-4.33-.72a18.32,18.32,0,0,1-6.31-.19c-2.33-2.55-5.06-4.71-7.16-7.48-.55-1.4,1.16-2,1.1-3.27,1.23-2.43,3.53-3.9,5.27-5.88.79-.91,2-1.7.64-3s-2.27-.56-3.36.42c-2.77,2.48-4.79,5.9-8.65,7a16.11,16.11,0,0,1-8.92-7.09c-.45-2-.17-4-.26-6-.05-1,.24-2-.78-2.73-3.11-.44-3.52-.17-3.6,2.71-.07,2.44.1,4.89,0,7.33s.5,4,3.24,3.94a1.87,1.87,0,0,1,1.33.67c-1.72,2.5-4,2.58-6.47.25-.93-4.36-.23-8.72.17-12.6.05.27-.06,1-.09,1.8-1.22,2.37-3.18,1.77-5,1.15a83.5,83.5,0,0,0-16.57-3.89c-17-2-32.64,1.84-47.16,10.72-1.89,1.16-3.61,2.68-5.95,2.93-3-.8-5.64-2.44-8.94-2.68-9.86-.71-15.3,6.21-15.92,14.66A19.28,19.28,0,0,0,35,108a6.8,6.8,0,0,1,.84,2.6c.6,3.77-.68,7.14-2,10.58-2.55,6.53-3.74,13.25-1.64,20.2A.58.58,0,0,1,31.42,141.78Z" style="fill:#e31c32"/><path d="M139.94,48.19c.72.63,1.36,1.48,1,2.37-.51,1.2-1.79.67-2.73.67q-35.79,0-71.59,0a14.17,14.17,0,0,1-2.44,0c-.77-.13-1.77.76-2.21-.09s.28-1.7,1-2.33c1.17-1,2.63-1,4-1,23.52,0,47,0,70.56,0A4.87,4.87,0,0,1,139.94,48.19Z" style="fill:#e6334a"/><path d="M139.94,48.19c-1.3.8-2.75.61-4.16.61H63a3.43,3.43,0,0,1,1.21-2.45,6.74,6.74,0,0,1,4.1-.86q33.21,0,66.42,0c1.42,0,2.86-.1,4.09.84A2,2,0,0,1,139.94,48.19Z" style="fill:#e94d62"/><path d="M132.21,39a3.07,3.07,0,0,1,2.27,2.49c-1.06,1.08-2.44.85-3.73.86q-29.37,0-58.75,0c-1.29,0-2.68.22-3.73-.88a9.92,9.92,0,0,1,3.23-3A37.62,37.62,0,0,1,77.86,38q24.36,0,48.71,0A11.86,11.86,0,0,1,132.21,39Z" style="fill:#ef8595"/><path d="M132.21,39,74.06,39c-.88,0-1.86.27-2.56-.58a11.11,11.11,0,0,1,3.66-2.47c15.28-.55,30.56-.1,45.85-.24a30.87,30.87,0,0,1,7.25.35A11.56,11.56,0,0,1,132.21,39Z" style="fill:#f29daa"/><path d="M82.51,32.32a35.37,35.37,0,0,1,12.84-3.06c4.06,0,8.11,0,12.17,0s7.79,1.37,11.59,2.5c-.62,1.85-2.36,1.87-3.74,1.88-10.63.07-21.27.51-31.9-.38C82.92,33.2,82.51,33,82.51,32.32Z" style="fill:#f8ced5"/><path d="M138.77,46.33l-74.61,0,1.22-1.84a20.12,20.12,0,0,1,4-.25h63.44c1.82,0,3.68-.15,5.34.86A1.39,1.39,0,0,1,138.77,46.33Z" style="fill:#ea556a"/><path d="M138.11,45.12q-34.79,0-69.57,0c-1.06,0-2.26.41-3.16-.6l1.16-1.29c5.39-.38,10.79-.16,16.18-.17q24.9,0,49.79,0c1.5,0,3.08-.26,4.39.84A2.07,2.07,0,0,1,138.11,45.12Z" style="fill:#eb6275"/><path d="M136.9,43.89q-33.62,0-67.23,0c-1.06,0-2.26.39-3.13-.67l.56-.58a5.51,5.51,0,0,1,2.65-.57c22,0,43.9-.11,65.85.08A1.77,1.77,0,0,1,136.9,43.89Z" style="fill:#ed6d80"/><path d="M135.6,42.15c-.64.71-1.5.52-2.29.52l-66.21,0,1.17-1.21,66.21,0Z" style="fill:#ed7284"/><path d="M128.26,36.05a43.66,43.66,0,0,1-4.68.48q-22.64.06-45.28,0c-1.06,0-2.25.4-3.14-.6l1.19-.68c2-.91,4.06-.86,6.21-.85,13.23.1,26.46.15,39.68,0a30,30,0,0,1,3.6.44A4.4,4.4,0,0,1,128.26,36.05Z" style="fill:#f4aeb9"/><path d="M82.51,32.32c10.75,1,21.52.41,32.29.54a8.88,8.88,0,0,0,4.31-1.12,10,10,0,0,1,4.28,1.84c-.43,1.62-1.84,1.07-2.77,1.07-12.9.1-25.8.08-38.7,0-.91,0-2.11.31-2.45-1.1A4.5,4.5,0,0,1,82.51,32.32Z" style="fill:#f6bec7"/><path d="M79.47,33.58c.55.62,1.28.52,2,.52Q102,34,122.61,33.94c.26,0,.52-.23.78-.36l2.45,1.24c-14.67,1.12-29.37.3-44,.4-1.8,0-3.63.09-5.44,0A7.47,7.47,0,0,1,79.47,33.58Z" style="fill:#f5b3be"/><path d="M107.52,29.24a26.34,26.34,0,0,1-12.17,0A35,35,0,0,1,107.52,29.24Z" style="fill:#fbedf0"/><path d="M33.46,144.66q-.89-1.44-1.65-2.88c-3.35-8.18-1-15.89,2.3-23.34,1.18-2.63.36-5.28,1.25-7.78,1.73.29,2.63,1.83,4,2.69q8,5,16.15.41A10,10,0,0,0,59.62,109c.52-1.11,1.19-2.36-.53-3-1.42-.56-3-1.26-4,.71-1.25,2.48-2.91,4.39-5.89,4.75-5.56.67-9.7-2.63-10.23-8.33a40.79,40.79,0,0,1,0-7.33c.34-3.89,2.21-6.74,6-8.06,3.47-1.21,6.76-.19,9.41,3.14A3.28,3.28,0,0,0,58.18,92c1.69-.37,2.22-1.18,1.39-2.84-.57-1.14-1.8-2-1.54-3.53,6.55-4,13-8.14,20.41-10.57,10.47-3.44,21.13-5.17,32.21-3.72a83.72,83.72,0,0,1,18.22,4.36,4,4,0,0,0,3.71-.54c.85,3.42-.23,7,.59,10.39,2,2.14,4,1,6-.07,0-.16,0-.31-.05-.47.15-1.67-.49-3.47.79-5,2.78,2.21,5.11,5,8.66,6.17-.38,2.43.16,4.35,2.82,5.09.81,1.25,1.18-1.3,2-.23,2.36,2.33,5.41,4,6.72,7.3A3.37,3.37,0,0,1,158,99.45c-1.11.33-2.21.65-2,2.18s1.31,1.51,2.49,1.55a32.26,32.26,0,0,0,7.6-.31c1-.21,2.28-.55,2.83.95-2.52,1.34-3,2.78-1.38,5.55,3.66,6.2,6.83,12.7,6.06,20.29.26,2.22-.67,4.15-1.59,6a79.51,79.51,0,0,1-10,15.48c-.64.77-1.11,2.33-2.73,1.5a1.47,1.47,0,0,1-.16-1.18c2.72-5.28,1.25-10.74.5-16.09a51.71,51.71,0,0,0-6.64-18.84c-2-3.43-4-6.79-4.89-10.72a33,33,0,0,1-.53-4.2c-1-5.55-4.77-8.91-10.42-9.13a24.51,24.51,0,0,1-3.92-.26,7,7,0,0,0-3.61-.07,10,10,0,0,1-5.34-.77,57.5,57.5,0,0,0-43.84.49c-2.07.85-4,1.52-6-.11-1.27-2.28-.18-4.84-.87-7.18a5.44,5.44,0,0,0-.44-.73c-1.75-.61-3.56-1.71-4.81.78-.15,8.75,0,17.49-.06,26.22a14.68,14.68,0,0,1-.35,4.53c-.13.27-.37.76-.49.71-2.81-1.25-3.69,1-4.74,2.69-9,14.5-10.13,29.67-3.78,45.47.15.35,1.24,1.74.79,3a2.48,2.48,0,0,1-1.13,1.24A69.75,69.75,0,0,1,33.46,144.66Z" style="fill:#e21e27"/><path d="M58,85.61,59,86.78c1.11,1.42,2.72,3.28,2.16,4.68-.71,1.76-3.4,1.22-5.18,1.85-1.13.4-1.24-.69-1.59-1.38-1.52-3-4-4.16-7.28-3.91a7.14,7.14,0,0,0-6.65,5,20,20,0,0,0,0,12.91,7.14,7.14,0,0,0,7,4.94c3.35.08,5.53-1.57,6.94-4.52.4-.81.15-2.47,1.52-2.23A21,21,0,0,1,61.32,106c.71.35-.09,1.3-.31,1.9-3.3,9.14-15.74,11.88-23.31,5.15-.83-.74-1.56-1.59-2.34-2.39A21.31,21.31,0,0,1,32.71,96C34.81,83.15,47.44,78,58,85.61Z" style="fill:#fdfdfd"/><path d="M168.85,103.82c-1.22-1.51-2.35,0-3.53.08-3,.13-6,.16-8.95.3-1.56.07-1.31-1.13-1.22-1.89.12-1-1.36-2.52.53-3.13a33.8,33.8,0,0,1,4.4-.82c3.14.5,6.22-.25,9.33-.49,1.33-.1,2.75-.4,2.72,1.68,0,1.4,1.14,3.4-1.75,3.4C169.87,102.94,169.36,103.51,168.85,103.82Z" style="fill:#fdfbfb"/><path d="M151.54,91.71c-3.78-.63-4.74-2.42-3-5.51,3.35-2.17,5.87-5.24,8.56-8.1,2.33-2.48,3,.47,4.28,1.17,1.82,1,.21,1.76-.43,2.45-2.11,2.32-4.28,4.59-6.43,6.88A10.18,10.18,0,0,1,151.54,91.71Z" style="fill:#fdfcfc"/><path d="M139.18,85.46c-5.49.54-5.49.54-5.5-4.71a76.85,76.85,0,0,0-.06-7.89c-.28-2.76.72-3.66,3.33-3.23a14.83,14.83,0,0,0,2.11.06c1,1,.55,2.29.51,3.42-.17,4.13.57,8.3-.4,12.4Z" style="fill:#fdfafb"/><path d="M139.17,85.51q0-7.91-.11-15.82c1.7,1.3.66,3.12.82,4.69.18,1.87,0,3.77,0,5.65C139.59,81.85,140.66,83.86,139.17,85.51Z" style="fill:#e21e26"/><path d="M133.17,85.53c-1.27-3.4-.25-6.94-.59-10.39V70.36h.59Z" style="fill:#e21e26"/><path d="M151.54,91.71l3-3.11c.58,1.3-1.1,1.49-1.2,2.46C152.68,91.06,152.46,92.37,151.54,91.71Z" style="fill:#e21e26"/><path d="M74.56,176.28c-2.27-.82-4.69-1.25-6.74-2.64-2.37-5.39-6-10.14-7.57-15.94-3.59-13-2-25.19,5.19-36.61,1.07-1.72,2.09-3.47,3.13-5.21,4.27-1.24,4.28-1.24,4.53-5.8a5.51,5.51,0,0,1,.37-2c1.87-.34,3.74-.63,5.59.16.6,2,1.37,3.87,1.22,6-10.52,6.8-15.14,17-15.88,29A36.12,36.12,0,0,0,75.4,172c2.39,2.41,2.39,3.27.53,4.71A3.7,3.7,0,0,1,74.56,176.28Z" style="fill:#e63e3e"/><path d="M68.43,116.26c.84,1.07.15,1.74-.5,2.62a43.18,43.18,0,0,0-1.36,50.17,6.93,6.93,0,0,1,1.25,4.59l-2.44-1.1c-2.36-1.57-5.12-2.47-7.31-4.33,1.29-.57,1.11-1.42.58-2.48a45,45,0,0,1-4.73-19.3,48.76,48.76,0,0,1,9.74-30.69c1.57-2.11,2.72-2,3.79.34A.66.66,0,0,1,68.43,116.26Z" style="fill:#e53234"/><path d="M159.44,152.79a47.58,47.58,0,0,1-9.08,8.85c-2.11-1.26-1.06-3.08-.69-4.64a49.37,49.37,0,0,0-2.4-30.87c-1.47-3.61-3.76-6.75-5.72-10.06a1.43,1.43,0,0,1,.53-1.36,15.7,15.7,0,0,0,5.6-8.12,1.59,1.59,0,0,1,.84-.83c4.13,9.93,10.78,18.85,12,29.92a89.39,89.39,0,0,1,.83,12.14C161.31,149.82,159.06,150.76,159.44,152.79Z" style="fill:#e21e26"/><path d="M148.52,105.76a14.06,14.06,0,0,1-6.75,9.86c-1.32,1.52-3.15,1.71-5,2a16.44,16.44,0,0,1-7.23-1.3,16.55,16.55,0,0,1-6.34-7c-1.08-2.42-.56-5-.65-7.48,1.12-6.59,4.93-10.26,10.59-10.21,2.63,0,5.25-.2,7.8.8,4.89,1.9,7.08,5.62,7.45,10.65C148.49,103.93,148.49,104.85,148.52,105.76Z" style="fill:#fdfdfd"/><path d="M133.18,91.57c-5.58,1-8.64,4.5-9.78,9.9-3.22-.56-6.23-1.87-9.42-2.53.22-1.39,1.29-1.68,2.44-1.82.61-.07,1.22,0,1.83-.06,1.88-.14,2.26-1.69,2.39-3,.16-1.66-1.41-1.4-2.43-1.53a5,5,0,0,0-4,1.13c-1.12.93-2,.71-2.7-.54a3.7,3.7,0,0,0-4.44,0c-.14.26-.28.51-.4.78-.64,4.16-1.22,4.53-6,3.87-1.15-.39-1.55-1.47-2.15-2.38-1.25-1.88-3.2-2.6-5.25-3.17a13.86,13.86,0,0,0-6.18,0,9.05,9.05,0,0,0-5.47,3c-1.09,1.36-1.79,2.6.49,3.48a.66.66,0,0,1,.36,1c-1.9,1.17-4,1.86-6,2.86-1.1.56-2.45.51-2.53-1-.15-3.28-1-6.63.61-9.81,2.14.73,4,.12,6-.79a53,53,0,0,1,18.8-4.19,69.72,69.72,0,0,1,19.71,1.92,11.63,11.63,0,0,1,3.17,1,11.77,11.77,0,0,0,9.24,1.5A1.56,1.56,0,0,1,133.18,91.57Z" style="fill:#e21e26"/><path d="M68.43,116.26l-1-.18q-.11-16.33-.2-32.66c2.17-1.23,4.45-.52,6.69-.38l.09.68c.45,4.58.08,9.17.2,13.75.06,2.23-.16,4.46.51,6.68A3.5,3.5,0,0,1,74,107.6c0,.91-.11,1.82-.11,2.72C73.9,115.93,73.91,115.93,68.43,116.26Z" style="fill:#fdfafa"/><path d="M74,107.6q0-11.94,0-23.88c1.13,2.59.22,5.31.52,8v10.94c2.89-1.39,5.21-3,7.94-3.53,2.53-1.35,4.66-3.56,7.9-3.34,2.15.14,3.89.78,4.12,3.14s-1.66,2.74-3.34,3.21a22.83,22.83,0,0,1-3.26.71,14,14,0,0,0-9.12,5.4C77.25,107.57,75.29,110.33,74,107.6Z" style="fill:#e3292d"/><path d="M73.94,83c-2.24-.18-4.51-.7-6.69.38C69.39,81.66,71.67,82.34,73.94,83Z" style="fill:#e31c32"/><path d="M116.71,178.06C111,179.9,105.16,180,99.28,180c-1.73,0-3.46,0-5.19,0l-3.66-.17-.7-.52c0-1.91-1.66-2.14-2.83-2.77C76.47,170.91,70.09,162.31,68,150.62c-2.4-13.25,4.31-28.43,15.33-34.85,3.16.17,6.24.28,9.14-1.52,1.39-.86,2.88-.6,2.6,1.73-.74,1.27-2.14,1.46-3.33,2-10.88,4.77-17.09,13.25-18,24.92-1.27,16,10.87,30.78,27.82,31.24,14.82.4,26.66-8.79,29.82-22.58a29.55,29.55,0,0,0-15-32.54c-1.54-.81-3.63-1.14-3.85-3.48a3.37,3.37,0,0,1,.16-.94c.71-2.2,2.21-2.34,4.12-1.65,11.21,4,20.53,17.58,20.94,29.6.39,11.31-3.29,20.76-11.44,28.5C123.4,173.78,119.66,175.38,116.71,178.06Z" style="fill:#ea5b56"/><path d="M83.09,116.23c-3.8,3.49-7.48,7-10.21,11.54-6.54,11-5.79,27.26,2,37.42A38.23,38.23,0,0,0,89.1,176.78c2.27,1.07,2.22,1.16.63,2.53-4.15,0-8-1.48-12.08-2.07l-2-1c2.66-1.29.33-2.38-.34-3.09A45.13,45.13,0,0,1,69,165.06q-9.83-17.13-2.36-35.35a35.43,35.43,0,0,1,10.53-14.59c.9-.73,1.76-1.43,3-.78A3.19,3.19,0,0,1,83.09,116.23Z" style="fill:#e84b48"/><path d="M116.71,178.06c0-1.61,1.32-2.18,2.44-2.85,5.67-3.4,10.47-7.68,13.59-13.62,5.75-11,5.79-22.05.14-33-3.46-6.72-8.93-11.45-15.75-14.69-1.85-.88-3.19-1-4.16,1-1.2-1.57-.75-3.33-.58-5.06,1.2-4.63,1.78-4.87,6.3-3.21,1.92.71,3.52,2,5.39,2.72a14.71,14.71,0,0,0,5.59,6.13,43.59,43.59,0,0,1,8.38,11c7.06,14,6,27.46-2.14,40.6-1.06,1.72-2.57,3.2-2.73,5.38-3.6,2.17-7.7,3-11.59,4.43Z" style="fill:#e84d4a"/><path d="M133.18,172.51c-1.87-1.1-.41-2.06.19-2.94,3.74-5.49,6.78-11.27,7.91-17.94,1.83-10.89-.68-20.74-6.95-29.68-1.22-1.73-2.79-3.2-4.14-4.84-.35-.43-1.48-.73-.52-1.63a21.64,21.64,0,0,0,7.2,1.37c5.19,4.72,7.59,11,9.27,17.51,2.65,10.35,1.37,20.37-3.08,30-.52,1.11-.81,2.3-1.25,3.44A32.81,32.81,0,0,1,133.18,172.51Z" style="fill:#e63e3e"/><path d="M141.81,167.83a5,5,0,0,1,.17-3.22c7.49-16.45,6.19-32-4.73-46.62a3.65,3.65,0,0,1-.38-1.14l4.9-1.23c6,7.12,8.72,15.43,9.89,24.61.8,6.3-.34,12.23-1.51,18.24a4.17,4.17,0,0,0,.21,3.17C147.88,164.22,144.82,166,141.81,167.83Z" style="fill:#e53033"/><path d="M83.09,116.23a7.37,7.37,0,0,1-3-1.89,13.43,13.43,0,0,1-1.32-6.14c.59-3,2.78-4.5,5.43-5.31s5.3-1.27,8-1.9c.77-.18,1.71-.25,1.76-1.32a2.54,2.54,0,0,0-1.2-2.62c-2.1-.94-4.57-1.42-6.17.46a4,4,0,0,1-4.07,1.57c-.83-.78-2.36.67-2.88-.81s.64-2.45,1.35-3.46c1.4-2,3.54-2.77,5.82-3.23a24.57,24.57,0,0,1,6.69,0c3.21.71,5.81,2.17,6.75,5.62a3.29,3.29,0,0,1,.81,2c.16,4.63-.21,9.27.41,13.88a6.15,6.15,0,0,1,.32,2.59c-.34,1-1.19,1.15-2.06,1.28s-1.68,0-2.53,0a2.65,2.65,0,0,1-2.26-.88c-.09-1.51-.61-2.47-2.17-1.28C89.76,117.08,86.5,117.07,83.09,116.23Z" style="fill:#fdfdfd"/><path d="M141.81,104.29c-.05,4.27-2.11,7-5.48,7.15s-5.68-2-6.19-5.43c-.71-4.77,1-8.33,4.47-9.21C138.65,95.78,141.87,99.12,141.81,104.29Z" style="fill:#e22026"/><path d="M124.08,109.35c-.44.67-.92.59-1.51.15a27.3,27.3,0,0,0-4.3-2.13c-2.72-1.41-4.67-1.57-5.29,2.07-1.53-2.94-.94-6-.41-9a1.76,1.76,0,0,1,1.62-1.53c3.51-.7,6.31,1.13,9.21,2.59C123.56,104.1,123,106.8,124.08,109.35Z" style="fill:#e53537"/><path d="M114.19,98.88c-2,3.33-1.18,7-1.21,10.56,0,1.82,0,3.64,0,5.46v0c-.71,2.83-3,2-4.86,2.08a3.45,3.45,0,0,1-1.59-.47c-1.77-1.71-.79-3.95-1.14-5.94-.13-3,.18-6.06,0-9.09s.9-5.67.82-8.56l.09-.69c2-.24,4.08-.57,6.09.17,0,.5-.15,1.16.11,1.44.51.58.89-.24,1.1-.48a4.49,4.49,0,0,1,3.89-1.69c1.5.11,3.47-.2,4,1.23s-.82,3.13-1.35,4.69c-.23.67-.9.23-1.38.29C117.25,98,115.31,96.81,114.19,98.88Z" style="fill:#fdfcfc"/><path d="M106.22,92.9v8.58c-.68,1.13.51,2.89-1.35,3.65-2.43,1-4.29-.17-4.37-2.83a9.72,9.72,0,0,0-.2-3.27l-.09-1.85C103.7,97.84,106.14,97,106.22,92.9Z" style="fill:#e53638"/><path d="M93.47,91.56l-6.69,0A9.35,9.35,0,0,1,93.47,91.56Z" style="fill:#e31c32"/><path d="M112.4,92.38a13.76,13.76,0,0,0-6.09-.17C108.36,91.43,110.4,91.16,112.4,92.38Z" style="fill:#e31c32"/><path d="M108.15,116.26c1.57-.62,3.75.94,4.83-1.38-.16,1.91,1.4,2.27,2.63,2.88a29.77,29.77,0,0,1,16.6,21c3.61,15.89-7.17,32.53-23.36,35.64-10.32,2-19.54-.5-26.87-7.77-11.21-11.11-12.52-27.7-2.55-40.39a29.7,29.7,0,0,1,15.48-10.14l2.24.17c.73,1.23-.36,1.65-1,2.27C93,119.92,89.67,121,86.87,123c-9.23,6.89-12.8,16.28-10.6,27.34s9.32,18.21,20.43,21.05c1,.25,2,.32,3,.55a12.14,12.14,0,0,0,5.84,0c12.16-1.93,19.76-9,23.32-20.68a19.88,19.88,0,0,1,.73-2,23.09,23.09,0,0,0,0-8.73,36.07,36.07,0,0,0-8.49-15.26c-3-3.17-6.64-4.85-10.48-6.46C109.5,118.41,107.53,118.47,108.15,116.26Z" style="fill:#eb665e"/><path d="M130.14,149.86a31.56,31.56,0,0,1-6.73,13.42c-4.72,5.28-10.42,8.82-17.7,9.24a13.14,13.14,0,0,1-6.11,0c-9.95-.82-17.08-6.07-21.6-14.67a27.74,27.74,0,0,1,5.28-32.94A29.56,29.56,0,0,1,95.93,118c1.29-.44,2.38-1.28,3.65-1.76.62-.25,1.49.17,1.9-.68,1.76.56,3.53,1.13,5.43.68h1.24c.18,1.29,1.26,1.46,2.21,1.76,10.5,3.37,16.55,10.81,19.4,21.2a5.71,5.71,0,0,0,.38.84A32.85,32.85,0,0,1,130.14,149.86Z" style="fill:#ec6860"/><path d="M100.31,99c.48.46.38,1.09.53,1.66.35,1.33-1.07,3.28,1.51,3.86s3.36-1.06,3.88-3.07v9.19c-.66,3-3.13,2.83-5.37,3-1.33-2.48-.5-5.14-.63-7.71C100.11,103.68,100.27,101.35,100.31,99Z" style="fill:#e84b49"/><path d="M94,107c-.15,3.15-2.27,5.39-5.14,5.25-2.07-.11-3.51-1.13-3.48-3.4,0-2,3.6-3.83,7.49-3.92C94,104.87,94.07,105.06,94,107Z" style="fill:#e84947"/><path d="M100.86,113.71c1.4-1.71,4.4-.58,5.37-3,.55,1.82-.61,3.85.68,5.58-2,1.45-3.86,1.44-5.43-.68A2.6,2.6,0,0,1,100.86,113.71Z" style="fill:#eb665e"/><path d="M99.58,116.25A4,4,0,0,1,95.93,118c.34-.63,1.29-.84,1.22-1.75Z" style="fill:#ec6760"/><path d="M130.14,149.86v-9.8A16.38,16.38,0,0,1,130.14,149.86Z" style="fill:#ec6760"/><path d="M99.6,172.52h6.11A6.91,6.91,0,0,1,99.6,172.52Z" style="fill:#ec6760"/><path d="M77,144.69a25.6,25.6,0,0,1,25.68-25.87c14.36.09,26.16,10.63,26.16,26.12,0,14.83-10.91,26-26.08,26.18A25.69,25.69,0,0,1,77,144.69Z" style="fill:#ed7067"/><path d="M127.09,145.21c-.28,13.5-10.5,24.07-24,24.08-13.93,0-24.31-10.12-24.52-24-.22-14,10.17-24.47,24.11-24.69C116.79,120.4,127.14,131.77,127.09,145.21Z" style="fill:#ed7369"/><path d="M125.26,145c.91,11.32-10.08,23-22.52,22.69-12-.26-22.65-10.59-22.69-22.58,0-12.18,10.54-22.71,22.72-22.82C116,122.14,126.17,134.14,125.26,145Z" style="fill:#ee7a6f"/><path d="M121.59,145.24a18.44,18.44,0,0,1-18.72,18.69c-10.2-.08-19-7.7-19.06-18.93s8.93-19,19.28-19C112.34,125.88,122.34,134.37,121.59,145.24Z" style="fill:#f0897b"/><path d="M117.31,145.17a14.27,14.27,0,0,1-14.45,14.45c-9.11-.26-14.7-6.65-14.69-14.7,0-8.58,6.39-14.45,14.48-14.59C111.4,130.17,117.9,137.67,117.31,145.17Z" style="fill:#f19484"/><path d="M113.65,145.07c0,6-5,11.18-10.82,10.86A11.37,11.37,0,0,1,91.76,145c-.4-5.32,5.64-11.13,11-11.06A11,11,0,0,1,113.65,145.07Z" style="fill:#f39f8d"/><path d="M102.46,151.08a5.89,5.89,0,0,1-5.92-6.31,6.1,6.1,0,0,1,6.33-5.94c3.42.06,6.64,3.2,6.47,6.33S106,151.13,102.46,151.08Z" style="fill:#f5af9a"/></svg>