<svg id="ba12c998-3453-4ec9-bf2e-42e728807e86" data-name="Capa 1" xmlns="http://www.w3.org/2000/svg" viewBox="0 0 200 200"><title>entel</title><path d="M180.5,105.83a37.5,37.5,0,0,0-.48,4.23A68.53,68.53,0,0,1,165.09,146a54.79,54.79,0,0,1-8.86,8.76,5.61,5.61,0,0,1-7.48-.25q-5.24-4.71-10.44-9.46a3.44,3.44,0,0,1,0-5.21A51.43,51.43,0,0,0,155.38,108c2.08-15.3-1.61-29.12-11.8-41-1.35-1.59-3-2.91-4.46-4.37s-1.69-2.67-.34-4.5a12.81,12.81,0,0,1,2-2.14c2.43-2,4.77-4.2,7.07-6.4A23.18,23.18,0,0,1,149.73,48a5.85,5.85,0,0,1,7.78.19,58.75,58.75,0,0,1,9.06,9.52,67.83,67.83,0,0,1,13.12,31.75c.3,2.06.54,4.12.67,6.2,0,.19,0,.4.14.55Z" style="fill:#f0791a"/><path d="M19.64,105.19h-.08l-.06,0V103A5.59,5.59,0,0,1,19.64,105.19Z" style="fill:#6a99bf"/><path d="M19.5,94.17h.15a3.51,3.51,0,0,1-.15,1.7Z" style="fill:#a4c0d8"/><path d="M127.05,84a62.78,62.78,0,0,0-4.85-16.12,49.52,49.52,0,0,0-11.91-16A42.63,42.63,0,0,0,105,47.78a49.7,49.7,0,0,0-14-6.28,38.26,38.26,0,0,0-9.19-1.67A34.06,34.06,0,0,1,78,39.6H69.17c-.26.17-.55.07-.82.09-1.65.12-3.32.09-4.95.32a50,50,0,0,0-18.24,6.23A49.27,49.27,0,0,0,32,57.53,47.72,47.72,0,0,0,25,69.05a61.62,61.62,0,0,0-5.44,25.19,5.86,5.86,0,0,1-.08,1.62V103a10.65,10.65,0,0,1,.08,2.11c0,1.52.05,3,.1,4.55a40.92,40.92,0,0,0,.32,4.7,65.32,65.32,0,0,0,6.48,20.93,44.59,44.59,0,0,0,12.11,14.52,45.33,45.33,0,0,0,12.67,6.94,53.82,53.82,0,0,0,17.6,3.54,16,16,0,0,1,3,.15h8.45c.29-.17.6-.07.91-.08a48.24,48.24,0,0,0,5-.35,63.43,63.43,0,0,0,11.33-3,84.41,84.41,0,0,0,19.95-10.35,21.67,21.67,0,0,0,4-3.3c1.38-1.55,1.39-3-.06-4.45-1.15-1.16-2.34-2.28-3.51-3.41-3.33-3.19-6.94-6.09-10.15-9.41-1.31-1.36-2.85-1.6-4.77-.36-1.31.84-2.55,1.76-3.8,2.66a32.49,32.49,0,0,1-12.15,5.68,48.19,48.19,0,0,1-8.54.92,33.19,33.19,0,0,1-13.34-2.11,22.59,22.59,0,0,1-8.71-5.79,21.66,21.66,0,0,1-5.81-15.82c.05-.94.26-1.21,1.18-1.34a28.55,28.55,0,0,1,4-.31q33.29,0,66.56,0a5.4,5.4,0,0,0,5.58-5.39C128,97.49,128.14,90.75,127.05,84ZM96.23,89c-7.57,0-15.14,0-22.72,0H50.88c-.38,0-.86.18-.81-.56.37-5.76,1.68-11.24,5.27-15.92a21.25,21.25,0,0,1,13.77-7.94,24.15,24.15,0,0,1,17.7,3.43c5,3.24,7.8,8,9.2,13.72a47.82,47.82,0,0,1,1,6.41C97.13,88.75,97,89,96.23,89Z" style="fill:#18609c"/></svg>