<?xml version="1.0" standalone="no"?>
<!DOCTYPE svg PUBLIC "-//W3C//DTD SVG 20010904//EN"
 "http://www.w3.org/TR/2001/REC-SVG-20010904/DTD/svg10.dtd">
<svg version="1.0" xmlns="http://www.w3.org/2000/svg"
 width="256.000000pt" height="256.000000pt" viewBox="0 0 256.000000 256.000000"
 preserveAspectRatio="xMidYMid meet">

<g transform="translate(0.000000,256.000000) scale(0.100000,-0.100000)"
fill="#000000" stroke="none">
<path d="M805 2134 c-304 -45 -512 -213 -604 -490 -46 -138 -54 -203 -48 -412
3 -151 8 -202 26 -267 97 -354 356 -535 765 -535 137 0 244 23 378 79 84 35
256 145 273 174 9 16 -6 34 -105 128 -63 60 -119 109 -125 109 -5 0 -44 -23
-85 -50 -110 -74 -182 -93 -328 -88 -103 3 -125 7 -180 32 -127 58 -202 181
-194 313 l2 22 531 3 531 3 20 25 c19 23 20 35 15 165 -11 281 -81 454 -246
607 -126 117 -282 176 -481 183 -63 2 -128 1 -145 -1z m215 -354 c118 -31 203
-141 225 -292 l7 -48 -341 0 c-266 0 -341 3 -341 13 1 30 32 141 50 177 68
134 230 195 400 150z"/>
</g>
</svg>
