<svg id="bed5f75d-8c93-4b52-b035-d2310f74280e" data-name="f5a85adf-f578-47ae-974b-516e1bf5a2c0" xmlns="http://www.w3.org/2000/svg" viewBox="0 0 200.06 250"><title>loc-osiptel</title><path d="M235.63,115.08c0,6.31-2.91,17.17-7,27.73-9.57,24.6-23.82,46.47-39.78,67.28-11.6,15.13-24.05,29.5-38.55,42a57.61,57.61,0,0,1-10.5,7.4,7.71,7.71,0,0,1-8.07-.1c-6.32-3.63-11.66-8.49-16.78-13.55a353.88,353.88,0,0,1-63-83.41c-6.22-11.49-11.35-23.47-14.33-36.27C34,110.9,35.36,95.82,40.2,81.19,52,45.41,76.44,22.59,113,13.36,151.59,3.59,194.21,19.94,217,52.64,229.26,70.17,235.6,89.71,235.63,115.08Z" transform="translate(-35.57 -10.55)" style="fill:#bd0000"/><path d="M136.06,198.66a87.57,87.57,0,1,1,0-175.13c48.69,0,87.59,39.23,87.56,88.32C223.59,159.53,184.11,198.66,136.06,198.66Z" transform="translate(-35.57 -10.55)" style="fill:#f4f4f4"/><path d="M71.41,102.23c.35-7.08,2.4-13.33,9.28-16.65,6.1-2.92,13.37,0,14.84,6a14.46,14.46,0,0,1-1.62,10.59,55.79,55.79,0,0,0-5.51,14,46.21,46.21,0,0,0-.1,18.3c-1.17.15-1.76-.73-2.39-1.41a61.16,61.16,0,0,1-14.2-27.38C71.46,104.47,71.9,103.3,71.41,102.23Z" transform="translate(-35.57 -10.55)" style="fill:#00bdf1"/><path d="M163.71,165.73c-5.76,3.12-11.71,4.73-18.06,1.81-4.29-2-7.12-6.69-6.73-10.94.39-4.59,3.51-8,8.59-9.32a24.26,24.26,0,0,1,5.27-.64c10-.19,19.13-3,27-9.27.93-.73,1.85-1.51,2.83-2.29.39,2.63-.93,4.88-1.86,7.12a68.09,68.09,0,0,1-13.32,20.26C166.35,163.63,164.88,164.51,163.71,165.73Z" transform="translate(-35.57 -10.55)" style="fill:#0070b9"/><path d="M170.93,53.86c4.93,2.93,9,6.59,10.79,12.3a11.91,11.91,0,0,1-1.85,11.08c-4.3,5.51-11.42,5.37-16.35-.25-2.74-3.12-4.59-6.88-7.28-10a43.09,43.09,0,0,0-18.45-13c-.39-.15-.73-.34-1.07-.49.63-1.42,2.1-1.47,3.32-1.66a59.63,59.63,0,0,1,29.58,1.81A3.87,3.87,0,0,0,170.93,53.86Z" transform="translate(-35.57 -10.55)" style="fill:#ff8c2b"/><path d="M93.28,146.6c-.24-1.42-.44-2.88-.59-4.4-.09-1.17-.19-2.29-.29-3.41,1,.58,2.49,1.31,4.25,2.34a37.39,37.39,0,0,0,4.2,2.1,44.68,44.68,0,0,0,15.27,3.41,27.4,27.4,0,0,1,7.91,1.08c5.37,1.8,8.15,5.32,8,10.25-.2,4.49-4.25,9.08-9,10.3-5.61,1.41-10.68-.25-15.66-2.49-5.27-4.35-9.23-9.67-12.89-15.28A8.52,8.52,0,0,1,93.28,146.6Z" transform="translate(-35.57 -10.55)" style="fill:#00d8f6"/><path d="M183.82,129.9a48,48,0,0,0-6.2-27.87c-1.85-3.36-3-7-1.51-10.93,2.73-7,11.47-8.69,17.33-3.42A16.74,16.74,0,0,1,198.85,97c.44,2.05.78,4.1,1.17,6.15A32.35,32.35,0,0,1,193.14,122,30.53,30.53,0,0,1,183.82,129.9Z" transform="translate(-35.57 -10.55)" style="fill:#2cabd6"/><path d="M120.71,51.47c3,1.17,6.3,1.61,9.47,3.46a49,49,0,0,0-12.74,8.84,62.27,62.27,0,0,0-7.76,10.15c-2,3.07-4.49,5.71-8.2,6.83a9.56,9.56,0,0,1-9.66-3.36c-4.35-5.86-3-11.91,1.12-17,1.8-2.24,4.15-4,6.2-6a72.52,72.52,0,0,1,16.4-3.42C117.29,50.74,119.1,50.2,120.71,51.47Z" transform="translate(-35.57 -10.55)" style="fill:#ffba85"/><path d="M190.46,124.68c3.12-3.51,4.49-7.91,6.2-12.1a45.06,45.06,0,0,0,2.58-8.79c.1-.54.15-.93.83-.73.88,27.77-10.69,48.51-35,62.08a11.16,11.16,0,0,1-1.37.54c1.22-2.49,3.56-4.1,5.37-6.1A64.63,64.63,0,0,0,182.7,135c2.58-3,5.56-5.61,7.37-9.18C190.21,125.41,190.36,125.07,190.46,124.68Z" transform="translate(-35.57 -10.55)" style="fill:#004999"/><path d="M120.71,51.47c-6.34-.2-12.49,1-18.64,2.58-.93.25-1.86,1.22-2.93.25A67,67,0,0,1,126,43.9a63,63,0,0,1,44.9,10c-.58.68-1.26.44-2,.19a60.39,60.39,0,0,0-21.47-2.58c-3.66.19-7.37.49-10.84,2C131.4,52.35,126.18,50.93,120.71,51.47Z" transform="translate(-35.57 -10.55)" style="fill:#ff650a"/><path d="M93.28,146.6c3.32,7.32,8.54,13.27,14.3,18.74,0,0-.15.24-.19.39a60.88,60.88,0,0,1-25.53-22.21c-8.3-12.54-12-26.31-10.45-41.29,1.47,5.27,2.83,10.49,5.23,15.47,3,6.25,6.54,12,11.71,16.69C89.72,138.54,90.64,142.94,93.28,146.6Z" transform="translate(-35.57 -10.55)" style="fill:#00a1e9"/><path d="M115.88,125.17a10.47,10.47,0,0,1-10.2,10.69h-.34a10.73,10.73,0,0,1-10.89-10.54v-.2a10.85,10.85,0,0,1,10.64-10.74,10.64,10.64,0,0,1,10.79,10.35Z" transform="translate(-35.57 -10.55)" style="fill:#00bdf1"/><path d="M166,136a10.41,10.41,0,0,1-10.69-10.55,10.68,10.68,0,0,1,10.54-10.83h.29a11,11,0,0,1,10.69,10.78A10.73,10.73,0,0,1,166,136Z" transform="translate(-35.57 -10.55)" style="fill:#0070b9"/><path d="M135.84,83.29a10.59,10.59,0,1,1,10.54-10.64v.1A10.68,10.68,0,0,1,135.84,83.29Z" transform="translate(-35.57 -10.55)" style="fill:#ff8c2b"/></svg>