<svg id="a3ebc73e-202a-42e9-82de-c37b6b4cf813" data-name="Capa 1" xmlns="http://www.w3.org/2000/svg" viewBox="0 0 600 522.88"><title>osiptel-v</title><path d="M296.22,561.26a28.53,28.53,0,0,0,7.56-.14A35.33,35.33,0,0,0,296.22,561.26Z" transform="translate(0 -38.56)" style="fill:#00bde6"/><path d="M150.78,175.85c.79-16.45,5.56-31,21.56-38.69,14.18-6.81,31.09,0,34.49,14,2.16,8.51.46,16.8-3.74,24.63a128.93,128.93,0,0,0-12.83,32.45c-3.17,14.18-2.72,28.37-.22,42.55-2.73.34-4.09-1.7-5.56-3.29-16.68-18.15-27.12-39.71-33-63.66C150.89,181.07,151.91,178.35,150.78,175.85Z" transform="translate(0 -38.56)" style="fill:#00bdf1"/><path d="M365.35,323.48c-13.39,7.26-27.23,11-42,4.2-10-4.65-16.57-15.55-15.66-25.42.91-10.67,8.17-18.72,20-21.67a56.43,56.43,0,0,1,12.26-1.48c23.26-.45,44.48-7,62.86-21.56,2.16-1.7,4.31-3.52,6.58-5.33.91,6.13-2.15,11.35-4.31,16.57-7.26,17.58-18,33.13-31,47.09C371.48,318.6,368.08,320.64,365.35,323.48Z" transform="translate(0 -38.56)" style="fill:#0070b9"/><path d="M382.15,63.4c11.46,6.81,21,15.32,25.08,28.59,2.72,9.2,1.58,18.05-4.32,25.76-10,12.82-26.55,12.48-38-.57-6.35-7.26-10.67-16-16.91-23.37A100.36,100.36,0,0,0,305.1,63.63c-.91-.35-1.7-.8-2.5-1.14,1.48-3.29,4.88-3.4,7.72-3.86,23.26-4.54,46.18-2.83,68.76,4.2A8.69,8.69,0,0,0,382.15,63.4Z" transform="translate(0 -38.56)" style="fill:#ff8c2b"/><path d="M201.61,279c-.57-3.29-1-6.7-1.36-10.21-.23-2.73-.45-5.34-.68-8,2.38,1.36,5.79,3.07,9.87,5.45a88,88,0,0,0,9.76,4.88,104.42,104.42,0,0,0,35.52,7.94c6.12.23,12.37.46,18.38,2.5,12.48,4.2,18.95,12.37,18.5,23.83-.46,10.44-9.88,21.1-20.88,23.94-13.05,3.29-24.85-.57-36.43-5.79-12.25-10.1-21.44-22.46-29.95-35.51A19.78,19.78,0,0,1,201.61,279Z" transform="translate(0 -38.56)" style="fill:#00d8f6"/><path d="M412.11,240.19c1.92-23.72-3.41-44.82-14.42-64.79-4.31-7.83-7-16.34-3.51-25.42,6.35-16.23,26.66-20.2,40.28-7.94a38.91,38.91,0,0,1,12.6,21.56c1,4.76,1.81,9.53,2.72,14.29a75.3,75.3,0,0,1-16,43.8A71,71,0,0,1,412.11,240.19Z" transform="translate(0 -38.56)" style="fill:#2cabd6"/><path d="M265.38,57.84c6.93,2.72,14.64,3.74,22,8C276.05,71.68,266.18,78,257.78,86.43c-7,7-12.59,15.32-18,23.61-4.65,7.14-10.44,13.27-19.06,15.88-7.61,2.27-17.71-1.36-22.47-7.83-10.1-13.61-7-27.68,2.61-39.6,4.2-5.22,9.64-9.3,14.41-14,12.37-4.31,25.19-6.58,38.13-7.94C257.44,56.14,261.64,54.89,265.38,57.84Z" transform="translate(0 -38.56)" style="fill:#ffba85"/><path d="M427.54,228.05c7.26-8.17,10.44-18.38,14.41-28.14a105.65,105.65,0,0,0,6-20.43c.23-1.25.34-2.15,1.93-1.7,2,64.57-24.85,112.79-81.36,144.34a26.63,26.63,0,0,1-3.18,1.25c2.84-5.79,8.29-9.54,12.49-14.19A150.35,150.35,0,0,0,409.5,252c6-6.92,12.93-13.05,17.13-21.33A24.54,24.54,0,0,0,427.54,228.05Z" transform="translate(0 -38.56)" style="fill:#004999"/><path d="M265.38,57.84c-14.75-.46-29,2.38-43.34,6-2.16.57-4.32,2.84-6.81.57,19.18-12.37,39.83-20.88,62.52-24.17q56.69-8.18,104.4,23.15c-1.36,1.59-2.95,1-4.65.45a140.25,140.25,0,0,0-49.93-6c-8.51.45-17.14,1.13-25.19,4.65C290.23,59.88,278.09,56.59,265.38,57.84Z" transform="translate(0 -38.56)" style="fill:#ff650a"/><path d="M201.61,279c7.72,17,19.86,30.86,33.25,43.57.11,0-.34.57-.45.91C209.55,312,190,294.43,175.06,271.85c-19.29-29.16-27.8-61.16-24.28-96,3.4,12.26,6.58,24.4,12.14,36,6.92,14.53,15.2,27.92,27.23,38.81C193.33,260.28,195.48,270.49,201.61,279Z" transform="translate(0 -38.56)" style="fill:#00a1e9"/><path d="M254.15,229.18A24.32,24.32,0,0,1,230.43,254h-.79a24.93,24.93,0,0,1-25.3-24.51v-.45a25.2,25.2,0,0,1,24.73-25,24.72,24.72,0,0,1,25.08,24Z" transform="translate(0 -38.56)" style="fill:#00bdf1"/><path d="M370.57,254.26c-14.07,0-24.85-10.55-24.85-24.51a24.85,24.85,0,0,1,24.51-25.19h.68c13.51.23,25,11.69,24.86,25.08C395.54,243.48,384.53,254.15,370.57,254.26Z" transform="translate(0 -38.56)" style="fill:#0070b9"/><path d="M300.56,131.82a24.62,24.62,0,1,1,24.51-24.73v.22A24.85,24.85,0,0,1,300.56,131.82Z" transform="translate(0 -38.56)" style="fill:#ff8c2b"/><path d="M147.9,400.62c16.53-11.35,39.81-6.36,53.88,2.14a52.58,52.58,0,0,1,6.22,4.4l-11,16.62a33.43,33.43,0,0,0-10.27-7c-7.25-3.1-20-5.38-26,1.22a12.32,12.32,0,0,0-2.64,4.69h0a12.11,12.11,0,0,0,.77,6.83c2.37,5.32,8.51,6.84,15.45,9.18,13.27,4.49,20.55,6.95,26.14,12.37a30.1,30.1,0,0,1,9.11,22.16c-.46,13.29-10.36,21.27-12.49,22.9-6.49,4.93-13.05,5.86-18.38,6.6-18.12,2.55-32.41-5.13-37.59-8a66.58,66.58,0,0,1-11.85-8.38l12.56-16.56a39.9,39.9,0,0,0,8.08,6.82c2.4,1.53,14.51,9.24,26.13,5.06,2.08-.75,6.89-2.48,8.59-7a9.82,9.82,0,0,0,0-6.76c-1.6-4-5.84-5.65-9.9-7.23-11.31-4.4-17-6.6-19.25-7.66-5.63-2.6-16.58-7.67-20.52-18.55a26.78,26.78,0,0,1-.35-16.09C137.3,408.07,145.18,402.49,147.9,400.62Z" transform="translate(0 -38.56)" style="fill:#2cabd6"/><path d="M558.89,363l23.36-.09c.1,49.3.32,85.65,0,99.57-.07,2.8-.31,9.93,4.37,14.28,4,3.7,9.79,3.77,13.43,3.43q-.06,11-.13,22a40.7,40.7,0,0,1-10.17-.37c-3.65-.6-12.2-2.12-19.49-9-6-5.62-8.05-12-9.37-16A46.67,46.67,0,0,1,559,456.06Q558.93,409.52,558.89,363Z" transform="translate(0 -38.56)" style="fill:#2cabd6"/><path d="M58.62,395.2C25.36,395,.58,417.55,0,448.58S25.2,504.5,58.18,504.49c32.68,0,57.15-23.36,57.35-54.72C115.73,418,92.15,395.42,58.62,395.2Zm-.07,88.39c-18.27.39-33.27-14.69-33.5-33.69-.24-19.73,13.26-33.73,32.65-33.84s33.45,13.69,33.55,33.07S77.34,483.19,58.55,483.59Z" transform="translate(0 -38.56)" style="fill:#2cabd6"/><path d="M536.66,454.17c.4-1.8,5.16-29.84-13.85-48.5C510.88,394,495.42,394.25,491,394.24a53.93,53.93,0,0,0-45.15,25.2c-14,22.41-8.4,52.17,8.53,68.61,13.85,13.44,31.78,14.58,36.15,14.85a65.14,65.14,0,0,0,46.34-16.4q-6-8.81-12-17.6a34.76,34.76,0,0,1-14.07,9.93c-16.81,6.27-40,.17-45.7-13.93a36.35,36.35,0,0,1-2.23-10.73Zm-63-34c2.25-1.92,8.07-6.75,16.76-6.87a23.58,23.58,0,0,1,15.26,5.13,24.73,24.73,0,0,1,7.21,10.68,27.16,27.16,0,0,1,1.43,5.5H464.43A30,30,0,0,1,473.65,420.21Z" transform="translate(0 -38.56)" style="fill:#2cabd6"/><rect x="229.72" y="356.05" width="23.42" height="109.29" style="fill:#2cabd6"/><circle cx="241.82" cy="335.96" r="11.71" style="fill:#2cabd6"/><path d="M368,443.21a49.11,49.11,0,0,0-7.1-24.24c-11.05-18-31.28-23.31-39-23.88-1.06-.08-5.77-.36-11.66-.48-4.4-.08-8.05-.05-10.56,0H276.28V544.13H299.7V500.94a81.75,81.75,0,0,0,11.73-.58c4.62-.56,18.17-2.21,30.12-9.82C355.16,481.87,368.56,464.3,368,443.21Zm-24.52,5.36c-1.25,11.84-10,18.8-12.74,21-12.74,10.13-27.94,8-30.92,7.5q-.08-32-.16-63.94c2.36-.37,20-2.83,32.95,9.61C334.73,424.7,345,434.53,343.52,448.57Z" transform="translate(0 -38.56)" style="fill:#2cabd6"/><path d="M419.72,480a13.47,13.47,0,0,1-5.76-3.47,12.82,12.82,0,0,1-3-9V416.44H426.7V394.56H411V363.39H394.85c-.44,0-.88,0-1.31,0h-6c.33,74.3.26,100.66,0,104.29a32.5,32.5,0,0,0,1.61,12.46,29.44,29.44,0,0,0,7.25,11.05c6.87,7,14.81,9.37,19.39,10.68a52.53,52.53,0,0,0,13.71,2q-.1-11.37-.22-22.73A21.56,21.56,0,0,1,419.72,480Z" transform="translate(0 -38.56)" style="fill:#2cabd6"/><text transform="translate(0.44 505.31)" style="font-size:25.760875701904297px;fill:#0070b9;font-family:MyriadPro-Semibold, Myriad Pro;font-weight:600">EL REGU<tspan x="93.54" y="0" style="letter-spacing:0.003980418355592629em">L</tspan><tspan x="106.34" y="0">ADOR DE </tspan><tspan x="214.64" y="0" style="letter-spacing:0.004018327101836368em">L</tspan><tspan x="227.44" y="0">AS </tspan><tspan x="262.52" y="0" style="letter-spacing:0.5112752605893122em">	</tspan><tspan x="281.03" y="0" style="letter-spacing:0.8839561449115134em">	</tspan><tspan x="309.13" y="0">TELE</tspan><tspan x="361.89" y="0" style="letter-spacing:-0.026005399923205174em">C</tspan><tspan x="376.37" y="0">OMUNI</tspan><tspan x="457.18" y="0" style="letter-spacing:0.007013118055091774em">C</tspan><tspan x="472.51" y="0" style="letter-spacing:-0.021001445419031584em">A</tspan><tspan x="488.35" y="0">CIONES</tspan></text></svg>