<svg id="f29d80c0-bc2b-405e-ae1a-7761e51247ad" data-name="Capa 1" xmlns="http://www.w3.org/2000/svg" viewBox="0 0 1100 300"><title>Logo-Osiptel</title><path d="M683.24,264.48a28.89,28.89,0,0,0,7.55-.14A34.61,34.61,0,0,0,683.24,264.48Z" style="fill:#00bde6"/><path d="M17,137.39c.68-14,4.75-26.46,18.41-33,12.12-5.82,26.56,0,29.47,11.92,1.84,7.27.38,14.35-3.2,21a110.32,110.32,0,0,0-11,27.72c-2.72,12.12-2.33,24.23-.2,36.35-2.32.29-3.49-1.46-4.75-2.81C31.49,183,22.57,164.62,17.53,144.17,17.05,141.85,17.92,139.52,17,137.39Z" style="fill:#00bdf1"/><path d="M200.22,263.48c-11.43,6.21-23.26,9.4-35.86,3.59-8.52-4-14.15-13.28-13.37-21.71.77-9.11,7-16,17.06-18.51a48,48,0,0,1,10.46-1.26c19.87-.39,38-6,53.7-18.42,1.84-1.45,3.68-3,5.62-4.55.77,5.23-1.84,9.69-3.68,14.15-6.21,15-15.41,28.3-26.46,40.22C205.46,259.32,202.55,261.06,200.22,263.48Z" style="fill:#0070b9"/><path d="M214.57,41.34c9.79,5.82,17.93,13.09,21.42,24.43,2.32,7.85,1.35,15.41-3.68,22-8.53,11-22.68,10.66-32.47-.49-5.43-6.2-9.11-13.66-14.44-20a85.81,85.81,0,0,0-36.64-25.78c-.78-.29-1.45-.68-2.13-1,1.26-2.81,4.17-2.91,6.59-3.3,19.87-3.88,39.44-2.42,58.73,3.59A7.45,7.45,0,0,0,214.57,41.34Z" style="fill:#ff8c2b"/><path d="M60.37,225.49c-.49-2.81-.87-5.72-1.16-8.72-.2-2.33-.39-4.56-.59-6.79,2,1.17,5,2.62,8.44,4.66a73.49,73.49,0,0,0,8.33,4.16,89.15,89.15,0,0,0,30.34,6.79c5.23.19,10.56.38,15.7,2.13,10.66,3.59,16.18,10.56,15.8,20.35-.39,8.92-8.44,18-17.84,20.45-11.14,2.81-21.22-.48-31.11-4.94C77.81,255,70,244.39,62.69,233.24A16.91,16.91,0,0,1,60.37,225.49Z" style="fill:#00d8f6"/><path d="M240.16,192.34c1.64-20.25-2.91-38.28-12.31-55.34-3.69-6.69-6-14-3-21.71,5.43-13.86,22.78-17.25,34.41-6.78A33.26,33.26,0,0,1,270,126.92c.87,4.07,1.55,8.14,2.32,12.21a64.32,64.32,0,0,1-13.66,37.42A60.74,60.74,0,0,1,240.16,192.34Z" style="fill:#2cabd6"/><path d="M114.84,36.59c5.91,2.33,12.5,3.2,18.8,6.88-9.69,5-18.12,10.37-25.3,17.55-6,6-10.75,13.08-15.41,20.16C89,87.28,84,92.52,76.65,94.75c-6.49,1.93-15.12-1.17-19.19-6.69-8.62-11.63-6-23.65,2.23-33.83,3.59-4.46,8.24-7.95,12.31-11.92a144.23,144.23,0,0,1,32.56-6.78C108.05,35.14,111.64,34.07,114.84,36.59Z" style="fill:#ffba85"/><path d="M253.34,182c6.2-7,8.91-15.7,12.31-24a90.4,90.4,0,0,0,5.13-17.45c.2-1.06.29-1.84,1.65-1.45,1.74,55.15-21.23,96.34-69.49,123.28a22,22,0,0,1-2.72,1.07c2.43-4.95,7.08-8.15,10.67-12.12a128.26,128.26,0,0,0,27-48.85c5.13-5.91,11-11.14,14.63-18.22A21.1,21.1,0,0,0,253.34,182Z" style="fill:#004999"/><path d="M114.84,36.59c-12.6-.38-24.81,2-37,5.14-1.84.48-3.68,2.42-5.81.48,16.38-10.56,34-17.83,53.4-20.64,32.28-4.65,61.93,1.94,89.17,19.77-1.16,1.36-2.52.87-4,.39A119.8,119.8,0,0,0,168,36.59c-7.27.39-14.63,1-21.52,4C136.06,38.34,125.69,35.53,114.84,36.59Z" style="fill:#ff650a"/><path d="M60.37,225.49c6.59,14.54,17,26.36,28.4,37.22.09,0-.29.48-.39.77-21.23-9.79-37.9-24.81-50.69-44.1-16.48-24.9-23.75-52.24-20.74-82,2.91,10.47,5.62,20.84,10.37,30.72,5.91,12.41,13,23.85,23.26,33.15C53.29,209.5,55.14,218.22,60.37,225.49Z" style="fill:#00a1e9"/><path d="M105.24,182.94A20.77,20.77,0,0,1,85,204.17h-.68a21.32,21.32,0,0,1-21.62-20.94v-.38a21.55,21.55,0,0,1,21.13-21.33,21.13,21.13,0,0,1,21.42,20.55Z" style="fill:#00bdf1"/><path d="M204.68,204.36c-12,0-21.22-9-21.22-20.93a21.21,21.21,0,0,1,20.93-21.52H205c11.54.19,21.33,10,21.23,21.42A21.31,21.31,0,0,1,204.68,204.36Z" style="fill:#0070b9"/><path d="M144.88,99.78a21,21,0,1,1,20.94-21.12v.19A21.22,21.22,0,0,1,144.88,99.78Z" style="fill:#ff8c2b"/><path d="M504.57,88.11c21.18-14.54,51-8.14,69,2.75a67.9,67.9,0,0,1,8,5.64l-14.14,21.29a42.49,42.49,0,0,0-13.15-8.93c-9.28-4-25.58-6.89-33.36,1.56a15.68,15.68,0,0,0-3.37,6h0a15.56,15.56,0,0,0,1,8.76c3,6.81,10.91,8.76,19.8,11.76,17,5.75,26.33,8.9,33.48,15.84a38.55,38.55,0,0,1,11.67,28.39c-.58,17-13.26,27.25-16,29.33-8.31,6.33-16.71,7.51-23.54,8.46-23.22,3.26-41.52-6.58-48.15-10.26A86.32,86.32,0,0,1,480.58,198l16.09-21.22A51.24,51.24,0,0,0,507,185.48c3.08,2,18.6,11.84,33.48,6.48,2.67-1,8.83-3.17,11-9a12.51,12.51,0,0,0,0-8.66c-2.05-5.16-7.49-7.24-12.69-9.27-14.48-5.63-21.73-8.45-24.66-9.81-7.21-3.33-21.24-9.82-26.28-23.76a34.35,34.35,0,0,1-.45-20.61C491,97.66,501.08,90.51,504.57,88.11Z" style="fill:#fff"/><path d="M1031.05,39.86l29.92-.12c.13,63.16.42,109.73-.06,127.56-.09,3.58-.4,12.72,5.6,18.29,5.1,4.74,12.55,4.83,17.2,4.39q-.07,14.1-.17,28.2a51.87,51.87,0,0,1-13-.48c-4.67-.76-15.62-2.71-25-11.52-7.62-7.2-10.31-15.34-12-20.46a59.83,59.83,0,0,1-2.4-26.58Q1031.1,99.5,1031.05,39.86Z" style="fill:#fff"/><path d="M390.2,81.18c-42.61-.28-74.35,28.63-75.08,68.38-.73,39.9,32.27,71.63,74.51,71.62,41.87,0,73.22-29.93,73.47-70.1C463.36,110.42,433.16,81.46,390.2,81.18Zm-.1,113.22c-23.4.5-42.61-18.82-42.9-43.15C346.89,126,364.18,108,389,107.9s42.85,17.54,43,42.36S414.17,193.89,390.1,194.4Z" style="fill:#fff"/><path d="M1002.57,156.72c.52-2.31,6.62-38.23-17.74-62.14C969.55,79.58,949.74,80,944,79.94c-23.32,0-45.64,12.73-57.84,32.28-17.91,28.72-10.75,66.84,10.93,87.9,17.74,17.22,40.72,18.67,46.31,19a83.52,83.52,0,0,0,59.36-21l-15.32-22.55a44.6,44.6,0,0,1-18,12.73c-21.53,8-51.25.22-58.53-17.85A46.72,46.72,0,0,1,908,156.72Zm-80.71-43.51c2.88-2.46,10.33-8.64,21.47-8.79,2.35,0,11.6,0,19.54,6.56a31.69,31.69,0,0,1,9.24,13.68,34.93,34.93,0,0,1,1.83,7.06H910A38.46,38.46,0,0,1,921.86,113.21Z" style="fill:#fff"/><rect x="609.39" y="80.42" width="30" height="140" style="fill:#fff"/><circle cx="624.87" cy="54.68" r="15" style="fill:#fff"/><path d="M786.57,142.67a62.81,62.81,0,0,0-9.1-31c-14.15-23-40.07-29.85-50-30.59-1.34-.1-7.38-.46-14.93-.61-5.63-.11-10.3-.06-13.53,0H669V272h30V216.62a103.34,103.34,0,0,0,15-.73c5.92-.72,23.27-2.84,38.58-12.59C770.07,192.2,787.24,169.69,786.57,142.67Zm-31.42,6.87c-1.59,15.16-12.79,24.08-16.32,26.88-16.3,13-35.78,10.22-39.6,9.61L699,104.12c3-.47,25.58-3.62,42.21,12.3C743.89,119,757,131.55,755.15,149.54Z" style="fill:#fff"/><path d="M852.77,189.75a17.24,17.24,0,0,1-7.38-4.45c-3.89-4.28-3.89-9.77-3.82-11.52v-65.4h20.14v-28H841.57V40.42h-8.44q-.68,0-1.38,0H820.92c-.57,0-1.13,0-1.68,0h-7.67c.43,95.19.34,129,0,133.6a40.79,40.79,0,0,0,0,5.86,41.86,41.86,0,0,0,2,10.11A37.83,37.83,0,0,0,823,204.14c8.8,9,19,12,24.84,13.68a66.94,66.94,0,0,0,17.56,2.6q-.14-14.55-.28-29.12A27.45,27.45,0,0,1,852.77,189.75Z" style="fill:#fff"/><text transform="translate(315.67 271.62)" style="font-size:33px;fill:#fff;font-family:MyriadPro-Bold, Myriad Pro;font-weight:700">EL REGU<tspan x="123.35" y="0" style="letter-spacing:0.005992542613636364em">L</tspan><tspan x="140.41" y="0">ADOR DE </tspan><tspan x="282.18" y="0" style="letter-spacing:0.006007339015151515em">L</tspan><tspan x="299.24" y="0">AS </tspan><tspan x="345.37" y="0" style="letter-spacing:0.2412405303030303em">	</tspan><tspan x="360" y="0" style="letter-spacing:0.8889234138257576em">	</tspan><tspan x="396" y="0">TELE</tspan><tspan x="466.19" y="0" style="letter-spacing:-0.030007102272727272em">C</tspan><tspan x="484.84" y="0">OMUNI</tspan><tspan x="591.09" y="0" style="letter-spacing:0.010002367424242424em">C</tspan><tspan x="611.06" y="0" style="letter-spacing:-0.02500591856060606em">A</tspan><tspan x="631.88" y="0">CIONES</tspan></text></svg>