<svg id="Capa_1" enable-background="new 0 0 497 497" height="512" viewBox="0 0 497 497" width="512" xmlns="http://www.w3.org/2000/svg"><g><path d="m115.966 162.383h-66.267v-30.134c0-4.418 3.582-8 8-8h50.267c4.418 0 8 3.582 8 8z" fill="#ffce69"/><g><g><path d="m115.36 136.933c-3.099 0-5.998-1.935-7.079-5.024-1.368-3.909.692-8.189 4.602-9.557l283.169-99.108c3.912-1.368 8.189.692 9.557 4.601s-.692 8.188-4.602 9.557l-283.169 99.108c-.82.287-1.656.423-2.478.423z" fill="#bdd3dd"/></g></g><path d="m107.966 124.249h-23c4.418 0 8 3.582 8 8v28.134h23v-28.134c0-4.419-3.582-8-8-8z" fill="#ffbd61"/><path d="m447.301 160.383h-66.267v-28.134c0-4.418 3.582-8 8-8h50.267c4.418 0 8 3.582 8 8z" fill="#868eaf"/><path d="m347.901 160.383h-66.267v-28.134c0-4.418 3.582-8 8-8h50.267c4.418 0 8 3.582 8 8z" fill="#868eaf"/><path d="m439.301 124.249h-23c4.418 0 8 3.582 8 8v28.134h23v-28.134c0-4.419-3.582-8-8-8z" fill="#7d83ad"/><path d="m339.901 124.249h-23c4.418 0 8 3.582 8 8v28.134h23v-28.134c0-4.419-3.582-8-8-8z" fill="#7d83ad"/><path d="m265.066 488.718h198.801c18.299 0 33.133-14.834 33.133-33.133v-265.07c0-18.299-14.834-33.133-33.133-33.133h-198.801z" fill="#a0c8ff"/><path d="m281.634 157.383h-248.501c-18.299 0-33.133 14.834-33.133 33.132v265.07c0 18.299 14.834 33.133 33.133 33.133h248.501z" fill="#bdd3dd"/><g><g><circle cx="140.816" cy="323.051" fill="#868eaf" r="107.684"/><circle cx="140.816" cy="323.051" fill="#7d83ad" r="41.417"/></g></g><path d="m455.868 240.216h-133.101c-4.418 0-8-3.582-8-8v-33.7c0-4.418 3.582-8 8-8h133.101c4.418 0 8 3.582 8 8v33.7c0 4.418-3.582 8-8 8z" fill="#f9f5f3"/><ellipse cx="339.617" cy="298.2" fill="#868eaf" rx="24.85" ry="24.85" transform="matrix(.23 -.973 .973 .23 -28.633 560.219)"/><ellipse cx="439.018" cy="298.2" fill="#868eaf" rx="24.85" ry="24.85" transform="matrix(.233 -.973 .973 .233 46.91 655.846)"/><g><path d="m463.868 363.684h-149.101c-4.142 0-7.5-3.357-7.5-7.5s3.358-7.5 7.5-7.5h149.101c4.142 0 7.5 3.357 7.5 7.5 0 4.142-3.358 7.5-7.5 7.5z" fill="#868eaf"/></g><g><path d="m463.868 396.816h-149.101c-4.142 0-7.5-3.357-7.5-7.5s3.358-7.5 7.5-7.5h149.101c4.142 0 7.5 3.357 7.5 7.5s-3.358 7.5-7.5 7.5z" fill="#868eaf"/></g><g><path d="m463.868 429.95h-149.101c-4.142 0-7.5-3.357-7.5-7.5s3.358-7.5 7.5-7.5h149.101c4.142 0 7.5 3.357 7.5 7.5s-3.358 7.5-7.5 7.5z" fill="#868eaf"/></g><ellipse cx="414.168" cy="24.849" fill="#ffce69" rx="16.567" ry="16.567" transform="matrix(.23 -.973 .973 .23 294.828 422.228)"/><path d="m140.816 215.367c-3.885 0-7.721.211-11.5.612 54.064 5.74 96.184 51.485 96.184 107.072s-42.12 101.332-96.184 107.072c3.779.401 7.615.612 11.5.612 59.472 0 107.684-48.212 107.684-107.684 0-59.473-48.212-107.684-107.684-107.684z" fill="#7d83ad"/><path d="m455.868 190.516h-23c4.418 0 8 3.582 8 8v33.7c0 4.418-3.582 8-8 8h23c4.418 0 8-3.582 8-8v-33.7c0-4.419-3.582-8-8-8z" fill="#f9eae0"/><path d="m439.018 273.349c-4.151 0-8.06 1.023-11.5 2.823 7.933 4.15 13.35 12.454 13.35 22.028s-5.417 17.877-13.35 22.027c3.44 1.799 7.349 2.823 11.5 2.823 13.724 0 24.85-11.126 24.85-24.85 0-13.725-11.126-24.851-24.85-24.851z" fill="#7d83ad"/><path d="m339.617 273.349c-4.151 0-8.061 1.023-11.5 2.823 7.933 4.15 13.35 12.454 13.35 22.028s-5.417 17.877-13.35 22.027c3.439 1.799 7.349 2.823 11.5 2.823 13.724 0 24.85-11.126 24.85-24.85 0-13.725-11.126-24.851-24.85-24.851z" fill="#7d83ad"/><path d="m463.867 157.383h-23c18.299 0 33.133 14.834 33.133 33.132v265.07c0 18.299-14.834 33.133-33.133 33.133h23c18.299 0 33.133-14.834 33.133-33.133v-265.07c0-18.298-14.834-33.132-33.133-33.132z" fill="#91b2fa"/></g></svg>