<svg id="b1696705-fe29-4da2-aaf4-c073da472910" data-name="Capa 1" xmlns="http://www.w3.org/2000/svg" viewBox="0 0 200 200"><title>movistar</title><path d="M179.92,98.78a142.64,142.64,0,0,1-2.14,24.92,18.21,18.21,0,0,1-2.59,7.49c-2.46,3.54-5.56,5.92-10.09,4.77s-6-4.8-6-8.79c.08-6.47.75-12.94,1.3-19.41.42-5,.77-10-.32-14.9-1.74-7.9-8.47-10.13-14.55-4.79C141,92,138.34,97.16,136,102.55c-4.14,9.65-7,19.73-10.15,29.71-4.2,13.27-13,21.32-26.91,22.45-12.94,1-22.82-4.71-29.4-16l-12.84-22c-1.26-2.16-2.4-4.41-3.86-6.42-2.33-3.2-4.58-7.19-9.52-5.26-4.72,1.84-4.42,6.4-4.09,10.28.73,8.5,3.83,16.48,6.13,24.63a56.42,56.42,0,0,1,2.08,9.73c.34,3.42-.42,6.71-4,8.39-3.84,1.8-7.14.74-10-2.15a11.42,11.42,0,0,1-2.33-3.22c-10.59-24.5-15.33-49.52-6.3-75.64,2-5.86,4.84-11.32,9.35-15.74,9.06-8.87,22.26-9,31.4-.33C71.46,66.6,75.73,73.36,80,80.12c2.84,4.49,5.43,9.17,9.3,12.94,8.6,8.36,19.38,6.55,24.33-4.42,4.11-9.08,7.63-18.43,11.59-27.58,3.17-7.34,7.67-13.61,15.11-17.31,11.35-5.65,22.29-2.5,28.75,8.43,6.06,10.25,8.44,21.61,9.81,33.24C179.49,90.37,179.67,95.37,179.92,98.78Z" style="fill:#2aa8d2"/></svg>