<svg id="Layer_1" enable-background="new 0 0 512 512" height="512" viewBox="0 0 512 512" width="512" xmlns="http://www.w3.org/2000/svg"><g><path d="m256 21.996c-135.311 0-245.002 109.691-245.002 245.002 0 60.441 21.899 115.76 58.179 158.485l111.877 74.824c23.624 7.583 48.803 11.693 74.946 11.693 135.311 0 245.002-109.691 245.002-245.002s-109.691-245.002-245.002-245.002z" fill="#816ae2"/><g><path d="m340.642 255.005-88.215-50.411c-3.596-2.055-4.846-6.637-2.79-10.232 2.055-3.597 6.638-4.846 10.233-2.791l88.215 50.411c3.596 2.055 4.846 6.637 2.79 10.232-2.045 3.578-6.621 4.856-10.233 2.791z" fill="#ebf5fc"/></g><g><path d="m249.088 159.839c-2.157-3.535-1.04-8.151 2.496-10.309l88.873-54.228c3.536-2.158 8.151-1.04 10.309 2.496 2.157 3.536 1.04 8.151-2.496 10.309l-88.873 54.228c-3.522 2.149-8.142 1.054-10.309-2.496z" fill="#ebf5fc"/></g><circle cx="220.139" cy="177.504" fill="#73c3f9" r="79.542"/><path d="m250.57 104.005c-6.95 4.503-17.419 14.642-11.424 32.777 8.629 26.1 23.129 49.6 23.129 49.6s12.578 21.912 35.816 7.001c1.04-5.131 1.589-10.441 1.589-15.879 0-33.148-20.282-61.55-49.11-73.499z" fill="#9bd8f9"/><circle cx="220.139" cy="177.504" fill="#4fabf7" r="44.935"/><path d="m296.086 299.363-1.647-.951c-9.528-5.501-21.825-2.206-27.326 7.322l6.73-11.656c5.346-9.259 3.298-21.282-5.257-27.694-10.198-7.643-24.578-4.451-30.761 6.259l2.113-3.66c5.345-9.259 3.299-21.282-5.257-27.693-10.198-7.643-24.577-4.452-30.761 6.259l33.317-57.706c5.346-9.259 3.298-21.283-5.257-27.694-10.199-7.643-24.578-4.45-30.761 6.259l-55.608 96.316c-1.095 1.897-3.542 2.512-5.398 1.348-4.79-3.004-12.227-7.525-22.286-4.151-22.029 7.391-37.363 27.427-38.737 50.628-.989 21.337-1.959-3.313 8.239 71.63.739 4.968-.227 10.04-2.739 14.39l-15.513 26.914c29.248 34.444 67.846 60.691 111.878 74.824l24.153-41.9c7.335-12.704 31.099-15.496 51.056-50.064 4.422-7.658 35.655-61.756 47.144-81.654 5.501-9.528 2.206-21.824-7.322-27.326z" fill="#f9ba8f"/><path d="m225.595 158.285 8.459 4.884c4.859 2.805 6.538 9.075 3.734 13.932l-9.173 15.889c-2.805 4.859-9.075 6.539-13.933 3.734l-8.459-4.884c-4.858-2.805-6.538-9.074-3.733-13.933l9.174-15.889c2.803-4.858 9.073-6.538 13.931-3.733z" fill="#f9dfcd"/><path d="m115.324 297.012c4.824 2.785 10.992 1.132 13.777-3.692l16.51-28.596c-1.095 1.897-3.542 2.511-5.398 1.347-3.657-2.293-8.862-5.459-15.593-5.333l-12.988 22.496c-2.785 4.824-1.132 10.993 3.692 13.778z" fill="#fd995b"/><g><path d="m462.537 398.839c-10.815 1.297-22.039.801-32.773-.748-23.578-3.403-46.457-11.188-70.2-13.129-12.209-.999-25.178-.245-35.568 6.244-5.796 3.62-10.425 8.804-14.856 14.006-14.962 17.565-28.668 36.2-40.978 55.715-3.841 6.09-7.604 12.403-9.188 19.427-2.441 10.819.764 22.251 7.158 31.421 82.553-3.36 154.579-47.55 196.405-112.936z" fill="#9181f2"/></g><g><path d="m399.812 144.16c29.568 0 55.447-20.158 55.447-20.158 11.785-13.165 18.953-30.545 18.953-49.602 0-41.09-33.31-74.4-74.4-74.4s-74.4 33.31-74.4 74.4c0 19.057 7.169 36.438 18.952 49.601-.001 0 25.88 20.159 55.448 20.159z" fill="#ff4155"/><path d="m422.981 83.21s-10.881-62.439-19.382-68.641c-8.163-5.956-1.904-13.888-1.395-14.509-.797-.025-1.59-.06-2.392-.06-41.091 0-74.4 33.31-74.4 74.4 0 19.057 7.168 36.438 18.952 49.601 0 0 25.88 20.159 55.449 20.159 29.568 0 55.447-20.158 55.447-20.158 7.112-7.945 12.527-17.433 15.715-27.891-25.938 11.438-47.994-12.901-47.994-12.901z" fill="#e80054"/><g><path d="m379.919 121.156c5.675 4.407 12.679 6.801 19.893 6.801 7.213 0 14.217-2.394 19.892-6.801 2.634-2.046 5.379-4.566 8.028-7.529-1.529-.492-3.084-.946-4.678-1.345-.965-.242-1.812-.822-2.36-1.594-2.524-3.56-3.222-9.063-3.36-13.054-1.77 2.062-3.628 3.786-5.403 5.165-7.119 5.528-17.132 5.521-24.242 0-1.775-1.378-3.633-3.103-5.403-5.165-.141 4.08-.867 9.74-3.53 13.289-.454.606-1.154 1.1-1.994 1.309-1.657.41-3.279.879-4.875 1.394 2.653 2.964 5.398 5.484 8.032 7.53z" fill="#fcad6d"/></g><path d="m399.716 106.938c-4.251-.021-8.496-1.399-12.025-4.14-1.775-1.378-3.632-3.102-5.402-5.164-.141 4.08-.867 9.74-3.53 13.289-.454.606-1.154 1.101-1.994 1.309-1.657.41-3.279.879-4.875 1.394 2.65 2.964 5.395 5.484 8.03 7.531 3.197 2.482 6.824 4.3 10.665 5.437 6.11-6.152 8.336-14.199 9.131-19.656z" fill="#fd995b"/><path d="m448.738 122.768c-2.261-.185-3.464-1.062-6.129-2.565-5.096-2.874-10.359-5.21-16.033-6.934-2.606 2.961-5.32 5.453-7.919 7.471-5.376 4.175-12.011 6.443-18.845 6.443-6.833 0-13.468-2.268-18.845-6.443-2.599-2.018-5.313-4.51-7.919-7.471-5.657 1.722-10.953 4.069-16.033 6.934-2.665 1.503-3.868 2.38-6.129 2.565-2.379.194-4.546.618-6.523 1.233 13.623 15.219 33.416 24.8 55.449 24.8s41.826-9.581 55.449-24.8c-1.977-.614-4.144-1.038-6.523-1.233z" fill="#3c58a0"/><g><g><path d="m393.951 14.724c-17.599 2.398-19.272 12.376-19.28 16.037-.002.768-.427 1.479-1.117 1.815-9.155 4.453-4.219 25.917-4.219 25.917.919.061 2.298.85 3.016 1.198.176-1.094.463-2.17.868-3.211.309-.793.695-1.594 1.177-2.351.837-1.313 1.219-2.863 1.105-4.412-.329-4.478-.587-12.884 5.323-15.544 5.007-2.253 11.149-.948 15.066.354 2.544.846 5.299.846 7.843 0 3.917-1.302 10.059-2.607 15.066-.354 5.894 2.652 5.651 11.016 5.326 15.505-.113 1.561.258 3.126 1.101 4.45.498.781.893 1.61 1.207 2.428.39 1.017.667 2.068.838 3.135.905-.438 2.614-1.332 3.72-1.176.135-4.693.569-9.753.569-9.753 5.218-25.544-18.659-36.62-37.609-34.038z" fill="#2a428c"/><path d="m393.951 14.724c-17.599 2.398-19.272 12.376-19.28 16.037-.002.768-.427 1.479-1.117 1.815-9.155 4.453-4.219 25.917-4.219 25.917.919.061 2.298.85 3.016 1.198.176-1.094.463-2.17.868-3.211.309-.793.695-1.594 1.177-2.351.837-1.313 1.219-2.863 1.105-4.412-.329-4.478-.587-12.884 5.323-15.544 5.007-2.253 11.15-.948 15.066.354 1.072.356 2.181.553 3.296.61-.171-.293-.353-.584-.557-.871-7.55-10.612 2.945-18.345 4.97-19.696-3.248-.324-6.515-.273-9.648.154z" fill="#1c2e7a"/></g><path d="m432.555 59.124c-1.371-1.256-4.101-.619-5.282.15.259 1.611.273 3.258.05 4.885l-1.393 10.147c0 .818-.026 1.62-.073 2.409 3.397 1.025 5.085-2.025 5.369-4.118.122-.901.322-1.789.6-2.656.903-2.822 4.163-7.669.729-10.817z" fill="#fcad6d"/><path d="m367.069 59.124c1.371-1.256 4.101-.619 5.282.15-.259 1.611-.273 3.258-.05 4.885l1.393 10.147c0 .818.026 1.62.073 2.409-3.397 1.025-5.085-2.025-5.369-4.118-.122-.901-.322-1.789-.6-2.656-.903-2.822-4.163-7.669-.729-10.817z" fill="#fd995b"/><path d="m426.851 56.139c-.314-.818-.709-1.647-1.207-2.428-.844-1.324-1.215-2.889-1.102-4.45.325-4.49.151-13.27-5.743-15.922-5.007-2.253-11.149-.949-15.066.354-2.544.846-5.301.846-7.844 0-3.917-1.302-10.059-2.607-15.066-.354-5.91 2.659-6.069 11.483-5.74 15.96.114 1.549-.267 3.098-1.105 4.412-.482.757-.868 1.558-1.177 2.351-1.001 2.573-1.293 5.363-.918 8.094l1.393 10.149c0 14.591 7.789 24.508 14.414 29.653 3.458 2.685 7.726 4.144 12.121 4.144s8.663-1.459 12.121-4.144c6.625-5.145 14.414-15.062 14.414-29.653l1.393-10.147c.372-2.704.091-5.466-.888-8.019z" fill="#f9ba8f"/><g><path d="m407.04 103.959c-6.625-5.145-14.414-15.062-14.414-29.653l-1.393-10.149c-.375-2.732-.083-5.522.918-8.094.309-.793.695-1.594 1.177-2.351.837-1.313 1.219-2.863 1.105-4.412-.297-4.049-.195-11.649 4.196-15.035-.927-.089-1.846-.275-2.739-.572-3.917-1.302-10.059-2.607-15.066-.354-5.91 2.659-6.069 11.483-5.74 15.96.114 1.549-.267 3.098-1.105 4.412-.482.757-.868 1.558-1.177 2.351-1.001 2.573-1.293 5.363-.918 8.094l1.393 10.149c0 14.591 7.789 24.508 14.414 29.653 3.458 2.685 7.726 4.144 12.121 4.144 3.408 0 6.738-.881 9.675-2.527-.851-.476-1.67-1.013-2.447-1.616z" fill="#fcad6d"/></g></g><path d="m380.967 120.741c-2.599-2.018-5.313-4.51-7.919-7.471-5.656 1.723-10.952 4.068-16.033 6.934-2.665 1.502-3.868 2.38-6.129 2.564-2.379.195-4.546.619-6.523 1.233 5.834 6.517 12.805 11.989 20.592 16.128 2.91-2.396 6.981-4.572 12.686-6.139 5.972-1.641 10.358-4.58 13.585-8.052-3.696-1.072-7.186-2.811-10.259-5.197z" fill="#2a428c"/></g><g><path d="m399.813 351.927c31.207 0 55.659-21.954 55.659-21.954 11.658-13.135 18.741-30.421 18.741-49.364 0-41.09-33.31-74.4-74.4-74.4s-74.4 33.31-74.4 74.4c0 18.943 7.084 36.229 18.742 49.364.001.001 24.452 21.954 55.658 21.954z" fill="#ffdd40"/><path d="m436.878 297.243s-43.221-64.658-60.41-64.658c-12.932 0-14.907-10.491-15.092-15.689-21.554 13.031-35.963 36.689-35.963 63.713 0 18.943 7.084 36.229 18.742 49.364.002.002 24.453 21.954 55.659 21.954 31.207 0 55.659-21.954 55.659-21.954 6.413-7.225 11.43-15.711 14.657-25.033-20.478 10.684-33.252-7.697-33.252-7.697z" fill="#ffb332"/><path d="m427.126 269.747c.065 3.562-.287 7.209-.668 9.641-1.797 7.921-4.392 14.818-7.711 20.497-1.505 2.575-3.382 4.916-5.581 6.958l-.282.262v1.774c0 1.839.715 3.539 1.931 5.105 6.81-.412 12.6-1.791 17.164-3.363 5.494-1.892 7.898-8.404 4.897-13.379-7.067-11.715-6.014-27.496-6.014-27.496h-3.736z" fill="#2a428c"/><path d="m436.878 297.243c-.663-1.099-1.254-2.234-1.782-3.388-8.225 4.772-11.512-1.989-11.512-1.989s-.212-.312-.602-.891c-1.243 3.231-2.655 6.21-4.234 8.911-1.505 2.575-3.382 4.916-5.581 6.958l-.282.262v1.774c0 1.839.715 3.54 1.931 5.105 6.81-.412 12.6-1.791 17.164-3.363 5.495-1.892 7.9-8.404 4.898-13.379z" fill="#1c2e7a"/><path d="m367.648 310.622c4.563 1.572 10.354 2.951 17.164 3.363 1.217-1.566 1.931-3.267 1.931-5.105v-2.179l-.269-.26c-2.012-1.942-3.745-4.147-5.152-6.555-3.321-5.684-5.915-12.578-7.709-20.49-.393-2.294-.748-6.002-.669-9.649h-4.178s1.053 15.782-6.014 27.496c-3.002 4.975-.598 11.487 4.896 13.379z" fill="#1c2e7a"/><g><path d="m415.993 224.267c-4.234-2.185-9.499-3.701-15.958-3.701-6.458 0-11.724 1.516-15.958 3.701-9.269 4.782-14.981 14.278-14.981 24.524v12.639.004c1.462-.034 3.079.445 4.121 1.139.384-1.256.91-2.344 1.62-3.144.639-.72 1.04-1.612 1.069-2.565.109-3.649 1.066-12.272 7.492-15.572 1.79-.919 3.977-.218 4.983 1.525 3.87 6.71 12.899 15.553 32.977 11.785 1.424-.267 2.762.792 2.806 2.24v.015c.029.961.43 1.853 1.069 2.573.71.8 1.236 1.888 1.62 3.144 1.042-.695 2.659-1.174 4.121-1.139v-.004-12.639c0-10.247-5.712-19.743-14.981-24.525z" fill="#2a428c"/></g><path d="m399.649 252.349c-9.951-19.011 8.745-30.855 8.745-30.855-2.533-.586-5.311-.927-8.359-.927-6.458 0-11.724 1.516-15.958 3.701-9.269 4.782-14.981 14.278-14.981 24.524v12.639.004c1.462-.034 3.079.445 4.121 1.139.384-1.256.91-2.344 1.62-3.144.639-.72 1.041-1.612 1.069-2.565.109-3.649 1.066-12.272 7.492-15.572 1.79-.919 3.977-.218 4.983 1.525 2.092 3.628 5.697 7.875 11.736 10.42-.158-.297-.313-.594-.468-.889z" fill="#1c2e7a"/><path d="m372.962 279.52s-1.678-10.62.255-16.945c-1.754-1.169-5.142-1.74-6.666-.25-3.12 3.05-.834 7.656.26 10.566.336.893.553 1.797.651 2.702.213 1.967 1.279 4.846 5.701 4.778-.067-.284-.135-.563-.201-.851z" fill="#fd995b"/><path d="m433.519 262.324c-1.524-1.49-4.912-.919-6.666.25 1.933 6.325.255 16.945.255 16.945-.065.288-.134.567-.201.85 4.422.068 5.488-2.811 5.701-4.778.098-.905.315-1.809.651-2.702 1.094-2.909 3.38-7.514.26-10.565z" fill="#fcad6d"/><path d="m371.878 322.666c4.947 8.466 12.439 15.051 21.665 19.043 4.132 1.787 8.871 1.787 13.003 0 9.226-3.992 16.718-10.576 21.665-19.043.188-.321.366-.656.547-.988-7.765-2.982-14.993-7.231-14.993-12.794 0-1.939 0-1.358 0-2.614-3.381 3.022-9.178 6.873-13.953 6.989-4.775-.116-10.573-3.966-13.953-6.989 0 3.604.957 7.943-10.373 13.444-1.336.649-2.765 1.258-4.231 1.829.207.377.41.758.623 1.123z" fill="#fcad6d"/><path d="m399.695 313.25c-4.752-.174-10.482-3.983-13.836-6.98 0 3.604.957 7.943-10.373 13.444-1.336.649-2.765 1.258-4.231 1.829.205.378.409.759.622 1.124 4.352 7.448 10.675 13.438 18.414 17.489 6.541-9.1 8.703-19.975 9.404-26.906z" fill="#fd995b"/><path d="m447.418 326.96c-1.056-.285-11.085-2.194-19.923-5.782-.259.467-.511.947-.777 1.403-4.687 8.021-11.784 14.259-20.526 18.041-3.915 1.693-8.404 1.693-12.319 0-8.741-3.782-15.839-10.02-20.526-18.041-.291-.499-.567-1.023-.85-1.535-9.06 3.733-20.243 5.903-20.29 5.915-1.914.367-4.897 1.201-8.054 3.013 13.629 15.356 33.512 25.036 55.659 25.036s42.03-9.68 55.659-25.036c-3.156-1.814-6.139-2.647-8.053-3.014z" fill="#fc90ce"/><path d="m424.385 256.858c-.014-.464-.043-1.025-.097-1.652-.163-.235-.358-.451-.586-.634-.693-.557-1.594-.782-2.466-.619-19.145 3.593-28.121-4.252-32.282-11.466-.76-1.318-2.076-2.111-3.472-2.241-1.181.328-2.267.818-3.252 1.475-5.61 3.735-6.445 11.83-6.543 15.138-.026.869-.376 1.708-1.014 2.426-3.513 3.958-2.744 15.523-1.924 20.284 1.815 8.011 4.444 14.996 7.813 20.762 3.42 5.853 8.6 10.406 14.979 13.166 2.857 1.236 6.133 1.236 8.99 0 6.379-2.76 11.559-7.312 14.979-13.166 3.369-5.764 5.998-12.75 7.816-20.777.787-5.005 1.626-16.266-1.927-20.27-.638-.718-.988-1.557-1.014-2.426z" fill="#f9ba8f"/><path d="m404.039 300.33c-3.369-5.766-5.998-12.751-7.813-20.762-.82-4.761-1.589-16.326 1.924-20.284.638-.718.988-1.557 1.014-2.426.032-1.091.147-2.705.484-4.509-5.255-2.41-8.592-6.215-10.696-9.862-.76-1.318-2.076-2.111-3.472-2.241-1.182.328-2.267.818-3.252 1.475-5.61 3.735-6.445 11.83-6.544 15.138-.026.869-.376 1.708-1.014 2.426-3.513 3.958-2.744 15.523-1.924 20.284 1.815 8.011 4.444 14.996 7.813 20.762 3.42 5.853 8.6 10.406 14.979 13.166 2.857 1.236 6.133 1.236 8.99 0 2.634-1.139 5.059-2.589 7.244-4.305-3.106-2.441-5.724-5.425-7.733-8.862z" fill="#fcad6d"/><path d="m390.941 339.224c-7.399-3.839-13.443-9.54-17.593-16.643-.291-.499-.567-1.023-.85-1.535-9.06 3.733-20.243 5.903-20.29 5.914-1.914.368-4.897 1.201-8.054 3.013 8.792 9.906 20.189 17.444 33.114 21.551 5.994-3.129 10.417-7.497 13.673-12.3z" fill="#f964b2"/></g><path d="m87.429 384.179c.739 4.968-.227 10.04-2.739 14.39l-15.513 26.914c29.248 34.444 67.846 60.691 111.878 74.824l24.153-41.9c3.899-6.753 12.439-10.705 22.582-18.117-110.068 30.574-140.361-56.111-140.361-56.111z" fill="#fd995b"/></g></svg>