<svg id="Capa_1" enable-background="new 0 0 512 512" height="512" viewBox="0 0 512 512" width="512" xmlns="http://www.w3.org/2000/svg"><g><path d="m512 15v422c0 8.401-6.599 15-15 15h-286l-13.2 15-16.8-15h-60c-66.301 0-121-54.699-121-121v-211c0-66.301 54.699-120 121-120h376c8.401 0 15 6.599 15 15z" fill="#4d588c"/><path d="m512 15v422c0 8.401-6.599 15-15 15h-166v-452h166c8.401 0 15 6.599 15 15z" fill="#343473"/><g><path d="m436 60h-210c-8.401 0-15 6.599-15 15v91c0 8.401 6.599 15 15 15h210c8.401 0 15-6.599 15-15v-91c0-8.401-6.599-15-15-15z" fill="#b6f2aa"/></g><g><path d="m256 241h-30c-8.291 0-15-6.709-15-15s6.709-15 15-15h30c8.291 0 15 6.709 15 15s-6.709 15-15 15z" fill="#ecf2ff"/></g><g><path d="m361 226c0 8.401-6.599 15-15 15h-30c-8.401 0-15-6.599-15-15s6.599-15 15-15h30c8.401 0 15 6.599 15 15z" fill="#ecf2ff"/></g><g><path d="m436 241h-30c-8.291 0-15-6.709-15-15s6.709-15 15-15h30c8.291 0 15 6.709 15 15s-6.709 15-15 15z" fill="#d9e5ff"/></g><g><path d="m256 301h-30c-8.291 0-15-6.709-15-15s6.709-15 15-15h30c8.291 0 15 6.709 15 15s-6.709 15-15 15z" fill="#ecf2ff"/></g><g><path d="m361 286c0 8.401-6.599 15-15 15h-30c-8.401 0-15-6.599-15-15s6.599-15 15-15h30c8.401 0 15 6.599 15 15z" fill="#ecf2ff"/></g><g><path d="m436 301h-30c-8.291 0-15-6.709-15-15s6.709-15 15-15h30c8.291 0 15 6.709 15 15s-6.709 15-15 15z" fill="#d9e5ff"/></g><g><path d="m256 361h-30c-8.291 0-15-6.709-15-15s6.709-15 15-15h30c8.291 0 15 6.709 15 15s-6.709 15-15 15z" fill="#ecf2ff"/></g><g><path d="m361 346c0 8.401-6.599 15-15 15h-30c-8.401 0-15-6.599-15-15s6.599-15 15-15h30c8.401 0 15 6.599 15 15z" fill="#ecf2ff"/></g><g><path d="m436 361h-30c-8.291 0-15-6.709-15-15s6.709-15 15-15h30c8.291 0 15 6.709 15 15s-6.709 15-15 15z" fill="#d9e5ff"/></g><g fill="#d9e5ff"><path d="m361 346c0 8.401-6.599 15-15 15h-15v-30h15c8.401 0 15 6.599 15 15z"/><path d="m361 286c0 8.401-6.599 15-15 15h-15v-30h15c8.401 0 15 6.599 15 15z"/><path d="m361 226c0 8.401-6.599 15-15 15h-15v-30h15c8.401 0 15 6.599 15 15z"/></g><path d="m451 75v91c0 8.401-6.599 15-15 15h-105v-121h105c8.401 0 15 6.599 15 15z" fill="#8ae68a"/><path d="m181 452v7.5c0 12.407-10.093 22.5-22.5 22.5s-22.5-10.093-22.5-22.5v-83.5c0-8.291-6.709-15-15-15s-15 6.709-15 15v83.5c0 28.945 23.555 52.5 52.5 52.5s52.5-23.555 52.5-52.5v-7.5z" fill="#6c7ea6"/><g><g><path d="m121 391c-33.091 0-60-26.909-60-60v-211c0-33.091 26.909-60 60-60s60 26.909 60 60v211c0 33.091-26.909 60-60 60z" fill="#6c7ea6"/></g></g></g></svg>